M48
; DRILL file {KiCad (6.0.7)} date Sat Mar 18 11:43:13 2023
; FORMAT={-:-/ absolute / metric / decimal}
; #@! TF.CreationDate,2023-03-18T11:43:13+08:00
; #@! TF.GenerationSoftware,Kicad,Pcbnew,(6.0.7)
; #@! TF.FileFunction,Plated,1,2,PTH
FMAT,2
METRIC
; #@! TA.AperFunction,Plated,PTH,ViaDrill
T1C0.300
; #@! TA.AperFunction,Plated,PTH,ComponentDrill
T2C1.000
; #@! TA.AperFunction,Plated,PTH,ComponentDrill
T3C1.400
%
G90
G05
T1
X93.472Y-106.426
X93.472Y-112.522
X93.472Y-118.618
X93.98Y-77.978
X94.234Y-108.458
X94.234Y-114.554
X94.234Y-120.65
X94.742Y-81.534
X94.996Y-86.106
X94.996Y-110.49
X94.996Y-116.586
X94.996Y-122.682
X101.092Y-88.392
X101.854Y-77.978
X101.854Y-80.518
X117.668Y-78.915
X117.668Y-82.98
X117.668Y-87.043
X118.618Y-81.026
X118.618Y-85.09
X119.126Y-75.438
X122.936Y-83.566
X122.936Y-89.662
X122.936Y-95.758
X122.936Y-105.918
X122.936Y-112.014
X122.936Y-118.11
X123.952Y-85.598
X123.952Y-91.694
X123.952Y-97.79
X123.952Y-103.886
X123.952Y-109.982
X123.952Y-116.078
X124.968Y-87.63
X124.968Y-93.726
X124.968Y-99.822
X124.968Y-101.854
X124.968Y-107.95
X124.968Y-114.046
X152.146Y-120.65
X159.512Y-98.298
X159.512Y-110.49
X159.62Y-104.394
X160.147Y-100.33
X160.147Y-106.426
X160.147Y-112.522
X160.782Y-78.74
X160.782Y-82.804
X160.782Y-86.868
X160.782Y-102.362
X160.782Y-114.554
X160.8Y-108.458
T2
X95.508Y-73.914
X98.048Y-73.914
X100.588Y-73.914
X103.128Y-73.914
X104.648Y-122.174
X105.668Y-73.914
X106.934Y-109.972
X106.934Y-112.512
X106.934Y-115.052
X106.934Y-117.592
X107.188Y-122.174
X108.208Y-73.914
X109.728Y-122.174
X110.748Y-73.914
X111.76Y-109.972
X111.76Y-112.512
X111.76Y-115.052
X111.76Y-117.592
X112.268Y-122.174
X113.288Y-73.914
X114.808Y-122.174
X115.828Y-73.914
X116.586Y-109.972
X116.586Y-112.512
X116.586Y-115.052
X116.586Y-117.592
X117.348Y-122.174
X118.368Y-73.914
X119.888Y-122.174
X122.428Y-73.914
X122.428Y-122.174
X124.968Y-73.914
X127.508Y-73.914
X127.508Y-122.174
X130.048Y-73.914
X130.048Y-122.174
X132.588Y-73.914
X132.588Y-122.174
X135.128Y-73.914
X135.128Y-122.174
X136.652Y-79.756
X136.652Y-82.296
X136.652Y-84.836
X136.652Y-87.376
X136.652Y-109.972
X136.652Y-112.512
X136.652Y-115.052
X136.652Y-117.592
X137.668Y-73.914
X137.668Y-122.174
X140.208Y-73.914
X140.208Y-122.174
X142.24Y-79.756
X142.24Y-82.296
X142.24Y-84.836
X142.24Y-87.376
X142.748Y-109.982
X142.748Y-112.522
X142.748Y-115.062
X142.748Y-117.602
X148.082Y-79.756
X148.082Y-82.296
X148.082Y-84.836
X148.082Y-87.376
X148.59Y-109.992
X148.59Y-112.532
X148.59Y-115.072
X148.59Y-117.612
X168.656Y-109.474
X168.656Y-112.014
X168.656Y-114.554
X168.656Y-117.094
X174.752Y-109.474
X174.752Y-112.014
X174.752Y-114.554
X174.752Y-117.094
X175.905Y-81.845
X178.445Y-81.845
X180.848Y-109.464
X180.848Y-112.004
X180.848Y-114.544
X180.848Y-117.084
X180.985Y-81.845
X183.525Y-81.845
T3
X102.616Y-95.504
X102.616Y-100.584
T0
M30
