%TF.GenerationSoftware,KiCad,Pcbnew,(6.0.7)*%
%TF.CreationDate,2023-03-18T11:43:07+08:00*%
%TF.ProjectId,LED driver,4c454420-6472-4697-9665-722e6b696361,rev?*%
%TF.SameCoordinates,Original*%
%TF.FileFunction,Legend,Bot*%
%TF.FilePolarity,Positive*%
%FSLAX46Y46*%
G04 Gerber Fmt 4.6, Leading zero omitted, Abs format (unit mm)*
G04 Created by KiCad (PCBNEW (6.0.7)) date 2023-03-18 11:43:07*
%MOMM*%
%LPD*%
G01*
G04 APERTURE LIST*
%ADD10C,0.150000*%
%ADD11C,0.120000*%
G04 APERTURE END LIST*
D10*
%TO.C,A1*%
X106632285Y-126150666D02*
X106156095Y-126150666D01*
X106727523Y-126436380D02*
X106394190Y-125436380D01*
X106060857Y-126436380D01*
X105203714Y-126436380D02*
X105775142Y-126436380D01*
X105489428Y-126436380D02*
X105489428Y-125436380D01*
X105584666Y-125579238D01*
X105679904Y-125674476D01*
X105775142Y-125722095D01*
D11*
X70228000Y-92454000D02*
X70228000Y-80774000D01*
X76578000Y-124844000D02*
X76578000Y-121664000D01*
X70228000Y-80774000D02*
X76578000Y-80774000D01*
X145418000Y-119634000D02*
X142878000Y-122174000D01*
X76578000Y-92454000D02*
X70228000Y-92454000D01*
X76578000Y-121664000D02*
X74678000Y-121664000D01*
X74678000Y-112524000D02*
X76578000Y-112524000D01*
X76578000Y-112524000D02*
X76578000Y-92454000D01*
X76578000Y-71244000D02*
X141228000Y-71244000D01*
X76578000Y-80774000D02*
X76578000Y-71244000D01*
X145418000Y-86864000D02*
X145418000Y-119634000D01*
X142878000Y-72894000D02*
X142878000Y-84324000D01*
X142878000Y-84324000D02*
X145418000Y-86864000D01*
X142878000Y-122174000D02*
X142878000Y-124844000D01*
X74678000Y-121664000D02*
X74678000Y-112524000D01*
X141228000Y-71244000D02*
X142878000Y-72894000D01*
X142878000Y-124844000D02*
X76578000Y-124844000D01*
%TD*%
M02*
