%TF.GenerationSoftware,KiCad,Pcbnew,(6.0.7)*%
%TF.CreationDate,2023-03-18T11:43:07+08:00*%
%TF.ProjectId,LED driver,4c454420-6472-4697-9665-722e6b696361,rev?*%
%TF.SameCoordinates,Original*%
%TF.FileFunction,Copper,L1,Top*%
%TF.FilePolarity,Positive*%
%FSLAX46Y46*%
G04 Gerber Fmt 4.6, Leading zero omitted, Abs format (unit mm)*
G04 Created by KiCad (PCBNEW (6.0.7)) date 2023-03-18 11:43:07*
%MOMM*%
%LPD*%
G01*
G04 APERTURE LIST*
G04 Aperture macros list*
%AMRoundRect*
0 Rectangle with rounded corners*
0 $1 Rounding radius*
0 $2 $3 $4 $5 $6 $7 $8 $9 X,Y pos of 4 corners*
0 Add a 4 corners polygon primitive as box body*
4,1,4,$2,$3,$4,$5,$6,$7,$8,$9,$2,$3,0*
0 Add four circle primitives for the rounded corners*
1,1,$1+$1,$2,$3*
1,1,$1+$1,$4,$5*
1,1,$1+$1,$6,$7*
1,1,$1+$1,$8,$9*
0 Add four rect primitives between the rounded corners*
20,1,$1+$1,$2,$3,$4,$5,0*
20,1,$1+$1,$4,$5,$6,$7,0*
20,1,$1+$1,$6,$7,$8,$9,0*
20,1,$1+$1,$8,$9,$2,$3,0*%
G04 Aperture macros list end*
%TA.AperFunction,SMDPad,CuDef*%
%ADD10RoundRect,0.250000X-0.262500X-0.450000X0.262500X-0.450000X0.262500X0.450000X-0.262500X0.450000X0*%
%TD*%
%TA.AperFunction,SMDPad,CuDef*%
%ADD11RoundRect,0.150000X0.150000X-0.587500X0.150000X0.587500X-0.150000X0.587500X-0.150000X-0.587500X0*%
%TD*%
%TA.AperFunction,ComponentPad*%
%ADD12RoundRect,0.249999X1.550001X-0.790001X1.550001X0.790001X-1.550001X0.790001X-1.550001X-0.790001X0*%
%TD*%
%TA.AperFunction,ComponentPad*%
%ADD13O,3.600000X2.080000*%
%TD*%
%TA.AperFunction,SMDPad,CuDef*%
%ADD14RoundRect,0.250000X0.262500X0.450000X-0.262500X0.450000X-0.262500X-0.450000X0.262500X-0.450000X0*%
%TD*%
%TA.AperFunction,ComponentPad*%
%ADD15R,1.700000X1.700000*%
%TD*%
%TA.AperFunction,ComponentPad*%
%ADD16O,1.700000X1.700000*%
%TD*%
%TA.AperFunction,ComponentPad*%
%ADD17R,1.600000X1.600000*%
%TD*%
%TA.AperFunction,ComponentPad*%
%ADD18O,1.600000X1.600000*%
%TD*%
%TA.AperFunction,ViaPad*%
%ADD19C,0.400000*%
%TD*%
%TA.AperFunction,Conductor*%
%ADD20C,0.381000*%
%TD*%
%TA.AperFunction,Conductor*%
%ADD21C,0.508000*%
%TD*%
%TA.AperFunction,Conductor*%
%ADD22C,0.254000*%
%TD*%
G04 APERTURE END LIST*
D10*
%TO.P,R7,1*%
%TO.N,R1*%
X161901500Y-102362000D03*
%TO.P,R7,2*%
%TO.N,Net-(J4-Pad2)*%
X163726500Y-102362000D03*
%TD*%
D11*
%TO.P,Q1,1,E*%
%TO.N,GND*%
X159832000Y-88821500D03*
%TO.P,Q1,2,B*%
%TO.N,Net-(Q1-Pad2)*%
X161732000Y-88821500D03*
%TO.P,Q1,3,C*%
%TO.N,R1*%
X160782000Y-86946500D03*
%TD*%
%TO.P,Q8,1,E*%
%TO.N,GND*%
X95824000Y-82725500D03*
%TO.P,Q8,2,B*%
%TO.N,Net-(Q8-Pad2)*%
X97724000Y-82725500D03*
%TO.P,Q8,3,C*%
%TO.N,G3*%
X96774000Y-80850500D03*
%TD*%
D10*
%TO.P,R10,1*%
%TO.N,R1*%
X161901500Y-114554000D03*
%TO.P,R10,2*%
%TO.N,Net-(J5-Pad2)*%
X163726500Y-114554000D03*
%TD*%
%TO.P,R32,1*%
%TO.N,G2*%
X126595500Y-116078000D03*
%TO.P,R32,2*%
%TO.N,Net-(J11-Pad3)*%
X128420500Y-116078000D03*
%TD*%
D11*
%TO.P,Q7,1,E*%
%TO.N,GND*%
X95824000Y-87551500D03*
%TO.P,Q7,2,B*%
%TO.N,Net-(Q7-Pad2)*%
X97724000Y-87551500D03*
%TO.P,Q7,3,C*%
%TO.N,R3*%
X96774000Y-85676500D03*
%TD*%
D10*
%TO.P,R20,1*%
%TO.N,G2*%
X126595500Y-97790000D03*
%TO.P,R20,2*%
%TO.N,Net-(J8-Pad3)*%
X128420500Y-97790000D03*
%TD*%
D12*
%TO.P,J2,1,Pin_1*%
%TO.N,+5V*%
X102616000Y-100584000D03*
D13*
%TO.P,J2,2,Pin_2*%
%TO.N,GND*%
X102616000Y-95504000D03*
%TD*%
D10*
%TO.P,R5,1*%
%TO.N,G1*%
X161901500Y-106426000D03*
%TO.P,R5,2*%
%TO.N,Net-(J3-Pad3)*%
X163726500Y-106426000D03*
%TD*%
%TO.P,R17,1*%
%TO.N,G2*%
X126595500Y-91694000D03*
%TO.P,R17,2*%
%TO.N,Net-(J7-Pad3)*%
X128420500Y-91694000D03*
%TD*%
D11*
%TO.P,Q9,1,E*%
%TO.N,GND*%
X95824000Y-78153500D03*
%TO.P,Q9,2,B*%
%TO.N,Net-(Q9-Pad2)*%
X97724000Y-78153500D03*
%TO.P,Q9,3,C*%
%TO.N,B3*%
X96774000Y-76278500D03*
%TD*%
D14*
%TO.P,R1,1*%
%TO.N,D2*%
X165250500Y-84328000D03*
%TO.P,R1,2*%
%TO.N,Net-(Q1-Pad2)*%
X163425500Y-84328000D03*
%TD*%
D10*
%TO.P,R4,1*%
%TO.N,R1*%
X161901500Y-108458000D03*
%TO.P,R4,2*%
%TO.N,Net-(J3-Pad2)*%
X163726500Y-108458000D03*
%TD*%
%TO.P,R41,1*%
%TO.N,G3*%
X97893500Y-114554000D03*
%TO.P,R41,2*%
%TO.N,Net-(J13-Pad3)*%
X99718500Y-114554000D03*
%TD*%
D15*
%TO.P,J5,1,Pin_1*%
%TO.N,+5V*%
X168656000Y-117094000D03*
D16*
%TO.P,J5,2,Pin_2*%
%TO.N,Net-(J5-Pad2)*%
X168656000Y-114554000D03*
%TO.P,J5,3,Pin_3*%
%TO.N,Net-(J5-Pad3)*%
X168656000Y-112014000D03*
%TO.P,J5,4,Pin_4*%
%TO.N,Net-(J5-Pad4)*%
X168656000Y-109474000D03*
%TD*%
D10*
%TO.P,R9,1*%
%TO.N,B1*%
X161901500Y-98298000D03*
%TO.P,R9,2*%
%TO.N,Net-(J4-Pad4)*%
X163726500Y-98298000D03*
%TD*%
%TO.P,R27,1*%
%TO.N,B2*%
X126595500Y-101854000D03*
%TO.P,R27,2*%
%TO.N,Net-(J9-Pad4)*%
X128420500Y-101854000D03*
%TD*%
D15*
%TO.P,J12,1,Pin_1*%
%TO.N,+5V*%
X106934000Y-117592000D03*
D16*
%TO.P,J12,2,Pin_2*%
%TO.N,Net-(J12-Pad2)*%
X106934000Y-115052000D03*
%TO.P,J12,3,Pin_3*%
%TO.N,Net-(J12-Pad3)*%
X106934000Y-112512000D03*
%TO.P,J12,4,Pin_4*%
%TO.N,Net-(J12-Pad4)*%
X106934000Y-109972000D03*
%TD*%
D15*
%TO.P,J8,1,Pin_1*%
%TO.N,+5V*%
X148082000Y-79756000D03*
D16*
%TO.P,J8,2,Pin_2*%
%TO.N,Net-(J8-Pad2)*%
X148082000Y-82296000D03*
%TO.P,J8,3,Pin_3*%
%TO.N,Net-(J8-Pad3)*%
X148082000Y-84836000D03*
%TO.P,J8,4,Pin_4*%
%TO.N,Net-(J8-Pad4)*%
X148082000Y-87376000D03*
%TD*%
D14*
%TO.P,R2,1*%
%TO.N,D3*%
X165250500Y-82296000D03*
%TO.P,R2,2*%
%TO.N,Net-(Q2-Pad2)*%
X163425500Y-82296000D03*
%TD*%
D15*
%TO.P,J11,1,Pin_1*%
%TO.N,+5V*%
X136652000Y-117592000D03*
D16*
%TO.P,J11,2,Pin_2*%
%TO.N,Net-(J11-Pad2)*%
X136652000Y-115052000D03*
%TO.P,J11,3,Pin_3*%
%TO.N,Net-(J11-Pad3)*%
X136652000Y-112512000D03*
%TO.P,J11,4,Pin_4*%
%TO.N,Net-(J11-Pad4)*%
X136652000Y-109972000D03*
%TD*%
D10*
%TO.P,R40,1*%
%TO.N,R3*%
X97893500Y-116586000D03*
%TO.P,R40,2*%
%TO.N,Net-(J13-Pad2)*%
X99718500Y-116586000D03*
%TD*%
%TO.P,R26,1*%
%TO.N,G2*%
X126595500Y-103886000D03*
%TO.P,R26,2*%
%TO.N,Net-(J9-Pad3)*%
X128420500Y-103886000D03*
%TD*%
D14*
%TO.P,R3,1*%
%TO.N,D4*%
X165250500Y-80264000D03*
%TO.P,R3,2*%
%TO.N,Net-(Q3-Pad2)*%
X163425500Y-80264000D03*
%TD*%
%TO.P,R35,1*%
%TO.N,D9*%
X105814500Y-79248000D03*
%TO.P,R35,2*%
%TO.N,Net-(Q8-Pad2)*%
X103989500Y-79248000D03*
%TD*%
D11*
%TO.P,Q6,1,E*%
%TO.N,GND*%
X117668000Y-78915500D03*
%TO.P,Q6,2,B*%
%TO.N,Net-(Q6-Pad2)*%
X119568000Y-78915500D03*
%TO.P,Q6,3,C*%
%TO.N,B2*%
X118618000Y-77040500D03*
%TD*%
D15*
%TO.P,J6,1,Pin_1*%
%TO.N,+5V*%
X136652000Y-79756000D03*
D16*
%TO.P,J6,2,Pin_2*%
%TO.N,Net-(J6-Pad2)*%
X136652000Y-82296000D03*
%TO.P,J6,3,Pin_3*%
%TO.N,Net-(J6-Pad3)*%
X136652000Y-84836000D03*
%TO.P,J6,4,Pin_4*%
%TO.N,Net-(J6-Pad4)*%
X136652000Y-87376000D03*
%TD*%
D10*
%TO.P,R44,1*%
%TO.N,G3*%
X97893500Y-108458000D03*
%TO.P,R44,2*%
%TO.N,Net-(J14-Pad3)*%
X99718500Y-108458000D03*
%TD*%
%TO.P,R14,1*%
%TO.N,G2*%
X126595500Y-85598000D03*
%TO.P,R14,2*%
%TO.N,Net-(J6-Pad3)*%
X128420500Y-85598000D03*
%TD*%
%TO.P,R25,1*%
%TO.N,R2*%
X126595500Y-105918000D03*
%TO.P,R25,2*%
%TO.N,Net-(J9-Pad2)*%
X128420500Y-105918000D03*
%TD*%
%TO.P,R12,1*%
%TO.N,B1*%
X161901500Y-110490000D03*
%TO.P,R12,2*%
%TO.N,Net-(J5-Pad4)*%
X163726500Y-110490000D03*
%TD*%
%TO.P,R43,1*%
%TO.N,R3*%
X97893500Y-110490000D03*
%TO.P,R43,2*%
%TO.N,Net-(J14-Pad2)*%
X99718500Y-110490000D03*
%TD*%
%TO.P,R42,1*%
%TO.N,B3*%
X97893500Y-112522000D03*
%TO.P,R42,2*%
%TO.N,Net-(J13-Pad4)*%
X99718500Y-112522000D03*
%TD*%
%TO.P,R21,1*%
%TO.N,B2*%
X126595500Y-99822000D03*
%TO.P,R21,2*%
%TO.N,Net-(J8-Pad4)*%
X128420500Y-99822000D03*
%TD*%
D11*
%TO.P,Q4,1,E*%
%TO.N,GND*%
X117668000Y-87043500D03*
%TO.P,Q4,2,B*%
%TO.N,Net-(Q4-Pad2)*%
X119568000Y-87043500D03*
%TO.P,Q4,3,C*%
%TO.N,R2*%
X118618000Y-85168500D03*
%TD*%
D10*
%TO.P,R11,1*%
%TO.N,G1*%
X161901500Y-112522000D03*
%TO.P,R11,2*%
%TO.N,Net-(J5-Pad3)*%
X163726500Y-112522000D03*
%TD*%
%TO.P,R45,1*%
%TO.N,B3*%
X97893500Y-106426000D03*
%TO.P,R45,2*%
%TO.N,Net-(J14-Pad4)*%
X99718500Y-106426000D03*
%TD*%
D15*
%TO.P,J4,1,Pin_1*%
%TO.N,+5V*%
X180848000Y-117084000D03*
D16*
%TO.P,J4,2,Pin_2*%
%TO.N,Net-(J4-Pad2)*%
X180848000Y-114544000D03*
%TO.P,J4,3,Pin_3*%
%TO.N,Net-(J4-Pad3)*%
X180848000Y-112004000D03*
%TO.P,J4,4,Pin_4*%
%TO.N,Net-(J4-Pad4)*%
X180848000Y-109464000D03*
%TD*%
D10*
%TO.P,R33,1*%
%TO.N,B2*%
X126595500Y-114046000D03*
%TO.P,R33,2*%
%TO.N,Net-(J11-Pad4)*%
X128420500Y-114046000D03*
%TD*%
%TO.P,R16,1*%
%TO.N,R2*%
X126595500Y-89662000D03*
%TO.P,R16,2*%
%TO.N,Net-(J7-Pad2)*%
X128420500Y-89662000D03*
%TD*%
D15*
%TO.P,J9,1,Pin_1*%
%TO.N,+5V*%
X148590000Y-117612000D03*
D16*
%TO.P,J9,2,Pin_2*%
%TO.N,Net-(J9-Pad2)*%
X148590000Y-115072000D03*
%TO.P,J9,3,Pin_3*%
%TO.N,Net-(J9-Pad3)*%
X148590000Y-112532000D03*
%TO.P,J9,4,Pin_4*%
%TO.N,Net-(J9-Pad4)*%
X148590000Y-109992000D03*
%TD*%
D15*
%TO.P,J10,1,Pin_1*%
%TO.N,+5V*%
X142748000Y-117602000D03*
D16*
%TO.P,J10,2,Pin_2*%
%TO.N,Net-(J10-Pad2)*%
X142748000Y-115062000D03*
%TO.P,J10,3,Pin_3*%
%TO.N,Net-(J10-Pad3)*%
X142748000Y-112522000D03*
%TO.P,J10,4,Pin_4*%
%TO.N,Net-(J10-Pad4)*%
X142748000Y-109982000D03*
%TD*%
D14*
%TO.P,R23,1*%
%TO.N,D6*%
X125626500Y-79502000D03*
%TO.P,R23,2*%
%TO.N,Net-(Q5-Pad2)*%
X123801500Y-79502000D03*
%TD*%
D15*
%TO.P,J14,1,Pin_1*%
%TO.N,+5V*%
X116586000Y-117592000D03*
D16*
%TO.P,J14,2,Pin_2*%
%TO.N,Net-(J14-Pad2)*%
X116586000Y-115052000D03*
%TO.P,J14,3,Pin_3*%
%TO.N,Net-(J14-Pad3)*%
X116586000Y-112512000D03*
%TO.P,J14,4,Pin_4*%
%TO.N,Net-(J14-Pad4)*%
X116586000Y-109972000D03*
%TD*%
D10*
%TO.P,R6,1*%
%TO.N,B1*%
X161901500Y-104394000D03*
%TO.P,R6,2*%
%TO.N,Net-(J3-Pad4)*%
X163726500Y-104394000D03*
%TD*%
D15*
%TO.P,J7,1,Pin_1*%
%TO.N,+5V*%
X142240000Y-79756000D03*
D16*
%TO.P,J7,2,Pin_2*%
%TO.N,Net-(J7-Pad2)*%
X142240000Y-82296000D03*
%TO.P,J7,3,Pin_3*%
%TO.N,Net-(J7-Pad3)*%
X142240000Y-84836000D03*
%TO.P,J7,4,Pin_4*%
%TO.N,Net-(J7-Pad4)*%
X142240000Y-87376000D03*
%TD*%
D15*
%TO.P,J13,1,Pin_1*%
%TO.N,+5V*%
X111760000Y-117592000D03*
D16*
%TO.P,J13,2,Pin_2*%
%TO.N,Net-(J13-Pad2)*%
X111760000Y-115052000D03*
%TO.P,J13,3,Pin_3*%
%TO.N,Net-(J13-Pad3)*%
X111760000Y-112512000D03*
%TO.P,J13,4,Pin_4*%
%TO.N,Net-(J13-Pad4)*%
X111760000Y-109972000D03*
%TD*%
D10*
%TO.P,R31,1*%
%TO.N,R2*%
X126595500Y-118110000D03*
%TO.P,R31,2*%
%TO.N,Net-(J11-Pad2)*%
X128420500Y-118110000D03*
%TD*%
D14*
%TO.P,R34,1*%
%TO.N,D8*%
X105814500Y-81280000D03*
%TO.P,R34,2*%
%TO.N,Net-(Q7-Pad2)*%
X103989500Y-81280000D03*
%TD*%
D10*
%TO.P,R28,1*%
%TO.N,R2*%
X126595500Y-112014000D03*
%TO.P,R28,2*%
%TO.N,Net-(J10-Pad2)*%
X128420500Y-112014000D03*
%TD*%
D11*
%TO.P,Q2,1,E*%
%TO.N,GND*%
X159832000Y-84757500D03*
%TO.P,Q2,2,B*%
%TO.N,Net-(Q2-Pad2)*%
X161732000Y-84757500D03*
%TO.P,Q2,3,C*%
%TO.N,G1*%
X160782000Y-82882500D03*
%TD*%
D10*
%TO.P,R18,1*%
%TO.N,B2*%
X126595500Y-93726000D03*
%TO.P,R18,2*%
%TO.N,Net-(J7-Pad4)*%
X128420500Y-93726000D03*
%TD*%
D14*
%TO.P,R36,1*%
%TO.N,D10*%
X105814500Y-77216000D03*
%TO.P,R36,2*%
%TO.N,Net-(Q9-Pad2)*%
X103989500Y-77216000D03*
%TD*%
D11*
%TO.P,Q5,1,E*%
%TO.N,GND*%
X117668000Y-82979500D03*
%TO.P,Q5,2,B*%
%TO.N,Net-(Q5-Pad2)*%
X119568000Y-82979500D03*
%TO.P,Q5,3,C*%
%TO.N,G2*%
X118618000Y-81104500D03*
%TD*%
D10*
%TO.P,R38,1*%
%TO.N,G3*%
X97893500Y-120650000D03*
%TO.P,R38,2*%
%TO.N,Net-(J12-Pad3)*%
X99718500Y-120650000D03*
%TD*%
%TO.P,R15,1*%
%TO.N,B2*%
X126595500Y-87630000D03*
%TO.P,R15,2*%
%TO.N,Net-(J6-Pad4)*%
X128420500Y-87630000D03*
%TD*%
D11*
%TO.P,Q3,1,E*%
%TO.N,GND*%
X159832000Y-80693500D03*
%TO.P,Q3,2,B*%
%TO.N,Net-(Q3-Pad2)*%
X161732000Y-80693500D03*
%TO.P,Q3,3,C*%
%TO.N,B1*%
X160782000Y-78818500D03*
%TD*%
D10*
%TO.P,R8,1*%
%TO.N,G1*%
X161901500Y-100330000D03*
%TO.P,R8,2*%
%TO.N,Net-(J4-Pad3)*%
X163726500Y-100330000D03*
%TD*%
%TO.P,R30,1*%
%TO.N,B2*%
X126595500Y-107950000D03*
%TO.P,R30,2*%
%TO.N,Net-(J10-Pad4)*%
X128420500Y-107950000D03*
%TD*%
%TO.P,R39,1*%
%TO.N,B3*%
X97893500Y-118618000D03*
%TO.P,R39,2*%
%TO.N,Net-(J12-Pad4)*%
X99718500Y-118618000D03*
%TD*%
D15*
%TO.P,J3,1,Pin_1*%
%TO.N,+5V*%
X174752000Y-117094000D03*
D16*
%TO.P,J3,2,Pin_2*%
%TO.N,Net-(J3-Pad2)*%
X174752000Y-114554000D03*
%TO.P,J3,3,Pin_3*%
%TO.N,Net-(J3-Pad3)*%
X174752000Y-112014000D03*
%TO.P,J3,4,Pin_4*%
%TO.N,Net-(J3-Pad4)*%
X174752000Y-109474000D03*
%TD*%
D14*
%TO.P,R24,1*%
%TO.N,D7*%
X125626500Y-77470000D03*
%TO.P,R24,2*%
%TO.N,Net-(Q6-Pad2)*%
X123801500Y-77470000D03*
%TD*%
D15*
%TO.P,J1,1,Pin_1*%
%TO.N,GND*%
X175905000Y-81845000D03*
D16*
%TO.P,J1,2,Pin_2*%
%TO.N,+5VD*%
X178445000Y-81845000D03*
%TO.P,J1,3,Pin_3*%
%TO.N,SDA*%
X180985000Y-81845000D03*
%TO.P,J1,4,Pin_4*%
%TO.N,SCL*%
X183525000Y-81845000D03*
%TD*%
D10*
%TO.P,R29,1*%
%TO.N,G2*%
X126595500Y-109982000D03*
%TO.P,R29,2*%
%TO.N,Net-(J10-Pad3)*%
X128420500Y-109982000D03*
%TD*%
D14*
%TO.P,R22,1*%
%TO.N,D5*%
X125626500Y-81534000D03*
%TO.P,R22,2*%
%TO.N,Net-(Q4-Pad2)*%
X123801500Y-81534000D03*
%TD*%
D10*
%TO.P,R37,1*%
%TO.N,R3*%
X97893500Y-122682000D03*
%TO.P,R37,2*%
%TO.N,Net-(J12-Pad2)*%
X99718500Y-122682000D03*
%TD*%
%TO.P,R13,1*%
%TO.N,R2*%
X126595500Y-83566000D03*
%TO.P,R13,2*%
%TO.N,Net-(J6-Pad2)*%
X128420500Y-83566000D03*
%TD*%
%TO.P,R19,1*%
%TO.N,R2*%
X126595500Y-95758000D03*
%TO.P,R19,2*%
%TO.N,Net-(J8-Pad2)*%
X128420500Y-95758000D03*
%TD*%
D17*
%TO.P,A1,1,NC*%
%TO.N,unconnected-(A1-Pad1)*%
X104648000Y-122174000D03*
D18*
%TO.P,A1,2,IOREF*%
%TO.N,unconnected-(A1-Pad2)*%
X107188000Y-122174000D03*
%TO.P,A1,3,~{RESET}*%
%TO.N,unconnected-(A1-Pad3)*%
X109728000Y-122174000D03*
%TO.P,A1,4,3V3*%
%TO.N,unconnected-(A1-Pad4)*%
X112268000Y-122174000D03*
%TO.P,A1,5,+5V*%
%TO.N,+5VD*%
X114808000Y-122174000D03*
%TO.P,A1,6,GND*%
%TO.N,GND*%
X117348000Y-122174000D03*
%TO.P,A1,7,GND*%
X119888000Y-122174000D03*
%TO.P,A1,8,VIN*%
%TO.N,unconnected-(A1-Pad8)*%
X122428000Y-122174000D03*
%TO.P,A1,9,A0*%
%TO.N,unconnected-(A1-Pad9)*%
X127508000Y-122174000D03*
%TO.P,A1,10,A1*%
%TO.N,unconnected-(A1-Pad10)*%
X130048000Y-122174000D03*
%TO.P,A1,11,A2*%
%TO.N,unconnected-(A1-Pad11)*%
X132588000Y-122174000D03*
%TO.P,A1,12,A3*%
%TO.N,unconnected-(A1-Pad12)*%
X135128000Y-122174000D03*
%TO.P,A1,13,SDA/A4*%
%TO.N,SDA*%
X137668000Y-122174000D03*
%TO.P,A1,14,SCL/A5*%
%TO.N,SCL*%
X140208000Y-122174000D03*
%TO.P,A1,15,D0/RX*%
%TO.N,unconnected-(A1-Pad15)*%
X140208000Y-73914000D03*
%TO.P,A1,16,D1/TX*%
%TO.N,unconnected-(A1-Pad16)*%
X137668000Y-73914000D03*
%TO.P,A1,17,D2*%
%TO.N,D2*%
X135128000Y-73914000D03*
%TO.P,A1,18,D3*%
%TO.N,D3*%
X132588000Y-73914000D03*
%TO.P,A1,19,D4*%
%TO.N,D4*%
X130048000Y-73914000D03*
%TO.P,A1,20,D5*%
%TO.N,D5*%
X127508000Y-73914000D03*
%TO.P,A1,21,D6*%
%TO.N,D6*%
X124968000Y-73914000D03*
%TO.P,A1,22,D7*%
%TO.N,D7*%
X122428000Y-73914000D03*
%TO.P,A1,23,D8*%
%TO.N,D8*%
X118368000Y-73914000D03*
%TO.P,A1,24,D9*%
%TO.N,D9*%
X115828000Y-73914000D03*
%TO.P,A1,25,D10*%
%TO.N,D10*%
X113288000Y-73914000D03*
%TO.P,A1,26,D11*%
%TO.N,unconnected-(A1-Pad26)*%
X110748000Y-73914000D03*
%TO.P,A1,27,D12*%
%TO.N,unconnected-(A1-Pad27)*%
X108208000Y-73914000D03*
%TO.P,A1,28,D13*%
%TO.N,unconnected-(A1-Pad28)*%
X105668000Y-73914000D03*
%TO.P,A1,29,GND*%
%TO.N,GND*%
X103128000Y-73914000D03*
%TO.P,A1,30,AREF*%
%TO.N,unconnected-(A1-Pad30)*%
X100588000Y-73914000D03*
%TO.P,A1,31,SDA/A4*%
%TO.N,unconnected-(A1-Pad31)*%
X98048000Y-73914000D03*
%TO.P,A1,32,SCL/A5*%
%TO.N,unconnected-(A1-Pad32)*%
X95508000Y-73914000D03*
%TD*%
D19*
%TO.N,+5VD*%
X152146000Y-120650000D03*
%TO.N,GND*%
X101092000Y-88392000D03*
X117668000Y-78915500D03*
X117668000Y-87043500D03*
X101854000Y-77978000D03*
X101854000Y-80518000D03*
X117668000Y-82979500D03*
%TO.N,R1*%
X160782000Y-114554000D03*
X160782000Y-102362000D03*
X160800500Y-108458000D03*
X160782000Y-86868000D03*
%TO.N,G1*%
X160147000Y-106426000D03*
X160147000Y-112522000D03*
X160782000Y-82804000D03*
X160147000Y-100330000D03*
%TO.N,B1*%
X159620500Y-104394000D03*
X160782000Y-78740000D03*
X159512000Y-110490000D03*
X159512000Y-98298000D03*
%TO.N,R2*%
X122936000Y-105918000D03*
X122936000Y-83566000D03*
X122936000Y-89662000D03*
X118618000Y-85090000D03*
X122936000Y-118110000D03*
X122936000Y-112014000D03*
X122936000Y-95758000D03*
%TO.N,G2*%
X123952000Y-109982000D03*
X123952000Y-97790000D03*
X123952000Y-85598000D03*
X123952000Y-116078000D03*
X123952000Y-103886000D03*
X123952000Y-91694000D03*
X118618000Y-81026000D03*
%TO.N,B2*%
X124968000Y-101854000D03*
X124968000Y-114046000D03*
X124968000Y-99822000D03*
X124968000Y-87630000D03*
X119126000Y-75438000D03*
X124968000Y-93726000D03*
X124968000Y-107950000D03*
%TO.N,R3*%
X94996000Y-86106000D03*
X94996000Y-116586000D03*
X94996000Y-122682000D03*
X94996000Y-110490000D03*
%TO.N,G3*%
X94234000Y-108458000D03*
X94234000Y-114554000D03*
X94234000Y-120650000D03*
X94742000Y-81534000D03*
%TO.N,B3*%
X93472000Y-106426000D03*
X93980000Y-77978000D03*
X93472000Y-118618000D03*
X93472000Y-112522000D03*
%TD*%
D20*
%TO.N,+5VD*%
X116332000Y-120650000D02*
X139954000Y-120650000D01*
X114808000Y-122174000D02*
X116332000Y-120650000D01*
X139954000Y-120650000D02*
X152146000Y-120650000D01*
D21*
%TO.N,GND*%
X119126000Y-123952000D02*
X117348000Y-122174000D01*
D20*
X101854000Y-80967020D02*
X98903510Y-83917510D01*
X99314000Y-78486000D02*
X98518980Y-79281020D01*
X101854000Y-80518000D02*
X101854000Y-80967020D01*
X95824000Y-78552000D02*
X95824000Y-78153500D01*
X101092000Y-88392000D02*
X100330000Y-89154000D01*
X101854000Y-77978000D02*
X101346000Y-78486000D01*
X100330000Y-89154000D02*
X97028000Y-89154000D01*
D21*
X122428000Y-123952000D02*
X119126000Y-123952000D01*
X153416000Y-122682000D02*
X152146000Y-123952000D01*
X152146000Y-123952000D02*
X122428000Y-123952000D01*
D20*
X96553020Y-79281020D02*
X95824000Y-78552000D01*
D21*
X159832000Y-88821500D02*
X153416000Y-95237500D01*
X119888000Y-122174000D02*
X121666000Y-123952000D01*
D20*
X97028000Y-89154000D02*
X95824000Y-87950000D01*
X96363510Y-83917510D02*
X95824000Y-83378000D01*
X95824000Y-87950000D02*
X95824000Y-87551500D01*
X98518980Y-79281020D02*
X96553020Y-79281020D01*
X175905000Y-81845000D02*
X175905000Y-84445000D01*
X165112500Y-95237500D02*
X153416000Y-95237500D01*
D21*
X159832000Y-80693500D02*
X159832000Y-88821500D01*
D20*
X95824000Y-83378000D02*
X95824000Y-82725500D01*
D21*
X153416000Y-95237500D02*
X153416000Y-122682000D01*
D20*
X175905000Y-84445000D02*
X165112500Y-95237500D01*
D21*
X121666000Y-123952000D02*
X122428000Y-123952000D01*
D20*
X101346000Y-78486000D02*
X99314000Y-78486000D01*
X98903510Y-83917510D02*
X96363510Y-83917510D01*
D21*
%TO.N,D2*%
X165193544Y-75292960D02*
X167839520Y-77938936D01*
X135128000Y-73914000D02*
X136506960Y-75292960D01*
X166878000Y-84328000D02*
X165250500Y-84328000D01*
X136506960Y-75292960D02*
X165193544Y-75292960D01*
X167839520Y-83366480D02*
X166878000Y-84328000D01*
X167839520Y-77938936D02*
X167839520Y-83366480D01*
%TO.N,D3*%
X164900480Y-76000480D02*
X167132000Y-78232000D01*
X134674480Y-76000480D02*
X164900480Y-76000480D01*
X166116000Y-82296000D02*
X165250500Y-82296000D01*
X167132000Y-81280000D02*
X166116000Y-82296000D01*
X132588000Y-73914000D02*
X134674480Y-76000480D01*
X167132000Y-78232000D02*
X167132000Y-81280000D01*
%TO.N,D4*%
X130048000Y-73914000D02*
X132842000Y-76708000D01*
X132842000Y-76708000D02*
X164592000Y-76708000D01*
X165862000Y-80264000D02*
X165250500Y-80264000D01*
X166370000Y-78486000D02*
X166370000Y-79756000D01*
X164592000Y-76708000D02*
X166370000Y-78486000D01*
X166370000Y-79756000D02*
X165862000Y-80264000D01*
D22*
%TO.N,D5*%
X127508000Y-73914000D02*
X127508000Y-79652500D01*
X127508000Y-79652500D02*
X125626500Y-81534000D01*
%TO.N,D6*%
X124968000Y-73914000D02*
X124968000Y-75438000D01*
X125730000Y-76200000D02*
X126238000Y-76200000D01*
X126238000Y-79502000D02*
X125626500Y-79502000D01*
X124968000Y-75438000D02*
X125730000Y-76200000D01*
X126238000Y-76200000D02*
X127000000Y-76962000D01*
X127000000Y-76962000D02*
X127000000Y-78740000D01*
X127000000Y-78740000D02*
X126238000Y-79502000D01*
%TO.N,D7*%
X124102500Y-75946000D02*
X125626500Y-77470000D01*
X122682000Y-75946000D02*
X124102500Y-75946000D01*
X122428000Y-75692000D02*
X122682000Y-75946000D01*
X122428000Y-73914000D02*
X122428000Y-75692000D01*
D21*
%TO.N,D8*%
X111002000Y-81280000D02*
X105814500Y-81280000D01*
X118368000Y-73914000D02*
X111002000Y-81280000D01*
%TO.N,D9*%
X110494000Y-79248000D02*
X115828000Y-73914000D01*
X105814500Y-79248000D02*
X110494000Y-79248000D01*
%TO.N,D10*%
X113288000Y-73914000D02*
X109986000Y-77216000D01*
X109986000Y-77216000D02*
X105814500Y-77216000D01*
D22*
%TO.N,Net-(J3-Pad2)*%
X167386000Y-108077000D02*
X169799000Y-108077000D01*
X163726500Y-108458000D02*
X167005000Y-108458000D01*
X169799000Y-108077000D02*
X170307000Y-108585000D01*
X170307000Y-113157000D02*
X171704000Y-114554000D01*
X171704000Y-114554000D02*
X174752000Y-114554000D01*
X170307000Y-108585000D02*
X170307000Y-113157000D01*
X167005000Y-108458000D02*
X167386000Y-108077000D01*
%TO.N,Net-(J3-Pad3)*%
X170815000Y-108331000D02*
X170815000Y-111125000D01*
X170815000Y-111125000D02*
X171704000Y-112014000D01*
X163726500Y-106426000D02*
X168910000Y-106426000D01*
X168910000Y-106426000D02*
X170815000Y-108331000D01*
X171704000Y-112014000D02*
X174752000Y-112014000D01*
%TO.N,Net-(J3-Pad4)*%
X172720000Y-109474000D02*
X174752000Y-109474000D01*
X163726500Y-104394000D02*
X167640000Y-104394000D01*
X167640000Y-104394000D02*
X172720000Y-109474000D01*
%TO.N,Net-(J4-Pad2)*%
X176911000Y-107950000D02*
X176911000Y-113538000D01*
X177917000Y-114544000D02*
X180848000Y-114544000D01*
X167132000Y-102362000D02*
X172085000Y-107315000D01*
X176911000Y-113538000D02*
X177917000Y-114544000D01*
X172085000Y-107315000D02*
X176276000Y-107315000D01*
X163726500Y-102362000D02*
X167132000Y-102362000D01*
X176276000Y-107315000D02*
X176911000Y-107950000D01*
%TO.N,Net-(J4-Pad3)*%
X163726500Y-100330000D02*
X165742052Y-100330000D01*
X176584000Y-106861000D02*
X177419000Y-107696000D01*
X177419000Y-110998000D02*
X178425000Y-112004000D01*
X178425000Y-112004000D02*
X180848000Y-112004000D01*
X177419000Y-107696000D02*
X177419000Y-110998000D01*
X172273052Y-106861000D02*
X176584000Y-106861000D01*
X165742052Y-100330000D02*
X172273052Y-106861000D01*
%TO.N,Net-(J4-Pad4)*%
X172461104Y-106407000D02*
X164352104Y-98298000D01*
X177927000Y-107561947D02*
X176772053Y-106407000D01*
X178679000Y-109464000D02*
X177927000Y-108712000D01*
X180848000Y-109464000D02*
X178679000Y-109464000D01*
X176772053Y-106407000D02*
X172461104Y-106407000D01*
X164352104Y-98298000D02*
X163726500Y-98298000D01*
X177927000Y-108712000D02*
X177927000Y-107561947D01*
%TO.N,Net-(J5-Pad2)*%
X163726500Y-114554000D02*
X168656000Y-114554000D01*
%TO.N,Net-(J5-Pad3)*%
X163726500Y-112522000D02*
X165862000Y-112522000D01*
X165862000Y-112522000D02*
X166370000Y-112014000D01*
X166370000Y-112014000D02*
X168656000Y-112014000D01*
%TO.N,Net-(J5-Pad4)*%
X167640000Y-110490000D02*
X168656000Y-109474000D01*
X163726500Y-110490000D02*
X167640000Y-110490000D01*
D21*
%TO.N,Net-(J6-Pad2)*%
X128420500Y-83566000D02*
X129690500Y-82296000D01*
X129690500Y-82296000D02*
X136652000Y-82296000D01*
%TO.N,Net-(J6-Pad3)*%
X128420500Y-85598000D02*
X130302000Y-85598000D01*
X130302000Y-85598000D02*
X131064000Y-84836000D01*
X131064000Y-84836000D02*
X136652000Y-84836000D01*
%TO.N,Net-(J6-Pad4)*%
X133096000Y-87376000D02*
X136652000Y-87376000D01*
X128420500Y-87630000D02*
X132842000Y-87630000D01*
X132842000Y-87630000D02*
X133096000Y-87376000D01*
%TO.N,Net-(J7-Pad2)*%
X138430000Y-83312000D02*
X139446000Y-82296000D01*
X138430000Y-89154000D02*
X138430000Y-83312000D01*
X128420500Y-89662000D02*
X137922000Y-89662000D01*
X137922000Y-89662000D02*
X138430000Y-89154000D01*
X139446000Y-82296000D02*
X142240000Y-82296000D01*
%TO.N,Net-(J7-Pad3)*%
X139192000Y-89408000D02*
X139192000Y-86106000D01*
X139192000Y-86106000D02*
X140462000Y-84836000D01*
X140462000Y-84836000D02*
X142240000Y-84836000D01*
X136906000Y-91694000D02*
X139192000Y-89408000D01*
X128420500Y-91694000D02*
X136906000Y-91694000D01*
%TO.N,Net-(J7-Pad4)*%
X128420500Y-93726000D02*
X135890000Y-93726000D01*
X135890000Y-93726000D02*
X142240000Y-87376000D01*
%TO.N,Net-(J8-Pad2)*%
X128420500Y-95758000D02*
X136398000Y-95758000D01*
X136398000Y-95758000D02*
X144272000Y-87884000D01*
X144272000Y-87884000D02*
X144272000Y-83820000D01*
X144272000Y-83820000D02*
X145796000Y-82296000D01*
X145796000Y-82296000D02*
X148082000Y-82296000D01*
%TO.N,Net-(J8-Pad3)*%
X144979520Y-86160480D02*
X146304000Y-84836000D01*
X135382000Y-97790000D02*
X144979520Y-88192480D01*
X146304000Y-84836000D02*
X148082000Y-84836000D01*
X144979520Y-88192480D02*
X144979520Y-86160480D01*
X128420500Y-97790000D02*
X135382000Y-97790000D01*
%TO.N,Net-(J8-Pad4)*%
X146796584Y-87376000D02*
X148082000Y-87376000D01*
X134350584Y-99822000D02*
X146796584Y-87376000D01*
X128420500Y-99822000D02*
X134350584Y-99822000D01*
%TO.N,Net-(J9-Pad2)*%
X145806000Y-115072000D02*
X148590000Y-115072000D01*
X128420500Y-105918000D02*
X142240000Y-105918000D01*
X145034000Y-108712000D02*
X145034000Y-114300000D01*
X142240000Y-105918000D02*
X145034000Y-108712000D01*
X145034000Y-114300000D02*
X145806000Y-115072000D01*
%TO.N,Net-(J9-Pad3)*%
X145741520Y-108149520D02*
X145741520Y-111705520D01*
X146568000Y-112532000D02*
X148590000Y-112532000D01*
X128420500Y-103886000D02*
X141478000Y-103886000D01*
X141478000Y-103886000D02*
X145741520Y-108149520D01*
X145741520Y-111705520D02*
X146568000Y-112532000D01*
%TO.N,Net-(J9-Pad4)*%
X146449040Y-107856456D02*
X146449040Y-109365040D01*
X128420500Y-101854000D02*
X140446584Y-101854000D01*
X140446584Y-101854000D02*
X146449040Y-107856456D01*
X146449040Y-109365040D02*
X147076000Y-109992000D01*
X147076000Y-109992000D02*
X148590000Y-109992000D01*
%TO.N,Net-(J10-Pad2)*%
X128420500Y-112014000D02*
X131572000Y-112014000D01*
X138938000Y-115062000D02*
X142748000Y-115062000D01*
X131572000Y-112014000D02*
X135128000Y-108458000D01*
X137160000Y-108458000D02*
X138176000Y-109474000D01*
X138176000Y-109474000D02*
X138176000Y-114300000D01*
X135128000Y-108458000D02*
X137160000Y-108458000D01*
X138176000Y-114300000D02*
X138938000Y-115062000D01*
%TO.N,Net-(J10-Pad3)*%
X134874000Y-107696000D02*
X137414000Y-107696000D01*
X139954000Y-112522000D02*
X142748000Y-112522000D01*
X128420500Y-109982000D02*
X132588000Y-109982000D01*
X138883520Y-111451520D02*
X139954000Y-112522000D01*
X138883520Y-109165520D02*
X138883520Y-111451520D01*
X137414000Y-107696000D02*
X138883520Y-109165520D01*
X132588000Y-109982000D02*
X134874000Y-107696000D01*
%TO.N,Net-(J10-Pad4)*%
X133619416Y-107950000D02*
X134635416Y-106934000D01*
X140700584Y-109982000D02*
X142748000Y-109982000D01*
X137652584Y-106934000D02*
X140700584Y-109982000D01*
X128420500Y-107950000D02*
X133619416Y-107950000D01*
X134635416Y-106934000D02*
X137652584Y-106934000D01*
%TO.N,Net-(J11-Pad2)*%
X128420500Y-118110000D02*
X132080000Y-118110000D01*
X132080000Y-118110000D02*
X135138000Y-115052000D01*
X135138000Y-115052000D02*
X136652000Y-115052000D01*
%TO.N,Net-(J11-Pad3)*%
X128420500Y-116078000D02*
X131826000Y-116078000D01*
X135392000Y-112512000D02*
X136652000Y-112512000D01*
X131826000Y-116078000D02*
X135392000Y-112512000D01*
%TO.N,Net-(J11-Pad4)*%
X128420500Y-114046000D02*
X130810000Y-114046000D01*
X134884000Y-109972000D02*
X136652000Y-109972000D01*
X130810000Y-114046000D02*
X134884000Y-109972000D01*
D22*
%TO.N,Net-(J12-Pad2)*%
X102870000Y-122682000D02*
X103378000Y-122174000D01*
X104394000Y-120396000D02*
X105410000Y-119380000D01*
X103378000Y-122174000D02*
X103378000Y-120904000D01*
X103378000Y-120904000D02*
X103886000Y-120396000D01*
X105410000Y-116078000D02*
X106436000Y-115052000D01*
X105410000Y-119380000D02*
X105410000Y-116078000D01*
X106436000Y-115052000D02*
X106934000Y-115052000D01*
X103886000Y-120396000D02*
X104394000Y-120396000D01*
X99718500Y-122682000D02*
X102870000Y-122682000D01*
%TO.N,Net-(J12-Pad3)*%
X99718500Y-120650000D02*
X102870000Y-120650000D01*
X104956480Y-118563520D02*
X104956480Y-114489520D01*
X104956480Y-114489520D02*
X106934000Y-112512000D01*
X102870000Y-120650000D02*
X104956480Y-118563520D01*
%TO.N,Net-(J12-Pad4)*%
X104140000Y-118618000D02*
X104502960Y-118255040D01*
X104502960Y-118255040D02*
X104502960Y-112171788D01*
X104502960Y-112171788D02*
X106702748Y-109972000D01*
X99718500Y-118618000D02*
X104140000Y-118618000D01*
X106702748Y-109972000D02*
X106934000Y-109972000D01*
%TO.N,Net-(J13-Pad2)*%
X99718500Y-116586000D02*
X103886000Y-116586000D01*
X106172000Y-108458000D02*
X107950000Y-108458000D01*
X108458000Y-114300000D02*
X109210000Y-115052000D01*
X104049440Y-111983934D02*
X105664000Y-110369374D01*
X107950000Y-108458000D02*
X108458000Y-108966000D01*
X108458000Y-108966000D02*
X108458000Y-114300000D01*
X103886000Y-116586000D02*
X104049440Y-116422560D01*
X109210000Y-115052000D02*
X111760000Y-115052000D01*
X105664000Y-108966000D02*
X106172000Y-108458000D01*
X104049440Y-116422560D02*
X104049440Y-111983934D01*
X105664000Y-110369374D02*
X105664000Y-108966000D01*
%TO.N,Net-(J13-Pad3)*%
X105156000Y-108832626D02*
X106038626Y-107950000D01*
X103595920Y-114082080D02*
X103595920Y-111796080D01*
X103124000Y-114554000D02*
X103595920Y-114082080D01*
X109718000Y-112512000D02*
X111760000Y-112512000D01*
X108966000Y-111760000D02*
X109718000Y-112512000D01*
X108204000Y-107950000D02*
X108966000Y-108712000D01*
X106038626Y-107950000D02*
X108204000Y-107950000D01*
X108966000Y-108712000D02*
X108966000Y-111760000D01*
X99718500Y-114554000D02*
X103124000Y-114554000D01*
X105156000Y-110236000D02*
X105156000Y-108832626D01*
X103595920Y-111796080D02*
X105156000Y-110236000D01*
%TO.N,Net-(J13-Pad4)*%
X99718500Y-112522000D02*
X102228626Y-112522000D01*
X102228626Y-112522000D02*
X104702480Y-110048146D01*
X104702480Y-108644772D02*
X105905252Y-107442000D01*
X110988000Y-109972000D02*
X111760000Y-109972000D01*
X105905252Y-107442000D02*
X108458000Y-107442000D01*
X104702480Y-110048146D02*
X104702480Y-108644772D01*
X108458000Y-107442000D02*
X110988000Y-109972000D01*
%TO.N,Net-(J14-Pad2)*%
X105717398Y-106988480D02*
X110544480Y-106988480D01*
X114036000Y-115052000D02*
X116586000Y-115052000D01*
X104248960Y-108456918D02*
X105717398Y-106988480D01*
X99718500Y-110490000D02*
X103619252Y-110490000D01*
X110544480Y-106988480D02*
X113284000Y-109728000D01*
X113284000Y-114300000D02*
X114036000Y-115052000D01*
X103619252Y-110490000D02*
X104248960Y-109860292D01*
X113284000Y-109728000D02*
X113284000Y-114300000D01*
X104248960Y-109860292D02*
X104248960Y-108456918D01*
%TO.N,Net-(J14-Pad3)*%
X105529544Y-106534960D02*
X110732334Y-106534960D01*
X114544000Y-112512000D02*
X116586000Y-112512000D01*
X113737520Y-109540146D02*
X113737520Y-111705520D01*
X113737520Y-111705520D02*
X114544000Y-112512000D01*
X110732334Y-106534960D02*
X113737520Y-109540146D01*
X99718500Y-108458000D02*
X103606504Y-108458000D01*
X103606504Y-108458000D02*
X105529544Y-106534960D01*
%TO.N,Net-(J14-Pad4)*%
X99718500Y-106426000D02*
X104902000Y-106426000D01*
X105246560Y-106081440D02*
X110920188Y-106081440D01*
X114810748Y-109972000D02*
X116586000Y-109972000D01*
X104902000Y-106426000D02*
X105246560Y-106081440D01*
X110920188Y-106081440D02*
X114810748Y-109972000D01*
D21*
%TO.N,Net-(Q1-Pad2)*%
X161732000Y-86426000D02*
X161732000Y-88821500D01*
X163425500Y-84732500D02*
X161732000Y-86426000D01*
X163425500Y-84328000D02*
X163425500Y-84732500D01*
D22*
%TO.N,R1*%
X160782000Y-86946500D02*
X160782000Y-86868000D01*
X161901500Y-108458000D02*
X160800500Y-108458000D01*
X160782000Y-114554000D02*
X161901500Y-114554000D01*
X161901500Y-102362000D02*
X160782000Y-102362000D01*
D21*
%TO.N,Net-(Q2-Pad2)*%
X161732000Y-83989500D02*
X161732000Y-84757500D01*
X163425500Y-82296000D02*
X161732000Y-83989500D01*
D22*
%TO.N,G1*%
X160147000Y-112522000D02*
X161901500Y-112522000D01*
X161901500Y-100330000D02*
X160147000Y-100330000D01*
X160782000Y-82882500D02*
X160782000Y-82804000D01*
X161901500Y-106426000D02*
X160147000Y-106426000D01*
D21*
%TO.N,Net-(Q3-Pad2)*%
X162996000Y-80693500D02*
X163425500Y-80264000D01*
X161732000Y-80693500D02*
X162996000Y-80693500D01*
D22*
%TO.N,B1*%
X161901500Y-104394000D02*
X159620500Y-104394000D01*
X160782000Y-78818500D02*
X160782000Y-78740000D01*
X161901500Y-98298000D02*
X159512000Y-98298000D01*
X159512000Y-110490000D02*
X161901500Y-110490000D01*
%TO.N,Net-(Q4-Pad2)*%
X119568000Y-87043500D02*
X119568000Y-84902000D01*
X119568000Y-84902000D02*
X122936000Y-81534000D01*
X122936000Y-81534000D02*
X123801500Y-81534000D01*
D21*
%TO.N,R2*%
X122936000Y-83566000D02*
X126595500Y-83566000D01*
X126595500Y-105918000D02*
X122936000Y-105918000D01*
X126595500Y-95758000D02*
X122936000Y-95758000D01*
X126595500Y-112014000D02*
X122936000Y-112014000D01*
X126595500Y-89662000D02*
X122936000Y-89662000D01*
X122936000Y-118110000D02*
X126595500Y-118110000D01*
D22*
%TO.N,Net-(Q5-Pad2)*%
X119568000Y-82979500D02*
X119568000Y-80838000D01*
X119568000Y-80838000D02*
X120904000Y-79502000D01*
X120904000Y-79502000D02*
X123801500Y-79502000D01*
D21*
%TO.N,G2*%
X126595500Y-91694000D02*
X123952000Y-91694000D01*
X126595500Y-97790000D02*
X123952000Y-97790000D01*
X118618000Y-81104500D02*
X118618000Y-81026000D01*
X126595500Y-109982000D02*
X123952000Y-109982000D01*
X123952000Y-116078000D02*
X126595500Y-116078000D01*
X126595500Y-103886000D02*
X123952000Y-103886000D01*
X126595500Y-85598000D02*
X123952000Y-85598000D01*
D22*
%TO.N,Net-(Q6-Pad2)*%
X119568000Y-78044000D02*
X120142000Y-77470000D01*
X119568000Y-78915500D02*
X119568000Y-78044000D01*
X120142000Y-77470000D02*
X123801500Y-77470000D01*
D21*
%TO.N,B2*%
X126595500Y-93726000D02*
X124968000Y-93726000D01*
X126595500Y-87630000D02*
X124968000Y-87630000D01*
X126595500Y-107950000D02*
X124968000Y-107950000D01*
X126595500Y-114046000D02*
X124968000Y-114046000D01*
X126595500Y-99822000D02*
X124968000Y-99822000D01*
X126595500Y-101854000D02*
X124968000Y-101854000D01*
X118618000Y-77040500D02*
X118618000Y-75946000D01*
X118618000Y-75946000D02*
X119126000Y-75438000D01*
D20*
%TO.N,Net-(Q7-Pad2)*%
X103989500Y-81280000D02*
X102362000Y-81280000D01*
X102362000Y-81280000D02*
X97724000Y-85918000D01*
X97724000Y-85918000D02*
X97724000Y-87551500D01*
D22*
%TO.N,R3*%
X95425500Y-85676500D02*
X94996000Y-86106000D01*
X94996000Y-122682000D02*
X97893500Y-122682000D01*
X96774000Y-85676500D02*
X95425500Y-85676500D01*
X97893500Y-116586000D02*
X94996000Y-116586000D01*
X97893500Y-110490000D02*
X94996000Y-110490000D01*
D20*
%TO.N,Net-(Q8-Pad2)*%
X100330000Y-79248000D02*
X97724000Y-81854000D01*
X97724000Y-81854000D02*
X97724000Y-82725500D01*
X103989500Y-79248000D02*
X100330000Y-79248000D01*
D22*
%TO.N,G3*%
X96774000Y-80850500D02*
X95425500Y-80850500D01*
X94234000Y-120650000D02*
X97893500Y-120650000D01*
X97893500Y-114554000D02*
X94234000Y-114554000D01*
X95425500Y-80850500D02*
X94742000Y-81534000D01*
X97893500Y-108458000D02*
X94234000Y-108458000D01*
D20*
%TO.N,Net-(Q9-Pad2)*%
X103989500Y-77216000D02*
X98661500Y-77216000D01*
X98661500Y-77216000D02*
X97724000Y-78153500D01*
D22*
%TO.N,B3*%
X93472000Y-118618000D02*
X97893500Y-118618000D01*
X97893500Y-106426000D02*
X93472000Y-106426000D01*
X97893500Y-112522000D02*
X93472000Y-112522000D01*
X96774000Y-76278500D02*
X95679500Y-76278500D01*
X95679500Y-76278500D02*
X93980000Y-77978000D01*
%TD*%
M02*
