%TF.GenerationSoftware,KiCad,Pcbnew,(6.0.7)*%
%TF.CreationDate,2023-03-18T11:43:07+08:00*%
%TF.ProjectId,LED driver,4c454420-6472-4697-9665-722e6b696361,rev?*%
%TF.SameCoordinates,Original*%
%TF.FileFunction,Legend,Top*%
%TF.FilePolarity,Positive*%
%FSLAX46Y46*%
G04 Gerber Fmt 4.6, Leading zero omitted, Abs format (unit mm)*
G04 Created by KiCad (PCBNEW (6.0.7)) date 2023-03-18 11:43:07*
%MOMM*%
%LPD*%
G01*
G04 APERTURE LIST*
%ADD10C,0.150000*%
%ADD11C,0.200000*%
%ADD12C,0.120000*%
G04 APERTURE END LIST*
D10*
X135322000Y-113782000D02*
X157226000Y-113782000D01*
X135412000Y-81036000D02*
X157256000Y-81036000D01*
X105604000Y-113782000D02*
X122936000Y-113782000D01*
X135322000Y-108642000D02*
X157226000Y-108642000D01*
X157226000Y-108642000D02*
X157226000Y-118922000D01*
X157226000Y-118922000D02*
X135322000Y-118922000D01*
X135322000Y-118922000D02*
X135322000Y-108642000D01*
X167326000Y-113284000D02*
X189230000Y-113284000D01*
X135352000Y-83566000D02*
X157256000Y-83566000D01*
X105604000Y-116322000D02*
X122936000Y-116332000D01*
X167386000Y-110754000D02*
X189230000Y-110754000D01*
X135352000Y-78426000D02*
X157256000Y-78426000D01*
X157256000Y-78426000D02*
X157256000Y-88706000D01*
X157256000Y-88706000D02*
X135352000Y-88706000D01*
X135352000Y-88706000D02*
X135352000Y-78426000D01*
X105604000Y-108642000D02*
X122936000Y-108642000D01*
X122936000Y-108642000D02*
X122936000Y-118922000D01*
X122936000Y-118922000D02*
X105604000Y-118922000D01*
X105604000Y-118922000D02*
X105604000Y-108642000D01*
X167326000Y-115824000D02*
X189230000Y-115834000D01*
X135352000Y-86106000D02*
X157256000Y-86116000D01*
X105664000Y-111252000D02*
X122936000Y-111252000D01*
X135382000Y-111252000D02*
X157226000Y-111252000D01*
X135322000Y-116322000D02*
X157226000Y-116332000D01*
X167326000Y-108144000D02*
X189230000Y-108144000D01*
X189230000Y-108144000D02*
X189230000Y-118424000D01*
X189230000Y-118424000D02*
X167326000Y-118424000D01*
X167326000Y-118424000D02*
X167326000Y-108144000D01*
X151275023Y-82748380D02*
X150941690Y-82272190D01*
X150703595Y-82748380D02*
X150703595Y-81748380D01*
X151084547Y-81748380D01*
X151179785Y-81796000D01*
X151227404Y-81843619D01*
X151275023Y-81938857D01*
X151275023Y-82081714D01*
X151227404Y-82176952D01*
X151179785Y-82224571D01*
X151084547Y-82272190D01*
X150703595Y-82272190D01*
X152084547Y-82700761D02*
X151989309Y-82748380D01*
X151798833Y-82748380D01*
X151703595Y-82700761D01*
X151655976Y-82605523D01*
X151655976Y-82224571D01*
X151703595Y-82129333D01*
X151798833Y-82081714D01*
X151989309Y-82081714D01*
X152084547Y-82129333D01*
X152132166Y-82224571D01*
X152132166Y-82319809D01*
X151655976Y-82415047D01*
X152989309Y-82748380D02*
X152989309Y-81748380D01*
X152989309Y-82700761D02*
X152894071Y-82748380D01*
X152703595Y-82748380D01*
X152608357Y-82700761D01*
X152560738Y-82653142D01*
X152513119Y-82557904D01*
X152513119Y-82272190D01*
X152560738Y-82176952D01*
X152608357Y-82129333D01*
X152703595Y-82081714D01*
X152894071Y-82081714D01*
X152989309Y-82129333D01*
X151036928Y-109910571D02*
X151179785Y-109958190D01*
X151227404Y-110005809D01*
X151275023Y-110101047D01*
X151275023Y-110243904D01*
X151227404Y-110339142D01*
X151179785Y-110386761D01*
X151084547Y-110434380D01*
X150703595Y-110434380D01*
X150703595Y-109434380D01*
X151036928Y-109434380D01*
X151132166Y-109482000D01*
X151179785Y-109529619D01*
X151227404Y-109624857D01*
X151227404Y-109720095D01*
X151179785Y-109815333D01*
X151132166Y-109862952D01*
X151036928Y-109910571D01*
X150703595Y-109910571D01*
X151846452Y-110434380D02*
X151751214Y-110386761D01*
X151703595Y-110291523D01*
X151703595Y-109434380D01*
X152655976Y-109767714D02*
X152655976Y-110434380D01*
X152227404Y-109767714D02*
X152227404Y-110291523D01*
X152275023Y-110386761D01*
X152370261Y-110434380D01*
X152513119Y-110434380D01*
X152608357Y-110386761D01*
X152655976Y-110339142D01*
X153513119Y-110386761D02*
X153417880Y-110434380D01*
X153227404Y-110434380D01*
X153132166Y-110386761D01*
X153084547Y-110291523D01*
X153084547Y-109910571D01*
X153132166Y-109815333D01*
X153227404Y-109767714D01*
X153417880Y-109767714D01*
X153513119Y-109815333D01*
X153560738Y-109910571D01*
X153560738Y-110005809D01*
X153084547Y-110101047D01*
X151257404Y-84463000D02*
X151162166Y-84415380D01*
X151019309Y-84415380D01*
X150876452Y-84463000D01*
X150781214Y-84558238D01*
X150733595Y-84653476D01*
X150685976Y-84843952D01*
X150685976Y-84986809D01*
X150733595Y-85177285D01*
X150781214Y-85272523D01*
X150876452Y-85367761D01*
X151019309Y-85415380D01*
X151114547Y-85415380D01*
X151257404Y-85367761D01*
X151305023Y-85320142D01*
X151305023Y-84986809D01*
X151114547Y-84986809D01*
X151733595Y-85415380D02*
X151733595Y-84748714D01*
X151733595Y-84939190D02*
X151781214Y-84843952D01*
X151828833Y-84796333D01*
X151924071Y-84748714D01*
X152019309Y-84748714D01*
X152733595Y-85367761D02*
X152638357Y-85415380D01*
X152447880Y-85415380D01*
X152352642Y-85367761D01*
X152305023Y-85272523D01*
X152305023Y-84891571D01*
X152352642Y-84796333D01*
X152447880Y-84748714D01*
X152638357Y-84748714D01*
X152733595Y-84796333D01*
X152781214Y-84891571D01*
X152781214Y-84986809D01*
X152305023Y-85082047D01*
X153590738Y-85367761D02*
X153495500Y-85415380D01*
X153305023Y-85415380D01*
X153209785Y-85367761D01*
X153162166Y-85272523D01*
X153162166Y-84891571D01*
X153209785Y-84796333D01*
X153305023Y-84748714D01*
X153495500Y-84748714D01*
X153590738Y-84796333D01*
X153638357Y-84891571D01*
X153638357Y-84986809D01*
X153162166Y-85082047D01*
X154066928Y-84748714D02*
X154066928Y-85415380D01*
X154066928Y-84843952D02*
X154114547Y-84796333D01*
X154209785Y-84748714D01*
X154352642Y-84748714D01*
X154447880Y-84796333D01*
X154495500Y-84891571D01*
X154495500Y-85415380D01*
X151402023Y-80113142D02*
X151354404Y-80160761D01*
X151211547Y-80208380D01*
X151116309Y-80208380D01*
X150973452Y-80160761D01*
X150878214Y-80065523D01*
X150830595Y-79970285D01*
X150782976Y-79779809D01*
X150782976Y-79636952D01*
X150830595Y-79446476D01*
X150878214Y-79351238D01*
X150973452Y-79256000D01*
X151116309Y-79208380D01*
X151211547Y-79208380D01*
X151354404Y-79256000D01*
X151402023Y-79303619D01*
X152021071Y-79208380D02*
X152211547Y-79208380D01*
X152306785Y-79256000D01*
X152402023Y-79351238D01*
X152449642Y-79541714D01*
X152449642Y-79875047D01*
X152402023Y-80065523D01*
X152306785Y-80160761D01*
X152211547Y-80208380D01*
X152021071Y-80208380D01*
X151925833Y-80160761D01*
X151830595Y-80065523D01*
X151782976Y-79875047D01*
X151782976Y-79541714D01*
X151830595Y-79351238D01*
X151925833Y-79256000D01*
X152021071Y-79208380D01*
X152878214Y-80208380D02*
X152878214Y-79208380D01*
X153211547Y-79922666D01*
X153544880Y-79208380D01*
X153544880Y-80208380D01*
X183167928Y-109412571D02*
X183310785Y-109460190D01*
X183358404Y-109507809D01*
X183406023Y-109603047D01*
X183406023Y-109745904D01*
X183358404Y-109841142D01*
X183310785Y-109888761D01*
X183215547Y-109936380D01*
X182834595Y-109936380D01*
X182834595Y-108936380D01*
X183167928Y-108936380D01*
X183263166Y-108984000D01*
X183310785Y-109031619D01*
X183358404Y-109126857D01*
X183358404Y-109222095D01*
X183310785Y-109317333D01*
X183263166Y-109364952D01*
X183167928Y-109412571D01*
X182834595Y-109412571D01*
X183977452Y-109936380D02*
X183882214Y-109888761D01*
X183834595Y-109793523D01*
X183834595Y-108936380D01*
X184786976Y-109269714D02*
X184786976Y-109936380D01*
X184358404Y-109269714D02*
X184358404Y-109793523D01*
X184406023Y-109888761D01*
X184501261Y-109936380D01*
X184644119Y-109936380D01*
X184739357Y-109888761D01*
X184786976Y-109841142D01*
X185644119Y-109888761D02*
X185548880Y-109936380D01*
X185358404Y-109936380D01*
X185263166Y-109888761D01*
X185215547Y-109793523D01*
X185215547Y-109412571D01*
X185263166Y-109317333D01*
X185358404Y-109269714D01*
X185548880Y-109269714D01*
X185644119Y-109317333D01*
X185691738Y-109412571D01*
X185691738Y-109507809D01*
X185215547Y-109603047D01*
X119032928Y-109910571D02*
X119175785Y-109958190D01*
X119223404Y-110005809D01*
X119271023Y-110101047D01*
X119271023Y-110243904D01*
X119223404Y-110339142D01*
X119175785Y-110386761D01*
X119080547Y-110434380D01*
X118699595Y-110434380D01*
X118699595Y-109434380D01*
X119032928Y-109434380D01*
X119128166Y-109482000D01*
X119175785Y-109529619D01*
X119223404Y-109624857D01*
X119223404Y-109720095D01*
X119175785Y-109815333D01*
X119128166Y-109862952D01*
X119032928Y-109910571D01*
X118699595Y-109910571D01*
X119842452Y-110434380D02*
X119747214Y-110386761D01*
X119699595Y-110291523D01*
X119699595Y-109434380D01*
X120651976Y-109767714D02*
X120651976Y-110434380D01*
X120223404Y-109767714D02*
X120223404Y-110291523D01*
X120271023Y-110386761D01*
X120366261Y-110434380D01*
X120509119Y-110434380D01*
X120604357Y-110386761D01*
X120651976Y-110339142D01*
X121509119Y-110386761D02*
X121413880Y-110434380D01*
X121223404Y-110434380D01*
X121128166Y-110386761D01*
X121080547Y-110291523D01*
X121080547Y-109910571D01*
X121128166Y-109815333D01*
X121223404Y-109767714D01*
X121413880Y-109767714D01*
X121509119Y-109815333D01*
X121556738Y-109910571D01*
X121556738Y-110005809D01*
X121080547Y-110101047D01*
X181379761Y-86431285D02*
X181427380Y-86288428D01*
X181427380Y-86050333D01*
X181379761Y-85955095D01*
X181332142Y-85907476D01*
X181236904Y-85859857D01*
X181141666Y-85859857D01*
X181046428Y-85907476D01*
X180998809Y-85955095D01*
X180951190Y-86050333D01*
X180903571Y-86240809D01*
X180855952Y-86336047D01*
X180808333Y-86383666D01*
X180713095Y-86431285D01*
X180617857Y-86431285D01*
X180522619Y-86383666D01*
X180475000Y-86336047D01*
X180427380Y-86240809D01*
X180427380Y-86002714D01*
X180475000Y-85859857D01*
X181427380Y-85431285D02*
X180427380Y-85431285D01*
X180427380Y-85193190D01*
X180475000Y-85050333D01*
X180570238Y-84955095D01*
X180665476Y-84907476D01*
X180855952Y-84859857D01*
X180998809Y-84859857D01*
X181189285Y-84907476D01*
X181284523Y-84955095D01*
X181379761Y-85050333D01*
X181427380Y-85193190D01*
X181427380Y-85431285D01*
X181141666Y-84478904D02*
X181141666Y-84002714D01*
X181427380Y-84574142D02*
X180427380Y-84240809D01*
X181427380Y-83907476D01*
X183406023Y-117705142D02*
X183358404Y-117752761D01*
X183215547Y-117800380D01*
X183120309Y-117800380D01*
X182977452Y-117752761D01*
X182882214Y-117657523D01*
X182834595Y-117562285D01*
X182786976Y-117371809D01*
X182786976Y-117228952D01*
X182834595Y-117038476D01*
X182882214Y-116943238D01*
X182977452Y-116848000D01*
X183120309Y-116800380D01*
X183215547Y-116800380D01*
X183358404Y-116848000D01*
X183406023Y-116895619D01*
X184025071Y-116800380D02*
X184215547Y-116800380D01*
X184310785Y-116848000D01*
X184406023Y-116943238D01*
X184453642Y-117133714D01*
X184453642Y-117467047D01*
X184406023Y-117657523D01*
X184310785Y-117752761D01*
X184215547Y-117800380D01*
X184025071Y-117800380D01*
X183929833Y-117752761D01*
X183834595Y-117657523D01*
X183786976Y-117467047D01*
X183786976Y-117133714D01*
X183834595Y-116943238D01*
X183929833Y-116848000D01*
X184025071Y-116800380D01*
X184882214Y-117800380D02*
X184882214Y-116800380D01*
X185215547Y-117514666D01*
X185548880Y-116800380D01*
X185548880Y-117800380D01*
X183919761Y-86407476D02*
X183967380Y-86264619D01*
X183967380Y-86026523D01*
X183919761Y-85931285D01*
X183872142Y-85883666D01*
X183776904Y-85836047D01*
X183681666Y-85836047D01*
X183586428Y-85883666D01*
X183538809Y-85931285D01*
X183491190Y-86026523D01*
X183443571Y-86217000D01*
X183395952Y-86312238D01*
X183348333Y-86359857D01*
X183253095Y-86407476D01*
X183157857Y-86407476D01*
X183062619Y-86359857D01*
X183015000Y-86312238D01*
X182967380Y-86217000D01*
X182967380Y-85978904D01*
X183015000Y-85836047D01*
X183872142Y-84836047D02*
X183919761Y-84883666D01*
X183967380Y-85026523D01*
X183967380Y-85121761D01*
X183919761Y-85264619D01*
X183824523Y-85359857D01*
X183729285Y-85407476D01*
X183538809Y-85455095D01*
X183395952Y-85455095D01*
X183205476Y-85407476D01*
X183110238Y-85359857D01*
X183015000Y-85264619D01*
X182967380Y-85121761D01*
X182967380Y-85026523D01*
X183015000Y-84883666D01*
X183062619Y-84836047D01*
X183967380Y-83931285D02*
X183967380Y-84407476D01*
X182967380Y-84407476D01*
X151227404Y-112002000D02*
X151132166Y-111954380D01*
X150989309Y-111954380D01*
X150846452Y-112002000D01*
X150751214Y-112097238D01*
X150703595Y-112192476D01*
X150655976Y-112382952D01*
X150655976Y-112525809D01*
X150703595Y-112716285D01*
X150751214Y-112811523D01*
X150846452Y-112906761D01*
X150989309Y-112954380D01*
X151084547Y-112954380D01*
X151227404Y-112906761D01*
X151275023Y-112859142D01*
X151275023Y-112525809D01*
X151084547Y-112525809D01*
X151703595Y-112954380D02*
X151703595Y-112287714D01*
X151703595Y-112478190D02*
X151751214Y-112382952D01*
X151798833Y-112335333D01*
X151894071Y-112287714D01*
X151989309Y-112287714D01*
X152703595Y-112906761D02*
X152608357Y-112954380D01*
X152417880Y-112954380D01*
X152322642Y-112906761D01*
X152275023Y-112811523D01*
X152275023Y-112430571D01*
X152322642Y-112335333D01*
X152417880Y-112287714D01*
X152608357Y-112287714D01*
X152703595Y-112335333D01*
X152751214Y-112430571D01*
X152751214Y-112525809D01*
X152275023Y-112621047D01*
X153560738Y-112906761D02*
X153465500Y-112954380D01*
X153275023Y-112954380D01*
X153179785Y-112906761D01*
X153132166Y-112811523D01*
X153132166Y-112430571D01*
X153179785Y-112335333D01*
X153275023Y-112287714D01*
X153465500Y-112287714D01*
X153560738Y-112335333D01*
X153608357Y-112430571D01*
X153608357Y-112525809D01*
X153132166Y-112621047D01*
X154036928Y-112287714D02*
X154036928Y-112954380D01*
X154036928Y-112382952D02*
X154084547Y-112335333D01*
X154179785Y-112287714D01*
X154322642Y-112287714D01*
X154417880Y-112335333D01*
X154465500Y-112430571D01*
X154465500Y-112954380D01*
X119223404Y-112022000D02*
X119128166Y-111974380D01*
X118985309Y-111974380D01*
X118842452Y-112022000D01*
X118747214Y-112117238D01*
X118699595Y-112212476D01*
X118651976Y-112402952D01*
X118651976Y-112545809D01*
X118699595Y-112736285D01*
X118747214Y-112831523D01*
X118842452Y-112926761D01*
X118985309Y-112974380D01*
X119080547Y-112974380D01*
X119223404Y-112926761D01*
X119271023Y-112879142D01*
X119271023Y-112545809D01*
X119080547Y-112545809D01*
X119699595Y-112974380D02*
X119699595Y-112307714D01*
X119699595Y-112498190D02*
X119747214Y-112402952D01*
X119794833Y-112355333D01*
X119890071Y-112307714D01*
X119985309Y-112307714D01*
X120699595Y-112926761D02*
X120604357Y-112974380D01*
X120413880Y-112974380D01*
X120318642Y-112926761D01*
X120271023Y-112831523D01*
X120271023Y-112450571D01*
X120318642Y-112355333D01*
X120413880Y-112307714D01*
X120604357Y-112307714D01*
X120699595Y-112355333D01*
X120747214Y-112450571D01*
X120747214Y-112545809D01*
X120271023Y-112641047D01*
X121556738Y-112926761D02*
X121461500Y-112974380D01*
X121271023Y-112974380D01*
X121175785Y-112926761D01*
X121128166Y-112831523D01*
X121128166Y-112450571D01*
X121175785Y-112355333D01*
X121271023Y-112307714D01*
X121461500Y-112307714D01*
X121556738Y-112355333D01*
X121604357Y-112450571D01*
X121604357Y-112545809D01*
X121128166Y-112641047D01*
X122032928Y-112307714D02*
X122032928Y-112974380D01*
X122032928Y-112402952D02*
X122080547Y-112355333D01*
X122175785Y-112307714D01*
X122318642Y-112307714D01*
X122413880Y-112355333D01*
X122461500Y-112450571D01*
X122461500Y-112974380D01*
X119271023Y-118213142D02*
X119223404Y-118260761D01*
X119080547Y-118308380D01*
X118985309Y-118308380D01*
X118842452Y-118260761D01*
X118747214Y-118165523D01*
X118699595Y-118070285D01*
X118651976Y-117879809D01*
X118651976Y-117736952D01*
X118699595Y-117546476D01*
X118747214Y-117451238D01*
X118842452Y-117356000D01*
X118985309Y-117308380D01*
X119080547Y-117308380D01*
X119223404Y-117356000D01*
X119271023Y-117403619D01*
X119890071Y-117308380D02*
X120080547Y-117308380D01*
X120175785Y-117356000D01*
X120271023Y-117451238D01*
X120318642Y-117641714D01*
X120318642Y-117975047D01*
X120271023Y-118165523D01*
X120175785Y-118260761D01*
X120080547Y-118308380D01*
X119890071Y-118308380D01*
X119794833Y-118260761D01*
X119699595Y-118165523D01*
X119651976Y-117975047D01*
X119651976Y-117641714D01*
X119699595Y-117451238D01*
X119794833Y-117356000D01*
X119890071Y-117308380D01*
X120747214Y-118308380D02*
X120747214Y-117308380D01*
X121080547Y-118022666D01*
X121413880Y-117308380D01*
X121413880Y-118308380D01*
X151275023Y-118213142D02*
X151227404Y-118260761D01*
X151084547Y-118308380D01*
X150989309Y-118308380D01*
X150846452Y-118260761D01*
X150751214Y-118165523D01*
X150703595Y-118070285D01*
X150655976Y-117879809D01*
X150655976Y-117736952D01*
X150703595Y-117546476D01*
X150751214Y-117451238D01*
X150846452Y-117356000D01*
X150989309Y-117308380D01*
X151084547Y-117308380D01*
X151227404Y-117356000D01*
X151275023Y-117403619D01*
X151894071Y-117308380D02*
X152084547Y-117308380D01*
X152179785Y-117356000D01*
X152275023Y-117451238D01*
X152322642Y-117641714D01*
X152322642Y-117975047D01*
X152275023Y-118165523D01*
X152179785Y-118260761D01*
X152084547Y-118308380D01*
X151894071Y-118308380D01*
X151798833Y-118260761D01*
X151703595Y-118165523D01*
X151655976Y-117975047D01*
X151655976Y-117641714D01*
X151703595Y-117451238D01*
X151798833Y-117356000D01*
X151894071Y-117308380D01*
X152751214Y-118308380D02*
X152751214Y-117308380D01*
X153084547Y-118022666D01*
X153417880Y-117308380D01*
X153417880Y-118308380D01*
X151275023Y-115514380D02*
X150941690Y-115038190D01*
X150703595Y-115514380D02*
X150703595Y-114514380D01*
X151084547Y-114514380D01*
X151179785Y-114562000D01*
X151227404Y-114609619D01*
X151275023Y-114704857D01*
X151275023Y-114847714D01*
X151227404Y-114942952D01*
X151179785Y-114990571D01*
X151084547Y-115038190D01*
X150703595Y-115038190D01*
X152084547Y-115466761D02*
X151989309Y-115514380D01*
X151798833Y-115514380D01*
X151703595Y-115466761D01*
X151655976Y-115371523D01*
X151655976Y-114990571D01*
X151703595Y-114895333D01*
X151798833Y-114847714D01*
X151989309Y-114847714D01*
X152084547Y-114895333D01*
X152132166Y-114990571D01*
X152132166Y-115085809D01*
X151655976Y-115181047D01*
X152989309Y-115514380D02*
X152989309Y-114514380D01*
X152989309Y-115466761D02*
X152894071Y-115514380D01*
X152703595Y-115514380D01*
X152608357Y-115466761D01*
X152560738Y-115419142D01*
X152513119Y-115323904D01*
X152513119Y-115038190D01*
X152560738Y-114942952D01*
X152608357Y-114895333D01*
X152703595Y-114847714D01*
X152894071Y-114847714D01*
X152989309Y-114895333D01*
X151036928Y-87304571D02*
X151179785Y-87352190D01*
X151227404Y-87399809D01*
X151275023Y-87495047D01*
X151275023Y-87637904D01*
X151227404Y-87733142D01*
X151179785Y-87780761D01*
X151084547Y-87828380D01*
X150703595Y-87828380D01*
X150703595Y-86828380D01*
X151036928Y-86828380D01*
X151132166Y-86876000D01*
X151179785Y-86923619D01*
X151227404Y-87018857D01*
X151227404Y-87114095D01*
X151179785Y-87209333D01*
X151132166Y-87256952D01*
X151036928Y-87304571D01*
X150703595Y-87304571D01*
X151846452Y-87828380D02*
X151751214Y-87780761D01*
X151703595Y-87685523D01*
X151703595Y-86828380D01*
X152655976Y-87161714D02*
X152655976Y-87828380D01*
X152227404Y-87161714D02*
X152227404Y-87685523D01*
X152275023Y-87780761D01*
X152370261Y-87828380D01*
X152513119Y-87828380D01*
X152608357Y-87780761D01*
X152655976Y-87733142D01*
X153513119Y-87780761D02*
X153417880Y-87828380D01*
X153227404Y-87828380D01*
X153132166Y-87780761D01*
X153084547Y-87685523D01*
X153084547Y-87304571D01*
X153132166Y-87209333D01*
X153227404Y-87161714D01*
X153417880Y-87161714D01*
X153513119Y-87209333D01*
X153560738Y-87304571D01*
X153560738Y-87399809D01*
X153084547Y-87495047D01*
D11*
X107823142Y-94754000D02*
X107680285Y-94682571D01*
X107466000Y-94682571D01*
X107251714Y-94754000D01*
X107108857Y-94896857D01*
X107037428Y-95039714D01*
X106966000Y-95325428D01*
X106966000Y-95539714D01*
X107037428Y-95825428D01*
X107108857Y-95968285D01*
X107251714Y-96111142D01*
X107466000Y-96182571D01*
X107608857Y-96182571D01*
X107823142Y-96111142D01*
X107894571Y-96039714D01*
X107894571Y-95539714D01*
X107608857Y-95539714D01*
X108537428Y-96182571D02*
X108537428Y-94682571D01*
X109394571Y-96182571D01*
X109394571Y-94682571D01*
X110108857Y-96182571D02*
X110108857Y-94682571D01*
X110466000Y-94682571D01*
X110680285Y-94754000D01*
X110823142Y-94896857D01*
X110894571Y-95039714D01*
X110966000Y-95325428D01*
X110966000Y-95539714D01*
X110894571Y-95825428D01*
X110823142Y-95968285D01*
X110680285Y-96111142D01*
X110466000Y-96182571D01*
X110108857Y-96182571D01*
X107918285Y-99762571D02*
X107204000Y-99762571D01*
X107132571Y-100476857D01*
X107204000Y-100405428D01*
X107346857Y-100334000D01*
X107704000Y-100334000D01*
X107846857Y-100405428D01*
X107918285Y-100476857D01*
X107989714Y-100619714D01*
X107989714Y-100976857D01*
X107918285Y-101119714D01*
X107846857Y-101191142D01*
X107704000Y-101262571D01*
X107346857Y-101262571D01*
X107204000Y-101191142D01*
X107132571Y-101119714D01*
X108418285Y-99762571D02*
X108918285Y-101262571D01*
X109418285Y-99762571D01*
D10*
X183358404Y-111504000D02*
X183263166Y-111456380D01*
X183120309Y-111456380D01*
X182977452Y-111504000D01*
X182882214Y-111599238D01*
X182834595Y-111694476D01*
X182786976Y-111884952D01*
X182786976Y-112027809D01*
X182834595Y-112218285D01*
X182882214Y-112313523D01*
X182977452Y-112408761D01*
X183120309Y-112456380D01*
X183215547Y-112456380D01*
X183358404Y-112408761D01*
X183406023Y-112361142D01*
X183406023Y-112027809D01*
X183215547Y-112027809D01*
X183834595Y-112456380D02*
X183834595Y-111789714D01*
X183834595Y-111980190D02*
X183882214Y-111884952D01*
X183929833Y-111837333D01*
X184025071Y-111789714D01*
X184120309Y-111789714D01*
X184834595Y-112408761D02*
X184739357Y-112456380D01*
X184548880Y-112456380D01*
X184453642Y-112408761D01*
X184406023Y-112313523D01*
X184406023Y-111932571D01*
X184453642Y-111837333D01*
X184548880Y-111789714D01*
X184739357Y-111789714D01*
X184834595Y-111837333D01*
X184882214Y-111932571D01*
X184882214Y-112027809D01*
X184406023Y-112123047D01*
X185691738Y-112408761D02*
X185596500Y-112456380D01*
X185406023Y-112456380D01*
X185310785Y-112408761D01*
X185263166Y-112313523D01*
X185263166Y-111932571D01*
X185310785Y-111837333D01*
X185406023Y-111789714D01*
X185596500Y-111789714D01*
X185691738Y-111837333D01*
X185739357Y-111932571D01*
X185739357Y-112027809D01*
X185263166Y-112123047D01*
X186167928Y-111789714D02*
X186167928Y-112456380D01*
X186167928Y-111884952D02*
X186215547Y-111837333D01*
X186310785Y-111789714D01*
X186453642Y-111789714D01*
X186548880Y-111837333D01*
X186596500Y-111932571D01*
X186596500Y-112456380D01*
X183406023Y-115006380D02*
X183072690Y-114530190D01*
X182834595Y-115006380D02*
X182834595Y-114006380D01*
X183215547Y-114006380D01*
X183310785Y-114054000D01*
X183358404Y-114101619D01*
X183406023Y-114196857D01*
X183406023Y-114339714D01*
X183358404Y-114434952D01*
X183310785Y-114482571D01*
X183215547Y-114530190D01*
X182834595Y-114530190D01*
X184215547Y-114958761D02*
X184120309Y-115006380D01*
X183929833Y-115006380D01*
X183834595Y-114958761D01*
X183786976Y-114863523D01*
X183786976Y-114482571D01*
X183834595Y-114387333D01*
X183929833Y-114339714D01*
X184120309Y-114339714D01*
X184215547Y-114387333D01*
X184263166Y-114482571D01*
X184263166Y-114577809D01*
X183786976Y-114673047D01*
X185120309Y-115006380D02*
X185120309Y-114006380D01*
X185120309Y-114958761D02*
X185025071Y-115006380D01*
X184834595Y-115006380D01*
X184739357Y-114958761D01*
X184691738Y-114911142D01*
X184644119Y-114815904D01*
X184644119Y-114530190D01*
X184691738Y-114434952D01*
X184739357Y-114387333D01*
X184834595Y-114339714D01*
X185025071Y-114339714D01*
X185120309Y-114387333D01*
X119271023Y-115514380D02*
X118937690Y-115038190D01*
X118699595Y-115514380D02*
X118699595Y-114514380D01*
X119080547Y-114514380D01*
X119175785Y-114562000D01*
X119223404Y-114609619D01*
X119271023Y-114704857D01*
X119271023Y-114847714D01*
X119223404Y-114942952D01*
X119175785Y-114990571D01*
X119080547Y-115038190D01*
X118699595Y-115038190D01*
X120080547Y-115466761D02*
X119985309Y-115514380D01*
X119794833Y-115514380D01*
X119699595Y-115466761D01*
X119651976Y-115371523D01*
X119651976Y-114990571D01*
X119699595Y-114895333D01*
X119794833Y-114847714D01*
X119985309Y-114847714D01*
X120080547Y-114895333D01*
X120128166Y-114990571D01*
X120128166Y-115085809D01*
X119651976Y-115181047D01*
X120985309Y-115514380D02*
X120985309Y-114514380D01*
X120985309Y-115466761D02*
X120890071Y-115514380D01*
X120699595Y-115514380D01*
X120604357Y-115466761D01*
X120556738Y-115419142D01*
X120509119Y-115323904D01*
X120509119Y-115038190D01*
X120556738Y-114942952D01*
X120604357Y-114895333D01*
X120699595Y-114847714D01*
X120890071Y-114847714D01*
X120985309Y-114895333D01*
X175395000Y-85851904D02*
X175347380Y-85947142D01*
X175347380Y-86090000D01*
X175395000Y-86232857D01*
X175490238Y-86328095D01*
X175585476Y-86375714D01*
X175775952Y-86423333D01*
X175918809Y-86423333D01*
X176109285Y-86375714D01*
X176204523Y-86328095D01*
X176299761Y-86232857D01*
X176347380Y-86090000D01*
X176347380Y-85994761D01*
X176299761Y-85851904D01*
X176252142Y-85804285D01*
X175918809Y-85804285D01*
X175918809Y-85994761D01*
X176347380Y-85375714D02*
X175347380Y-85375714D01*
X176347380Y-84804285D01*
X175347380Y-84804285D01*
X176347380Y-84328095D02*
X175347380Y-84328095D01*
X175347380Y-84090000D01*
X175395000Y-83947142D01*
X175490238Y-83851904D01*
X175585476Y-83804285D01*
X175775952Y-83756666D01*
X175918809Y-83756666D01*
X176109285Y-83804285D01*
X176204523Y-83851904D01*
X176299761Y-83947142D01*
X176347380Y-84090000D01*
X176347380Y-84328095D01*
X177760380Y-91526857D02*
X177760380Y-92003047D01*
X178236571Y-92050666D01*
X178188952Y-92003047D01*
X178141333Y-91907809D01*
X178141333Y-91669714D01*
X178188952Y-91574476D01*
X178236571Y-91526857D01*
X178331809Y-91479238D01*
X178569904Y-91479238D01*
X178665142Y-91526857D01*
X178712761Y-91574476D01*
X178760380Y-91669714D01*
X178760380Y-91907809D01*
X178712761Y-92003047D01*
X178665142Y-92050666D01*
X177760380Y-91193523D02*
X178760380Y-90860190D01*
X177760380Y-90526857D01*
X179141333Y-89907809D02*
X179093714Y-89955428D01*
X178950857Y-90050666D01*
X178855619Y-90098285D01*
X178712761Y-90145904D01*
X178474666Y-90193523D01*
X178284190Y-90193523D01*
X178046095Y-90145904D01*
X177903238Y-90098285D01*
X177808000Y-90050666D01*
X177665142Y-89955428D01*
X177617523Y-89907809D01*
X178474666Y-89574476D02*
X178474666Y-89098285D01*
X178760380Y-89669714D02*
X177760380Y-89336380D01*
X178760380Y-89003047D01*
X178760380Y-88669714D02*
X178093714Y-88669714D01*
X178284190Y-88669714D02*
X178188952Y-88622095D01*
X178141333Y-88574476D01*
X178093714Y-88479238D01*
X178093714Y-88384000D01*
X178760380Y-87622095D02*
X177760380Y-87622095D01*
X178712761Y-87622095D02*
X178760380Y-87717333D01*
X178760380Y-87907809D01*
X178712761Y-88003047D01*
X178665142Y-88050666D01*
X178569904Y-88098285D01*
X178284190Y-88098285D01*
X178188952Y-88050666D01*
X178141333Y-88003047D01*
X178093714Y-87907809D01*
X178093714Y-87717333D01*
X178141333Y-87622095D01*
X178093714Y-86717333D02*
X178760380Y-86717333D01*
X178093714Y-87145904D02*
X178617523Y-87145904D01*
X178712761Y-87098285D01*
X178760380Y-87003047D01*
X178760380Y-86860190D01*
X178712761Y-86764952D01*
X178665142Y-86717333D01*
X178760380Y-86241142D02*
X178093714Y-86241142D01*
X177760380Y-86241142D02*
X177808000Y-86288761D01*
X177855619Y-86241142D01*
X177808000Y-86193523D01*
X177760380Y-86241142D01*
X177855619Y-86241142D01*
X178093714Y-85764952D02*
X178760380Y-85764952D01*
X178188952Y-85764952D02*
X178141333Y-85717333D01*
X178093714Y-85622095D01*
X178093714Y-85479238D01*
X178141333Y-85384000D01*
X178236571Y-85336380D01*
X178760380Y-85336380D01*
X178760380Y-84717333D02*
X178712761Y-84812571D01*
X178665142Y-84860190D01*
X178569904Y-84907809D01*
X178284190Y-84907809D01*
X178188952Y-84860190D01*
X178141333Y-84812571D01*
X178093714Y-84717333D01*
X178093714Y-84574476D01*
X178141333Y-84479238D01*
X178188952Y-84431619D01*
X178284190Y-84384000D01*
X178569904Y-84384000D01*
X178665142Y-84431619D01*
X178712761Y-84479238D01*
X178760380Y-84574476D01*
X178760380Y-84717333D01*
X179141333Y-84050666D02*
X179093714Y-84003047D01*
X178950857Y-83907809D01*
X178855619Y-83860190D01*
X178712761Y-83812571D01*
X178474666Y-83764952D01*
X178284190Y-83764952D01*
X178046095Y-83812571D01*
X177903238Y-83860190D01*
X177808000Y-83907809D01*
X177665142Y-84003047D01*
X177617523Y-84050666D01*
X104124523Y-91257380D02*
X103648333Y-91257380D01*
X103648333Y-90257380D01*
X104457857Y-90733571D02*
X104791190Y-90733571D01*
X104934047Y-91257380D02*
X104457857Y-91257380D01*
X104457857Y-90257380D01*
X104934047Y-90257380D01*
X105362619Y-91257380D02*
X105362619Y-90257380D01*
X105600714Y-90257380D01*
X105743571Y-90305000D01*
X105838809Y-90400238D01*
X105886428Y-90495476D01*
X105934047Y-90685952D01*
X105934047Y-90828809D01*
X105886428Y-91019285D01*
X105838809Y-91114523D01*
X105743571Y-91209761D01*
X105600714Y-91257380D01*
X105362619Y-91257380D01*
X107124523Y-90590714D02*
X107124523Y-91590714D01*
X107124523Y-90638333D02*
X107219761Y-90590714D01*
X107410238Y-90590714D01*
X107505476Y-90638333D01*
X107553095Y-90685952D01*
X107600714Y-90781190D01*
X107600714Y-91066904D01*
X107553095Y-91162142D01*
X107505476Y-91209761D01*
X107410238Y-91257380D01*
X107219761Y-91257380D01*
X107124523Y-91209761D01*
X108172142Y-91257380D02*
X108076904Y-91209761D01*
X108029285Y-91162142D01*
X107981666Y-91066904D01*
X107981666Y-90781190D01*
X108029285Y-90685952D01*
X108076904Y-90638333D01*
X108172142Y-90590714D01*
X108315000Y-90590714D01*
X108410238Y-90638333D01*
X108457857Y-90685952D01*
X108505476Y-90781190D01*
X108505476Y-91066904D01*
X108457857Y-91162142D01*
X108410238Y-91209761D01*
X108315000Y-91257380D01*
X108172142Y-91257380D01*
X108838809Y-90590714D02*
X109029285Y-91257380D01*
X109219761Y-90781190D01*
X109410238Y-91257380D01*
X109600714Y-90590714D01*
X110362619Y-91209761D02*
X110267380Y-91257380D01*
X110076904Y-91257380D01*
X109981666Y-91209761D01*
X109934047Y-91114523D01*
X109934047Y-90733571D01*
X109981666Y-90638333D01*
X110076904Y-90590714D01*
X110267380Y-90590714D01*
X110362619Y-90638333D01*
X110410238Y-90733571D01*
X110410238Y-90828809D01*
X109934047Y-90924047D01*
X110838809Y-91257380D02*
X110838809Y-90590714D01*
X110838809Y-90781190D02*
X110886428Y-90685952D01*
X110934047Y-90638333D01*
X111029285Y-90590714D01*
X111124523Y-90590714D01*
%TO.C,R7*%
X165187333Y-102814380D02*
X164854000Y-102338190D01*
X164615904Y-102814380D02*
X164615904Y-101814380D01*
X164996857Y-101814380D01*
X165092095Y-101862000D01*
X165139714Y-101909619D01*
X165187333Y-102004857D01*
X165187333Y-102147714D01*
X165139714Y-102242952D01*
X165092095Y-102290571D01*
X164996857Y-102338190D01*
X164615904Y-102338190D01*
X165520666Y-101814380D02*
X166187333Y-101814380D01*
X165758761Y-102814380D01*
%TO.C,Q1*%
X158929619Y-87979238D02*
X158882000Y-88074476D01*
X158786761Y-88169714D01*
X158643904Y-88312571D01*
X158596285Y-88407809D01*
X158596285Y-88503047D01*
X158834380Y-88455428D02*
X158786761Y-88550666D01*
X158691523Y-88645904D01*
X158501047Y-88693523D01*
X158167714Y-88693523D01*
X157977238Y-88645904D01*
X157882000Y-88550666D01*
X157834380Y-88455428D01*
X157834380Y-88264952D01*
X157882000Y-88169714D01*
X157977238Y-88074476D01*
X158167714Y-88026857D01*
X158501047Y-88026857D01*
X158691523Y-88074476D01*
X158786761Y-88169714D01*
X158834380Y-88264952D01*
X158834380Y-88455428D01*
X158834380Y-87074476D02*
X158834380Y-87645904D01*
X158834380Y-87360190D02*
X157834380Y-87360190D01*
X157977238Y-87455428D01*
X158072476Y-87550666D01*
X158120095Y-87645904D01*
%TO.C,Q8*%
X94921619Y-81883238D02*
X94874000Y-81978476D01*
X94778761Y-82073714D01*
X94635904Y-82216571D01*
X94588285Y-82311809D01*
X94588285Y-82407047D01*
X94826380Y-82359428D02*
X94778761Y-82454666D01*
X94683523Y-82549904D01*
X94493047Y-82597523D01*
X94159714Y-82597523D01*
X93969238Y-82549904D01*
X93874000Y-82454666D01*
X93826380Y-82359428D01*
X93826380Y-82168952D01*
X93874000Y-82073714D01*
X93969238Y-81978476D01*
X94159714Y-81930857D01*
X94493047Y-81930857D01*
X94683523Y-81978476D01*
X94778761Y-82073714D01*
X94826380Y-82168952D01*
X94826380Y-82359428D01*
X94254952Y-81359428D02*
X94207333Y-81454666D01*
X94159714Y-81502285D01*
X94064476Y-81549904D01*
X94016857Y-81549904D01*
X93921619Y-81502285D01*
X93874000Y-81454666D01*
X93826380Y-81359428D01*
X93826380Y-81168952D01*
X93874000Y-81073714D01*
X93921619Y-81026095D01*
X94016857Y-80978476D01*
X94064476Y-80978476D01*
X94159714Y-81026095D01*
X94207333Y-81073714D01*
X94254952Y-81168952D01*
X94254952Y-81359428D01*
X94302571Y-81454666D01*
X94350190Y-81502285D01*
X94445428Y-81549904D01*
X94635904Y-81549904D01*
X94731142Y-81502285D01*
X94778761Y-81454666D01*
X94826380Y-81359428D01*
X94826380Y-81168952D01*
X94778761Y-81073714D01*
X94731142Y-81026095D01*
X94635904Y-80978476D01*
X94445428Y-80978476D01*
X94350190Y-81026095D01*
X94302571Y-81073714D01*
X94254952Y-81168952D01*
%TO.C,R10*%
X165219142Y-115006380D02*
X164885809Y-114530190D01*
X164647714Y-115006380D02*
X164647714Y-114006380D01*
X165028666Y-114006380D01*
X165123904Y-114054000D01*
X165171523Y-114101619D01*
X165219142Y-114196857D01*
X165219142Y-114339714D01*
X165171523Y-114434952D01*
X165123904Y-114482571D01*
X165028666Y-114530190D01*
X164647714Y-114530190D01*
X166171523Y-115006380D02*
X165600095Y-115006380D01*
X165885809Y-115006380D02*
X165885809Y-114006380D01*
X165790571Y-114149238D01*
X165695333Y-114244476D01*
X165600095Y-114292095D01*
X166790571Y-114006380D02*
X166885809Y-114006380D01*
X166981047Y-114054000D01*
X167028666Y-114101619D01*
X167076285Y-114196857D01*
X167123904Y-114387333D01*
X167123904Y-114625428D01*
X167076285Y-114815904D01*
X167028666Y-114911142D01*
X166981047Y-114958761D01*
X166885809Y-115006380D01*
X166790571Y-115006380D01*
X166695333Y-114958761D01*
X166647714Y-114911142D01*
X166600095Y-114815904D01*
X166552476Y-114625428D01*
X166552476Y-114387333D01*
X166600095Y-114196857D01*
X166647714Y-114101619D01*
X166695333Y-114054000D01*
X166790571Y-114006380D01*
%TO.C,R32*%
X129913142Y-116784380D02*
X129579809Y-116308190D01*
X129341714Y-116784380D02*
X129341714Y-115784380D01*
X129722666Y-115784380D01*
X129817904Y-115832000D01*
X129865523Y-115879619D01*
X129913142Y-115974857D01*
X129913142Y-116117714D01*
X129865523Y-116212952D01*
X129817904Y-116260571D01*
X129722666Y-116308190D01*
X129341714Y-116308190D01*
X130246476Y-115784380D02*
X130865523Y-115784380D01*
X130532190Y-116165333D01*
X130675047Y-116165333D01*
X130770285Y-116212952D01*
X130817904Y-116260571D01*
X130865523Y-116355809D01*
X130865523Y-116593904D01*
X130817904Y-116689142D01*
X130770285Y-116736761D01*
X130675047Y-116784380D01*
X130389333Y-116784380D01*
X130294095Y-116736761D01*
X130246476Y-116689142D01*
X131246476Y-115879619D02*
X131294095Y-115832000D01*
X131389333Y-115784380D01*
X131627428Y-115784380D01*
X131722666Y-115832000D01*
X131770285Y-115879619D01*
X131817904Y-115974857D01*
X131817904Y-116070095D01*
X131770285Y-116212952D01*
X131198857Y-116784380D01*
X131817904Y-116784380D01*
%TO.C,Q7*%
X94921619Y-86709238D02*
X94874000Y-86804476D01*
X94778761Y-86899714D01*
X94635904Y-87042571D01*
X94588285Y-87137809D01*
X94588285Y-87233047D01*
X94826380Y-87185428D02*
X94778761Y-87280666D01*
X94683523Y-87375904D01*
X94493047Y-87423523D01*
X94159714Y-87423523D01*
X93969238Y-87375904D01*
X93874000Y-87280666D01*
X93826380Y-87185428D01*
X93826380Y-86994952D01*
X93874000Y-86899714D01*
X93969238Y-86804476D01*
X94159714Y-86756857D01*
X94493047Y-86756857D01*
X94683523Y-86804476D01*
X94778761Y-86899714D01*
X94826380Y-86994952D01*
X94826380Y-87185428D01*
X93826380Y-86423523D02*
X93826380Y-85756857D01*
X94826380Y-86185428D01*
%TO.C,R20*%
X129949142Y-98240880D02*
X129615809Y-97764690D01*
X129377714Y-98240880D02*
X129377714Y-97240880D01*
X129758666Y-97240880D01*
X129853904Y-97288500D01*
X129901523Y-97336119D01*
X129949142Y-97431357D01*
X129949142Y-97574214D01*
X129901523Y-97669452D01*
X129853904Y-97717071D01*
X129758666Y-97764690D01*
X129377714Y-97764690D01*
X130330095Y-97336119D02*
X130377714Y-97288500D01*
X130472952Y-97240880D01*
X130711047Y-97240880D01*
X130806285Y-97288500D01*
X130853904Y-97336119D01*
X130901523Y-97431357D01*
X130901523Y-97526595D01*
X130853904Y-97669452D01*
X130282476Y-98240880D01*
X130901523Y-98240880D01*
X131520571Y-97240880D02*
X131615809Y-97240880D01*
X131711047Y-97288500D01*
X131758666Y-97336119D01*
X131806285Y-97431357D01*
X131853904Y-97621833D01*
X131853904Y-97859928D01*
X131806285Y-98050404D01*
X131758666Y-98145642D01*
X131711047Y-98193261D01*
X131615809Y-98240880D01*
X131520571Y-98240880D01*
X131425333Y-98193261D01*
X131377714Y-98145642D01*
X131330095Y-98050404D01*
X131282476Y-97859928D01*
X131282476Y-97621833D01*
X131330095Y-97431357D01*
X131377714Y-97336119D01*
X131425333Y-97288500D01*
X131520571Y-97240880D01*
%TO.C,J2*%
X96068380Y-98377333D02*
X96782666Y-98377333D01*
X96925523Y-98424952D01*
X97020761Y-98520190D01*
X97068380Y-98663047D01*
X97068380Y-98758285D01*
X96163619Y-97948761D02*
X96116000Y-97901142D01*
X96068380Y-97805904D01*
X96068380Y-97567809D01*
X96116000Y-97472571D01*
X96163619Y-97424952D01*
X96258857Y-97377333D01*
X96354095Y-97377333D01*
X96496952Y-97424952D01*
X97068380Y-97996380D01*
X97068380Y-97377333D01*
%TO.C,R5*%
X165187333Y-106878380D02*
X164854000Y-106402190D01*
X164615904Y-106878380D02*
X164615904Y-105878380D01*
X164996857Y-105878380D01*
X165092095Y-105926000D01*
X165139714Y-105973619D01*
X165187333Y-106068857D01*
X165187333Y-106211714D01*
X165139714Y-106306952D01*
X165092095Y-106354571D01*
X164996857Y-106402190D01*
X164615904Y-106402190D01*
X166092095Y-105878380D02*
X165615904Y-105878380D01*
X165568285Y-106354571D01*
X165615904Y-106306952D01*
X165711142Y-106259333D01*
X165949238Y-106259333D01*
X166044476Y-106306952D01*
X166092095Y-106354571D01*
X166139714Y-106449809D01*
X166139714Y-106687904D01*
X166092095Y-106783142D01*
X166044476Y-106830761D01*
X165949238Y-106878380D01*
X165711142Y-106878380D01*
X165615904Y-106830761D01*
X165568285Y-106783142D01*
%TO.C,R17*%
X129913142Y-92146380D02*
X129579809Y-91670190D01*
X129341714Y-92146380D02*
X129341714Y-91146380D01*
X129722666Y-91146380D01*
X129817904Y-91194000D01*
X129865523Y-91241619D01*
X129913142Y-91336857D01*
X129913142Y-91479714D01*
X129865523Y-91574952D01*
X129817904Y-91622571D01*
X129722666Y-91670190D01*
X129341714Y-91670190D01*
X130865523Y-92146380D02*
X130294095Y-92146380D01*
X130579809Y-92146380D02*
X130579809Y-91146380D01*
X130484571Y-91289238D01*
X130389333Y-91384476D01*
X130294095Y-91432095D01*
X131198857Y-91146380D02*
X131865523Y-91146380D01*
X131436952Y-92146380D01*
%TO.C,Q9*%
X94921619Y-77311238D02*
X94874000Y-77406476D01*
X94778761Y-77501714D01*
X94635904Y-77644571D01*
X94588285Y-77739809D01*
X94588285Y-77835047D01*
X94826380Y-77787428D02*
X94778761Y-77882666D01*
X94683523Y-77977904D01*
X94493047Y-78025523D01*
X94159714Y-78025523D01*
X93969238Y-77977904D01*
X93874000Y-77882666D01*
X93826380Y-77787428D01*
X93826380Y-77596952D01*
X93874000Y-77501714D01*
X93969238Y-77406476D01*
X94159714Y-77358857D01*
X94493047Y-77358857D01*
X94683523Y-77406476D01*
X94778761Y-77501714D01*
X94826380Y-77596952D01*
X94826380Y-77787428D01*
X94826380Y-76882666D02*
X94826380Y-76692190D01*
X94778761Y-76596952D01*
X94731142Y-76549333D01*
X94588285Y-76454095D01*
X94397809Y-76406476D01*
X94016857Y-76406476D01*
X93921619Y-76454095D01*
X93874000Y-76501714D01*
X93826380Y-76596952D01*
X93826380Y-76787428D01*
X93874000Y-76882666D01*
X93921619Y-76930285D01*
X94016857Y-76977904D01*
X94254952Y-76977904D01*
X94350190Y-76930285D01*
X94397809Y-76882666D01*
X94445428Y-76787428D01*
X94445428Y-76596952D01*
X94397809Y-76501714D01*
X94350190Y-76454095D01*
X94254952Y-76406476D01*
%TO.C,R1*%
X166711333Y-84780380D02*
X166378000Y-84304190D01*
X166139904Y-84780380D02*
X166139904Y-83780380D01*
X166520857Y-83780380D01*
X166616095Y-83828000D01*
X166663714Y-83875619D01*
X166711333Y-83970857D01*
X166711333Y-84113714D01*
X166663714Y-84208952D01*
X166616095Y-84256571D01*
X166520857Y-84304190D01*
X166139904Y-84304190D01*
X167663714Y-84780380D02*
X167092285Y-84780380D01*
X167378000Y-84780380D02*
X167378000Y-83780380D01*
X167282761Y-83923238D01*
X167187523Y-84018476D01*
X167092285Y-84066095D01*
%TO.C,R4*%
X165187333Y-108910380D02*
X164854000Y-108434190D01*
X164615904Y-108910380D02*
X164615904Y-107910380D01*
X164996857Y-107910380D01*
X165092095Y-107958000D01*
X165139714Y-108005619D01*
X165187333Y-108100857D01*
X165187333Y-108243714D01*
X165139714Y-108338952D01*
X165092095Y-108386571D01*
X164996857Y-108434190D01*
X164615904Y-108434190D01*
X166044476Y-108243714D02*
X166044476Y-108910380D01*
X165806380Y-107862761D02*
X165568285Y-108577047D01*
X166187333Y-108577047D01*
%TO.C,R41*%
X101211142Y-115006380D02*
X100877809Y-114530190D01*
X100639714Y-115006380D02*
X100639714Y-114006380D01*
X101020666Y-114006380D01*
X101115904Y-114054000D01*
X101163523Y-114101619D01*
X101211142Y-114196857D01*
X101211142Y-114339714D01*
X101163523Y-114434952D01*
X101115904Y-114482571D01*
X101020666Y-114530190D01*
X100639714Y-114530190D01*
X102068285Y-114339714D02*
X102068285Y-115006380D01*
X101830190Y-113958761D02*
X101592095Y-114673047D01*
X102211142Y-114673047D01*
X103115904Y-115006380D02*
X102544476Y-115006380D01*
X102830190Y-115006380D02*
X102830190Y-114006380D01*
X102734952Y-114149238D01*
X102639714Y-114244476D01*
X102544476Y-114292095D01*
%TO.C,J5*%
X168322666Y-119086380D02*
X168322666Y-119800666D01*
X168275047Y-119943523D01*
X168179809Y-120038761D01*
X168036952Y-120086380D01*
X167941714Y-120086380D01*
X169275047Y-119086380D02*
X168798857Y-119086380D01*
X168751238Y-119562571D01*
X168798857Y-119514952D01*
X168894095Y-119467333D01*
X169132190Y-119467333D01*
X169227428Y-119514952D01*
X169275047Y-119562571D01*
X169322666Y-119657809D01*
X169322666Y-119895904D01*
X169275047Y-119991142D01*
X169227428Y-120038761D01*
X169132190Y-120086380D01*
X168894095Y-120086380D01*
X168798857Y-120038761D01*
X168751238Y-119991142D01*
%TO.C,R9*%
X165187333Y-98750380D02*
X164854000Y-98274190D01*
X164615904Y-98750380D02*
X164615904Y-97750380D01*
X164996857Y-97750380D01*
X165092095Y-97798000D01*
X165139714Y-97845619D01*
X165187333Y-97940857D01*
X165187333Y-98083714D01*
X165139714Y-98178952D01*
X165092095Y-98226571D01*
X164996857Y-98274190D01*
X164615904Y-98274190D01*
X165663523Y-98750380D02*
X165854000Y-98750380D01*
X165949238Y-98702761D01*
X165996857Y-98655142D01*
X166092095Y-98512285D01*
X166139714Y-98321809D01*
X166139714Y-97940857D01*
X166092095Y-97845619D01*
X166044476Y-97798000D01*
X165949238Y-97750380D01*
X165758761Y-97750380D01*
X165663523Y-97798000D01*
X165615904Y-97845619D01*
X165568285Y-97940857D01*
X165568285Y-98178952D01*
X165615904Y-98274190D01*
X165663523Y-98321809D01*
X165758761Y-98369428D01*
X165949238Y-98369428D01*
X166044476Y-98321809D01*
X166092095Y-98274190D01*
X166139714Y-98178952D01*
%TO.C,R27*%
X129913142Y-102306380D02*
X129579809Y-101830190D01*
X129341714Y-102306380D02*
X129341714Y-101306380D01*
X129722666Y-101306380D01*
X129817904Y-101354000D01*
X129865523Y-101401619D01*
X129913142Y-101496857D01*
X129913142Y-101639714D01*
X129865523Y-101734952D01*
X129817904Y-101782571D01*
X129722666Y-101830190D01*
X129341714Y-101830190D01*
X130294095Y-101401619D02*
X130341714Y-101354000D01*
X130436952Y-101306380D01*
X130675047Y-101306380D01*
X130770285Y-101354000D01*
X130817904Y-101401619D01*
X130865523Y-101496857D01*
X130865523Y-101592095D01*
X130817904Y-101734952D01*
X130246476Y-102306380D01*
X130865523Y-102306380D01*
X131198857Y-101306380D02*
X131865523Y-101306380D01*
X131436952Y-102306380D01*
%TO.C,J12*%
X106124476Y-119374380D02*
X106124476Y-120088666D01*
X106076857Y-120231523D01*
X105981619Y-120326761D01*
X105838761Y-120374380D01*
X105743523Y-120374380D01*
X107124476Y-120374380D02*
X106553047Y-120374380D01*
X106838761Y-120374380D02*
X106838761Y-119374380D01*
X106743523Y-119517238D01*
X106648285Y-119612476D01*
X106553047Y-119660095D01*
X107505428Y-119469619D02*
X107553047Y-119422000D01*
X107648285Y-119374380D01*
X107886380Y-119374380D01*
X107981619Y-119422000D01*
X108029238Y-119469619D01*
X108076857Y-119564857D01*
X108076857Y-119660095D01*
X108029238Y-119802952D01*
X107457809Y-120374380D01*
X108076857Y-120374380D01*
%TO.C,J8*%
X147748666Y-76878380D02*
X147748666Y-77592666D01*
X147701047Y-77735523D01*
X147605809Y-77830761D01*
X147462952Y-77878380D01*
X147367714Y-77878380D01*
X148367714Y-77306952D02*
X148272476Y-77259333D01*
X148224857Y-77211714D01*
X148177238Y-77116476D01*
X148177238Y-77068857D01*
X148224857Y-76973619D01*
X148272476Y-76926000D01*
X148367714Y-76878380D01*
X148558190Y-76878380D01*
X148653428Y-76926000D01*
X148701047Y-76973619D01*
X148748666Y-77068857D01*
X148748666Y-77116476D01*
X148701047Y-77211714D01*
X148653428Y-77259333D01*
X148558190Y-77306952D01*
X148367714Y-77306952D01*
X148272476Y-77354571D01*
X148224857Y-77402190D01*
X148177238Y-77497428D01*
X148177238Y-77687904D01*
X148224857Y-77783142D01*
X148272476Y-77830761D01*
X148367714Y-77878380D01*
X148558190Y-77878380D01*
X148653428Y-77830761D01*
X148701047Y-77783142D01*
X148748666Y-77687904D01*
X148748666Y-77497428D01*
X148701047Y-77402190D01*
X148653428Y-77354571D01*
X148558190Y-77306952D01*
%TO.C,R2*%
X166711333Y-82748380D02*
X166378000Y-82272190D01*
X166139904Y-82748380D02*
X166139904Y-81748380D01*
X166520857Y-81748380D01*
X166616095Y-81796000D01*
X166663714Y-81843619D01*
X166711333Y-81938857D01*
X166711333Y-82081714D01*
X166663714Y-82176952D01*
X166616095Y-82224571D01*
X166520857Y-82272190D01*
X166139904Y-82272190D01*
X167092285Y-81843619D02*
X167139904Y-81796000D01*
X167235142Y-81748380D01*
X167473238Y-81748380D01*
X167568476Y-81796000D01*
X167616095Y-81843619D01*
X167663714Y-81938857D01*
X167663714Y-82034095D01*
X167616095Y-82176952D01*
X167044666Y-82748380D01*
X167663714Y-82748380D01*
%TO.C,J11*%
X135842476Y-119374380D02*
X135842476Y-120088666D01*
X135794857Y-120231523D01*
X135699619Y-120326761D01*
X135556761Y-120374380D01*
X135461523Y-120374380D01*
X136842476Y-120374380D02*
X136271047Y-120374380D01*
X136556761Y-120374380D02*
X136556761Y-119374380D01*
X136461523Y-119517238D01*
X136366285Y-119612476D01*
X136271047Y-119660095D01*
X137794857Y-120374380D02*
X137223428Y-120374380D01*
X137509142Y-120374380D02*
X137509142Y-119374380D01*
X137413904Y-119517238D01*
X137318666Y-119612476D01*
X137223428Y-119660095D01*
%TO.C,R40*%
X101211142Y-117038380D02*
X100877809Y-116562190D01*
X100639714Y-117038380D02*
X100639714Y-116038380D01*
X101020666Y-116038380D01*
X101115904Y-116086000D01*
X101163523Y-116133619D01*
X101211142Y-116228857D01*
X101211142Y-116371714D01*
X101163523Y-116466952D01*
X101115904Y-116514571D01*
X101020666Y-116562190D01*
X100639714Y-116562190D01*
X102068285Y-116371714D02*
X102068285Y-117038380D01*
X101830190Y-115990761D02*
X101592095Y-116705047D01*
X102211142Y-116705047D01*
X102782571Y-116038380D02*
X102877809Y-116038380D01*
X102973047Y-116086000D01*
X103020666Y-116133619D01*
X103068285Y-116228857D01*
X103115904Y-116419333D01*
X103115904Y-116657428D01*
X103068285Y-116847904D01*
X103020666Y-116943142D01*
X102973047Y-116990761D01*
X102877809Y-117038380D01*
X102782571Y-117038380D01*
X102687333Y-116990761D01*
X102639714Y-116943142D01*
X102592095Y-116847904D01*
X102544476Y-116657428D01*
X102544476Y-116419333D01*
X102592095Y-116228857D01*
X102639714Y-116133619D01*
X102687333Y-116086000D01*
X102782571Y-116038380D01*
%TO.C,R26*%
X129913142Y-104338380D02*
X129579809Y-103862190D01*
X129341714Y-104338380D02*
X129341714Y-103338380D01*
X129722666Y-103338380D01*
X129817904Y-103386000D01*
X129865523Y-103433619D01*
X129913142Y-103528857D01*
X129913142Y-103671714D01*
X129865523Y-103766952D01*
X129817904Y-103814571D01*
X129722666Y-103862190D01*
X129341714Y-103862190D01*
X130294095Y-103433619D02*
X130341714Y-103386000D01*
X130436952Y-103338380D01*
X130675047Y-103338380D01*
X130770285Y-103386000D01*
X130817904Y-103433619D01*
X130865523Y-103528857D01*
X130865523Y-103624095D01*
X130817904Y-103766952D01*
X130246476Y-104338380D01*
X130865523Y-104338380D01*
X131722666Y-103338380D02*
X131532190Y-103338380D01*
X131436952Y-103386000D01*
X131389333Y-103433619D01*
X131294095Y-103576476D01*
X131246476Y-103766952D01*
X131246476Y-104147904D01*
X131294095Y-104243142D01*
X131341714Y-104290761D01*
X131436952Y-104338380D01*
X131627428Y-104338380D01*
X131722666Y-104290761D01*
X131770285Y-104243142D01*
X131817904Y-104147904D01*
X131817904Y-103909809D01*
X131770285Y-103814571D01*
X131722666Y-103766952D01*
X131627428Y-103719333D01*
X131436952Y-103719333D01*
X131341714Y-103766952D01*
X131294095Y-103814571D01*
X131246476Y-103909809D01*
%TO.C,R3*%
X166711333Y-80970380D02*
X166378000Y-80494190D01*
X166139904Y-80970380D02*
X166139904Y-79970380D01*
X166520857Y-79970380D01*
X166616095Y-80018000D01*
X166663714Y-80065619D01*
X166711333Y-80160857D01*
X166711333Y-80303714D01*
X166663714Y-80398952D01*
X166616095Y-80446571D01*
X166520857Y-80494190D01*
X166139904Y-80494190D01*
X167044666Y-79970380D02*
X167663714Y-79970380D01*
X167330380Y-80351333D01*
X167473238Y-80351333D01*
X167568476Y-80398952D01*
X167616095Y-80446571D01*
X167663714Y-80541809D01*
X167663714Y-80779904D01*
X167616095Y-80875142D01*
X167568476Y-80922761D01*
X167473238Y-80970380D01*
X167187523Y-80970380D01*
X167092285Y-80922761D01*
X167044666Y-80875142D01*
%TO.C,R35*%
X107307142Y-79700380D02*
X106973809Y-79224190D01*
X106735714Y-79700380D02*
X106735714Y-78700380D01*
X107116666Y-78700380D01*
X107211904Y-78748000D01*
X107259523Y-78795619D01*
X107307142Y-78890857D01*
X107307142Y-79033714D01*
X107259523Y-79128952D01*
X107211904Y-79176571D01*
X107116666Y-79224190D01*
X106735714Y-79224190D01*
X107640476Y-78700380D02*
X108259523Y-78700380D01*
X107926190Y-79081333D01*
X108069047Y-79081333D01*
X108164285Y-79128952D01*
X108211904Y-79176571D01*
X108259523Y-79271809D01*
X108259523Y-79509904D01*
X108211904Y-79605142D01*
X108164285Y-79652761D01*
X108069047Y-79700380D01*
X107783333Y-79700380D01*
X107688095Y-79652761D01*
X107640476Y-79605142D01*
X109164285Y-78700380D02*
X108688095Y-78700380D01*
X108640476Y-79176571D01*
X108688095Y-79128952D01*
X108783333Y-79081333D01*
X109021428Y-79081333D01*
X109116666Y-79128952D01*
X109164285Y-79176571D01*
X109211904Y-79271809D01*
X109211904Y-79509904D01*
X109164285Y-79605142D01*
X109116666Y-79652761D01*
X109021428Y-79700380D01*
X108783333Y-79700380D01*
X108688095Y-79652761D01*
X108640476Y-79605142D01*
%TO.C,Q6*%
X116765619Y-78073238D02*
X116718000Y-78168476D01*
X116622761Y-78263714D01*
X116479904Y-78406571D01*
X116432285Y-78501809D01*
X116432285Y-78597047D01*
X116670380Y-78549428D02*
X116622761Y-78644666D01*
X116527523Y-78739904D01*
X116337047Y-78787523D01*
X116003714Y-78787523D01*
X115813238Y-78739904D01*
X115718000Y-78644666D01*
X115670380Y-78549428D01*
X115670380Y-78358952D01*
X115718000Y-78263714D01*
X115813238Y-78168476D01*
X116003714Y-78120857D01*
X116337047Y-78120857D01*
X116527523Y-78168476D01*
X116622761Y-78263714D01*
X116670380Y-78358952D01*
X116670380Y-78549428D01*
X115670380Y-77263714D02*
X115670380Y-77454190D01*
X115718000Y-77549428D01*
X115765619Y-77597047D01*
X115908476Y-77692285D01*
X116098952Y-77739904D01*
X116479904Y-77739904D01*
X116575142Y-77692285D01*
X116622761Y-77644666D01*
X116670380Y-77549428D01*
X116670380Y-77358952D01*
X116622761Y-77263714D01*
X116575142Y-77216095D01*
X116479904Y-77168476D01*
X116241809Y-77168476D01*
X116146571Y-77216095D01*
X116098952Y-77263714D01*
X116051333Y-77358952D01*
X116051333Y-77549428D01*
X116098952Y-77644666D01*
X116146571Y-77692285D01*
X116241809Y-77739904D01*
%TO.C,J6*%
X136318666Y-76878380D02*
X136318666Y-77592666D01*
X136271047Y-77735523D01*
X136175809Y-77830761D01*
X136032952Y-77878380D01*
X135937714Y-77878380D01*
X137223428Y-76878380D02*
X137032952Y-76878380D01*
X136937714Y-76926000D01*
X136890095Y-76973619D01*
X136794857Y-77116476D01*
X136747238Y-77306952D01*
X136747238Y-77687904D01*
X136794857Y-77783142D01*
X136842476Y-77830761D01*
X136937714Y-77878380D01*
X137128190Y-77878380D01*
X137223428Y-77830761D01*
X137271047Y-77783142D01*
X137318666Y-77687904D01*
X137318666Y-77449809D01*
X137271047Y-77354571D01*
X137223428Y-77306952D01*
X137128190Y-77259333D01*
X136937714Y-77259333D01*
X136842476Y-77306952D01*
X136794857Y-77354571D01*
X136747238Y-77449809D01*
%TO.C,R44*%
X101211142Y-108910380D02*
X100877809Y-108434190D01*
X100639714Y-108910380D02*
X100639714Y-107910380D01*
X101020666Y-107910380D01*
X101115904Y-107958000D01*
X101163523Y-108005619D01*
X101211142Y-108100857D01*
X101211142Y-108243714D01*
X101163523Y-108338952D01*
X101115904Y-108386571D01*
X101020666Y-108434190D01*
X100639714Y-108434190D01*
X102068285Y-108243714D02*
X102068285Y-108910380D01*
X101830190Y-107862761D02*
X101592095Y-108577047D01*
X102211142Y-108577047D01*
X103020666Y-108243714D02*
X103020666Y-108910380D01*
X102782571Y-107862761D02*
X102544476Y-108577047D01*
X103163523Y-108577047D01*
%TO.C,R14*%
X129913142Y-86050380D02*
X129579809Y-85574190D01*
X129341714Y-86050380D02*
X129341714Y-85050380D01*
X129722666Y-85050380D01*
X129817904Y-85098000D01*
X129865523Y-85145619D01*
X129913142Y-85240857D01*
X129913142Y-85383714D01*
X129865523Y-85478952D01*
X129817904Y-85526571D01*
X129722666Y-85574190D01*
X129341714Y-85574190D01*
X130865523Y-86050380D02*
X130294095Y-86050380D01*
X130579809Y-86050380D02*
X130579809Y-85050380D01*
X130484571Y-85193238D01*
X130389333Y-85288476D01*
X130294095Y-85336095D01*
X131722666Y-85383714D02*
X131722666Y-86050380D01*
X131484571Y-85002761D02*
X131246476Y-85717047D01*
X131865523Y-85717047D01*
%TO.C,R25*%
X129913142Y-106370380D02*
X129579809Y-105894190D01*
X129341714Y-106370380D02*
X129341714Y-105370380D01*
X129722666Y-105370380D01*
X129817904Y-105418000D01*
X129865523Y-105465619D01*
X129913142Y-105560857D01*
X129913142Y-105703714D01*
X129865523Y-105798952D01*
X129817904Y-105846571D01*
X129722666Y-105894190D01*
X129341714Y-105894190D01*
X130294095Y-105465619D02*
X130341714Y-105418000D01*
X130436952Y-105370380D01*
X130675047Y-105370380D01*
X130770285Y-105418000D01*
X130817904Y-105465619D01*
X130865523Y-105560857D01*
X130865523Y-105656095D01*
X130817904Y-105798952D01*
X130246476Y-106370380D01*
X130865523Y-106370380D01*
X131770285Y-105370380D02*
X131294095Y-105370380D01*
X131246476Y-105846571D01*
X131294095Y-105798952D01*
X131389333Y-105751333D01*
X131627428Y-105751333D01*
X131722666Y-105798952D01*
X131770285Y-105846571D01*
X131817904Y-105941809D01*
X131817904Y-106179904D01*
X131770285Y-106275142D01*
X131722666Y-106322761D01*
X131627428Y-106370380D01*
X131389333Y-106370380D01*
X131294095Y-106322761D01*
X131246476Y-106275142D01*
%TO.C,R12*%
X165219142Y-110942380D02*
X164885809Y-110466190D01*
X164647714Y-110942380D02*
X164647714Y-109942380D01*
X165028666Y-109942380D01*
X165123904Y-109990000D01*
X165171523Y-110037619D01*
X165219142Y-110132857D01*
X165219142Y-110275714D01*
X165171523Y-110370952D01*
X165123904Y-110418571D01*
X165028666Y-110466190D01*
X164647714Y-110466190D01*
X166171523Y-110942380D02*
X165600095Y-110942380D01*
X165885809Y-110942380D02*
X165885809Y-109942380D01*
X165790571Y-110085238D01*
X165695333Y-110180476D01*
X165600095Y-110228095D01*
X166552476Y-110037619D02*
X166600095Y-109990000D01*
X166695333Y-109942380D01*
X166933428Y-109942380D01*
X167028666Y-109990000D01*
X167076285Y-110037619D01*
X167123904Y-110132857D01*
X167123904Y-110228095D01*
X167076285Y-110370952D01*
X166504857Y-110942380D01*
X167123904Y-110942380D01*
%TO.C,R43*%
X101211142Y-110942380D02*
X100877809Y-110466190D01*
X100639714Y-110942380D02*
X100639714Y-109942380D01*
X101020666Y-109942380D01*
X101115904Y-109990000D01*
X101163523Y-110037619D01*
X101211142Y-110132857D01*
X101211142Y-110275714D01*
X101163523Y-110370952D01*
X101115904Y-110418571D01*
X101020666Y-110466190D01*
X100639714Y-110466190D01*
X102068285Y-110275714D02*
X102068285Y-110942380D01*
X101830190Y-109894761D02*
X101592095Y-110609047D01*
X102211142Y-110609047D01*
X102496857Y-109942380D02*
X103115904Y-109942380D01*
X102782571Y-110323333D01*
X102925428Y-110323333D01*
X103020666Y-110370952D01*
X103068285Y-110418571D01*
X103115904Y-110513809D01*
X103115904Y-110751904D01*
X103068285Y-110847142D01*
X103020666Y-110894761D01*
X102925428Y-110942380D01*
X102639714Y-110942380D01*
X102544476Y-110894761D01*
X102496857Y-110847142D01*
%TO.C,R42*%
X101107642Y-112974380D02*
X100774309Y-112498190D01*
X100536214Y-112974380D02*
X100536214Y-111974380D01*
X100917166Y-111974380D01*
X101012404Y-112022000D01*
X101060023Y-112069619D01*
X101107642Y-112164857D01*
X101107642Y-112307714D01*
X101060023Y-112402952D01*
X101012404Y-112450571D01*
X100917166Y-112498190D01*
X100536214Y-112498190D01*
X101964785Y-112307714D02*
X101964785Y-112974380D01*
X101726690Y-111926761D02*
X101488595Y-112641047D01*
X102107642Y-112641047D01*
X102440976Y-112069619D02*
X102488595Y-112022000D01*
X102583833Y-111974380D01*
X102821928Y-111974380D01*
X102917166Y-112022000D01*
X102964785Y-112069619D01*
X103012404Y-112164857D01*
X103012404Y-112260095D01*
X102964785Y-112402952D01*
X102393357Y-112974380D01*
X103012404Y-112974380D01*
%TO.C,R21*%
X130018142Y-100274380D02*
X129684809Y-99798190D01*
X129446714Y-100274380D02*
X129446714Y-99274380D01*
X129827666Y-99274380D01*
X129922904Y-99322000D01*
X129970523Y-99369619D01*
X130018142Y-99464857D01*
X130018142Y-99607714D01*
X129970523Y-99702952D01*
X129922904Y-99750571D01*
X129827666Y-99798190D01*
X129446714Y-99798190D01*
X130399095Y-99369619D02*
X130446714Y-99322000D01*
X130541952Y-99274380D01*
X130780047Y-99274380D01*
X130875285Y-99322000D01*
X130922904Y-99369619D01*
X130970523Y-99464857D01*
X130970523Y-99560095D01*
X130922904Y-99702952D01*
X130351476Y-100274380D01*
X130970523Y-100274380D01*
X131922904Y-100274380D02*
X131351476Y-100274380D01*
X131637190Y-100274380D02*
X131637190Y-99274380D01*
X131541952Y-99417238D01*
X131446714Y-99512476D01*
X131351476Y-99560095D01*
%TO.C,Q4*%
X116765619Y-86201238D02*
X116718000Y-86296476D01*
X116622761Y-86391714D01*
X116479904Y-86534571D01*
X116432285Y-86629809D01*
X116432285Y-86725047D01*
X116670380Y-86677428D02*
X116622761Y-86772666D01*
X116527523Y-86867904D01*
X116337047Y-86915523D01*
X116003714Y-86915523D01*
X115813238Y-86867904D01*
X115718000Y-86772666D01*
X115670380Y-86677428D01*
X115670380Y-86486952D01*
X115718000Y-86391714D01*
X115813238Y-86296476D01*
X116003714Y-86248857D01*
X116337047Y-86248857D01*
X116527523Y-86296476D01*
X116622761Y-86391714D01*
X116670380Y-86486952D01*
X116670380Y-86677428D01*
X116003714Y-85391714D02*
X116670380Y-85391714D01*
X115622761Y-85629809D02*
X116337047Y-85867904D01*
X116337047Y-85248857D01*
%TO.C,R11*%
X165219142Y-112974380D02*
X164885809Y-112498190D01*
X164647714Y-112974380D02*
X164647714Y-111974380D01*
X165028666Y-111974380D01*
X165123904Y-112022000D01*
X165171523Y-112069619D01*
X165219142Y-112164857D01*
X165219142Y-112307714D01*
X165171523Y-112402952D01*
X165123904Y-112450571D01*
X165028666Y-112498190D01*
X164647714Y-112498190D01*
X166171523Y-112974380D02*
X165600095Y-112974380D01*
X165885809Y-112974380D02*
X165885809Y-111974380D01*
X165790571Y-112117238D01*
X165695333Y-112212476D01*
X165600095Y-112260095D01*
X167123904Y-112974380D02*
X166552476Y-112974380D01*
X166838190Y-112974380D02*
X166838190Y-111974380D01*
X166742952Y-112117238D01*
X166647714Y-112212476D01*
X166552476Y-112260095D01*
%TO.C,R45*%
X101211142Y-106878380D02*
X100877809Y-106402190D01*
X100639714Y-106878380D02*
X100639714Y-105878380D01*
X101020666Y-105878380D01*
X101115904Y-105926000D01*
X101163523Y-105973619D01*
X101211142Y-106068857D01*
X101211142Y-106211714D01*
X101163523Y-106306952D01*
X101115904Y-106354571D01*
X101020666Y-106402190D01*
X100639714Y-106402190D01*
X102068285Y-106211714D02*
X102068285Y-106878380D01*
X101830190Y-105830761D02*
X101592095Y-106545047D01*
X102211142Y-106545047D01*
X103068285Y-105878380D02*
X102592095Y-105878380D01*
X102544476Y-106354571D01*
X102592095Y-106306952D01*
X102687333Y-106259333D01*
X102925428Y-106259333D01*
X103020666Y-106306952D01*
X103068285Y-106354571D01*
X103115904Y-106449809D01*
X103115904Y-106687904D01*
X103068285Y-106783142D01*
X103020666Y-106830761D01*
X102925428Y-106878380D01*
X102687333Y-106878380D01*
X102592095Y-106830761D01*
X102544476Y-106783142D01*
%TO.C,J4*%
X180514666Y-119076380D02*
X180514666Y-119790666D01*
X180467047Y-119933523D01*
X180371809Y-120028761D01*
X180228952Y-120076380D01*
X180133714Y-120076380D01*
X181419428Y-119409714D02*
X181419428Y-120076380D01*
X181181333Y-119028761D02*
X180943238Y-119743047D01*
X181562285Y-119743047D01*
%TO.C,R33*%
X129913142Y-114498380D02*
X129579809Y-114022190D01*
X129341714Y-114498380D02*
X129341714Y-113498380D01*
X129722666Y-113498380D01*
X129817904Y-113546000D01*
X129865523Y-113593619D01*
X129913142Y-113688857D01*
X129913142Y-113831714D01*
X129865523Y-113926952D01*
X129817904Y-113974571D01*
X129722666Y-114022190D01*
X129341714Y-114022190D01*
X130246476Y-113498380D02*
X130865523Y-113498380D01*
X130532190Y-113879333D01*
X130675047Y-113879333D01*
X130770285Y-113926952D01*
X130817904Y-113974571D01*
X130865523Y-114069809D01*
X130865523Y-114307904D01*
X130817904Y-114403142D01*
X130770285Y-114450761D01*
X130675047Y-114498380D01*
X130389333Y-114498380D01*
X130294095Y-114450761D01*
X130246476Y-114403142D01*
X131198857Y-113498380D02*
X131817904Y-113498380D01*
X131484571Y-113879333D01*
X131627428Y-113879333D01*
X131722666Y-113926952D01*
X131770285Y-113974571D01*
X131817904Y-114069809D01*
X131817904Y-114307904D01*
X131770285Y-114403142D01*
X131722666Y-114450761D01*
X131627428Y-114498380D01*
X131341714Y-114498380D01*
X131246476Y-114450761D01*
X131198857Y-114403142D01*
%TO.C,R16*%
X129913142Y-90114380D02*
X129579809Y-89638190D01*
X129341714Y-90114380D02*
X129341714Y-89114380D01*
X129722666Y-89114380D01*
X129817904Y-89162000D01*
X129865523Y-89209619D01*
X129913142Y-89304857D01*
X129913142Y-89447714D01*
X129865523Y-89542952D01*
X129817904Y-89590571D01*
X129722666Y-89638190D01*
X129341714Y-89638190D01*
X130865523Y-90114380D02*
X130294095Y-90114380D01*
X130579809Y-90114380D02*
X130579809Y-89114380D01*
X130484571Y-89257238D01*
X130389333Y-89352476D01*
X130294095Y-89400095D01*
X131722666Y-89114380D02*
X131532190Y-89114380D01*
X131436952Y-89162000D01*
X131389333Y-89209619D01*
X131294095Y-89352476D01*
X131246476Y-89542952D01*
X131246476Y-89923904D01*
X131294095Y-90019142D01*
X131341714Y-90066761D01*
X131436952Y-90114380D01*
X131627428Y-90114380D01*
X131722666Y-90066761D01*
X131770285Y-90019142D01*
X131817904Y-89923904D01*
X131817904Y-89685809D01*
X131770285Y-89590571D01*
X131722666Y-89542952D01*
X131627428Y-89495333D01*
X131436952Y-89495333D01*
X131341714Y-89542952D01*
X131294095Y-89590571D01*
X131246476Y-89685809D01*
%TO.C,J9*%
X148256666Y-119394380D02*
X148256666Y-120108666D01*
X148209047Y-120251523D01*
X148113809Y-120346761D01*
X147970952Y-120394380D01*
X147875714Y-120394380D01*
X148780476Y-120394380D02*
X148970952Y-120394380D01*
X149066190Y-120346761D01*
X149113809Y-120299142D01*
X149209047Y-120156285D01*
X149256666Y-119965809D01*
X149256666Y-119584857D01*
X149209047Y-119489619D01*
X149161428Y-119442000D01*
X149066190Y-119394380D01*
X148875714Y-119394380D01*
X148780476Y-119442000D01*
X148732857Y-119489619D01*
X148685238Y-119584857D01*
X148685238Y-119822952D01*
X148732857Y-119918190D01*
X148780476Y-119965809D01*
X148875714Y-120013428D01*
X149066190Y-120013428D01*
X149161428Y-119965809D01*
X149209047Y-119918190D01*
X149256666Y-119822952D01*
%TO.C,J10*%
X141938476Y-119384380D02*
X141938476Y-120098666D01*
X141890857Y-120241523D01*
X141795619Y-120336761D01*
X141652761Y-120384380D01*
X141557523Y-120384380D01*
X142938476Y-120384380D02*
X142367047Y-120384380D01*
X142652761Y-120384380D02*
X142652761Y-119384380D01*
X142557523Y-119527238D01*
X142462285Y-119622476D01*
X142367047Y-119670095D01*
X143557523Y-119384380D02*
X143652761Y-119384380D01*
X143748000Y-119432000D01*
X143795619Y-119479619D01*
X143843238Y-119574857D01*
X143890857Y-119765333D01*
X143890857Y-120003428D01*
X143843238Y-120193904D01*
X143795619Y-120289142D01*
X143748000Y-120336761D01*
X143652761Y-120384380D01*
X143557523Y-120384380D01*
X143462285Y-120336761D01*
X143414666Y-120289142D01*
X143367047Y-120193904D01*
X143319428Y-120003428D01*
X143319428Y-119765333D01*
X143367047Y-119574857D01*
X143414666Y-119479619D01*
X143462285Y-119432000D01*
X143557523Y-119384380D01*
%TO.C,R23*%
X127119142Y-79954380D02*
X126785809Y-79478190D01*
X126547714Y-79954380D02*
X126547714Y-78954380D01*
X126928666Y-78954380D01*
X127023904Y-79002000D01*
X127071523Y-79049619D01*
X127119142Y-79144857D01*
X127119142Y-79287714D01*
X127071523Y-79382952D01*
X127023904Y-79430571D01*
X126928666Y-79478190D01*
X126547714Y-79478190D01*
X127500095Y-79049619D02*
X127547714Y-79002000D01*
X127642952Y-78954380D01*
X127881047Y-78954380D01*
X127976285Y-79002000D01*
X128023904Y-79049619D01*
X128071523Y-79144857D01*
X128071523Y-79240095D01*
X128023904Y-79382952D01*
X127452476Y-79954380D01*
X128071523Y-79954380D01*
X128404857Y-78954380D02*
X129023904Y-78954380D01*
X128690571Y-79335333D01*
X128833428Y-79335333D01*
X128928666Y-79382952D01*
X128976285Y-79430571D01*
X129023904Y-79525809D01*
X129023904Y-79763904D01*
X128976285Y-79859142D01*
X128928666Y-79906761D01*
X128833428Y-79954380D01*
X128547714Y-79954380D01*
X128452476Y-79906761D01*
X128404857Y-79859142D01*
%TO.C,J14*%
X115776476Y-119374380D02*
X115776476Y-120088666D01*
X115728857Y-120231523D01*
X115633619Y-120326761D01*
X115490761Y-120374380D01*
X115395523Y-120374380D01*
X116776476Y-120374380D02*
X116205047Y-120374380D01*
X116490761Y-120374380D02*
X116490761Y-119374380D01*
X116395523Y-119517238D01*
X116300285Y-119612476D01*
X116205047Y-119660095D01*
X117633619Y-119707714D02*
X117633619Y-120374380D01*
X117395523Y-119326761D02*
X117157428Y-120041047D01*
X117776476Y-120041047D01*
%TO.C,R6*%
X165187333Y-104846380D02*
X164854000Y-104370190D01*
X164615904Y-104846380D02*
X164615904Y-103846380D01*
X164996857Y-103846380D01*
X165092095Y-103894000D01*
X165139714Y-103941619D01*
X165187333Y-104036857D01*
X165187333Y-104179714D01*
X165139714Y-104274952D01*
X165092095Y-104322571D01*
X164996857Y-104370190D01*
X164615904Y-104370190D01*
X166044476Y-103846380D02*
X165854000Y-103846380D01*
X165758761Y-103894000D01*
X165711142Y-103941619D01*
X165615904Y-104084476D01*
X165568285Y-104274952D01*
X165568285Y-104655904D01*
X165615904Y-104751142D01*
X165663523Y-104798761D01*
X165758761Y-104846380D01*
X165949238Y-104846380D01*
X166044476Y-104798761D01*
X166092095Y-104751142D01*
X166139714Y-104655904D01*
X166139714Y-104417809D01*
X166092095Y-104322571D01*
X166044476Y-104274952D01*
X165949238Y-104227333D01*
X165758761Y-104227333D01*
X165663523Y-104274952D01*
X165615904Y-104322571D01*
X165568285Y-104417809D01*
%TO.C,J7*%
X141906666Y-76878380D02*
X141906666Y-77592666D01*
X141859047Y-77735523D01*
X141763809Y-77830761D01*
X141620952Y-77878380D01*
X141525714Y-77878380D01*
X142287619Y-76878380D02*
X142954285Y-76878380D01*
X142525714Y-77878380D01*
%TO.C,J13*%
X110950476Y-119374380D02*
X110950476Y-120088666D01*
X110902857Y-120231523D01*
X110807619Y-120326761D01*
X110664761Y-120374380D01*
X110569523Y-120374380D01*
X111950476Y-120374380D02*
X111379047Y-120374380D01*
X111664761Y-120374380D02*
X111664761Y-119374380D01*
X111569523Y-119517238D01*
X111474285Y-119612476D01*
X111379047Y-119660095D01*
X112283809Y-119374380D02*
X112902857Y-119374380D01*
X112569523Y-119755333D01*
X112712380Y-119755333D01*
X112807619Y-119802952D01*
X112855238Y-119850571D01*
X112902857Y-119945809D01*
X112902857Y-120183904D01*
X112855238Y-120279142D01*
X112807619Y-120326761D01*
X112712380Y-120374380D01*
X112426666Y-120374380D01*
X112331428Y-120326761D01*
X112283809Y-120279142D01*
%TO.C,R31*%
X129913142Y-118562380D02*
X129579809Y-118086190D01*
X129341714Y-118562380D02*
X129341714Y-117562380D01*
X129722666Y-117562380D01*
X129817904Y-117610000D01*
X129865523Y-117657619D01*
X129913142Y-117752857D01*
X129913142Y-117895714D01*
X129865523Y-117990952D01*
X129817904Y-118038571D01*
X129722666Y-118086190D01*
X129341714Y-118086190D01*
X130246476Y-117562380D02*
X130865523Y-117562380D01*
X130532190Y-117943333D01*
X130675047Y-117943333D01*
X130770285Y-117990952D01*
X130817904Y-118038571D01*
X130865523Y-118133809D01*
X130865523Y-118371904D01*
X130817904Y-118467142D01*
X130770285Y-118514761D01*
X130675047Y-118562380D01*
X130389333Y-118562380D01*
X130294095Y-118514761D01*
X130246476Y-118467142D01*
X131817904Y-118562380D02*
X131246476Y-118562380D01*
X131532190Y-118562380D02*
X131532190Y-117562380D01*
X131436952Y-117705238D01*
X131341714Y-117800476D01*
X131246476Y-117848095D01*
%TO.C,R34*%
X107307142Y-81732380D02*
X106973809Y-81256190D01*
X106735714Y-81732380D02*
X106735714Y-80732380D01*
X107116666Y-80732380D01*
X107211904Y-80780000D01*
X107259523Y-80827619D01*
X107307142Y-80922857D01*
X107307142Y-81065714D01*
X107259523Y-81160952D01*
X107211904Y-81208571D01*
X107116666Y-81256190D01*
X106735714Y-81256190D01*
X107640476Y-80732380D02*
X108259523Y-80732380D01*
X107926190Y-81113333D01*
X108069047Y-81113333D01*
X108164285Y-81160952D01*
X108211904Y-81208571D01*
X108259523Y-81303809D01*
X108259523Y-81541904D01*
X108211904Y-81637142D01*
X108164285Y-81684761D01*
X108069047Y-81732380D01*
X107783333Y-81732380D01*
X107688095Y-81684761D01*
X107640476Y-81637142D01*
X109116666Y-81065714D02*
X109116666Y-81732380D01*
X108878571Y-80684761D02*
X108640476Y-81399047D01*
X109259523Y-81399047D01*
%TO.C,R28*%
X129913142Y-112466380D02*
X129579809Y-111990190D01*
X129341714Y-112466380D02*
X129341714Y-111466380D01*
X129722666Y-111466380D01*
X129817904Y-111514000D01*
X129865523Y-111561619D01*
X129913142Y-111656857D01*
X129913142Y-111799714D01*
X129865523Y-111894952D01*
X129817904Y-111942571D01*
X129722666Y-111990190D01*
X129341714Y-111990190D01*
X130294095Y-111561619D02*
X130341714Y-111514000D01*
X130436952Y-111466380D01*
X130675047Y-111466380D01*
X130770285Y-111514000D01*
X130817904Y-111561619D01*
X130865523Y-111656857D01*
X130865523Y-111752095D01*
X130817904Y-111894952D01*
X130246476Y-112466380D01*
X130865523Y-112466380D01*
X131436952Y-111894952D02*
X131341714Y-111847333D01*
X131294095Y-111799714D01*
X131246476Y-111704476D01*
X131246476Y-111656857D01*
X131294095Y-111561619D01*
X131341714Y-111514000D01*
X131436952Y-111466380D01*
X131627428Y-111466380D01*
X131722666Y-111514000D01*
X131770285Y-111561619D01*
X131817904Y-111656857D01*
X131817904Y-111704476D01*
X131770285Y-111799714D01*
X131722666Y-111847333D01*
X131627428Y-111894952D01*
X131436952Y-111894952D01*
X131341714Y-111942571D01*
X131294095Y-111990190D01*
X131246476Y-112085428D01*
X131246476Y-112275904D01*
X131294095Y-112371142D01*
X131341714Y-112418761D01*
X131436952Y-112466380D01*
X131627428Y-112466380D01*
X131722666Y-112418761D01*
X131770285Y-112371142D01*
X131817904Y-112275904D01*
X131817904Y-112085428D01*
X131770285Y-111990190D01*
X131722666Y-111942571D01*
X131627428Y-111894952D01*
%TO.C,Q2*%
X158929619Y-83915238D02*
X158882000Y-84010476D01*
X158786761Y-84105714D01*
X158643904Y-84248571D01*
X158596285Y-84343809D01*
X158596285Y-84439047D01*
X158834380Y-84391428D02*
X158786761Y-84486666D01*
X158691523Y-84581904D01*
X158501047Y-84629523D01*
X158167714Y-84629523D01*
X157977238Y-84581904D01*
X157882000Y-84486666D01*
X157834380Y-84391428D01*
X157834380Y-84200952D01*
X157882000Y-84105714D01*
X157977238Y-84010476D01*
X158167714Y-83962857D01*
X158501047Y-83962857D01*
X158691523Y-84010476D01*
X158786761Y-84105714D01*
X158834380Y-84200952D01*
X158834380Y-84391428D01*
X157929619Y-83581904D02*
X157882000Y-83534285D01*
X157834380Y-83439047D01*
X157834380Y-83200952D01*
X157882000Y-83105714D01*
X157929619Y-83058095D01*
X158024857Y-83010476D01*
X158120095Y-83010476D01*
X158262952Y-83058095D01*
X158834380Y-83629523D01*
X158834380Y-83010476D01*
%TO.C,R18*%
X129913142Y-94178380D02*
X129579809Y-93702190D01*
X129341714Y-94178380D02*
X129341714Y-93178380D01*
X129722666Y-93178380D01*
X129817904Y-93226000D01*
X129865523Y-93273619D01*
X129913142Y-93368857D01*
X129913142Y-93511714D01*
X129865523Y-93606952D01*
X129817904Y-93654571D01*
X129722666Y-93702190D01*
X129341714Y-93702190D01*
X130865523Y-94178380D02*
X130294095Y-94178380D01*
X130579809Y-94178380D02*
X130579809Y-93178380D01*
X130484571Y-93321238D01*
X130389333Y-93416476D01*
X130294095Y-93464095D01*
X131436952Y-93606952D02*
X131341714Y-93559333D01*
X131294095Y-93511714D01*
X131246476Y-93416476D01*
X131246476Y-93368857D01*
X131294095Y-93273619D01*
X131341714Y-93226000D01*
X131436952Y-93178380D01*
X131627428Y-93178380D01*
X131722666Y-93226000D01*
X131770285Y-93273619D01*
X131817904Y-93368857D01*
X131817904Y-93416476D01*
X131770285Y-93511714D01*
X131722666Y-93559333D01*
X131627428Y-93606952D01*
X131436952Y-93606952D01*
X131341714Y-93654571D01*
X131294095Y-93702190D01*
X131246476Y-93797428D01*
X131246476Y-93987904D01*
X131294095Y-94083142D01*
X131341714Y-94130761D01*
X131436952Y-94178380D01*
X131627428Y-94178380D01*
X131722666Y-94130761D01*
X131770285Y-94083142D01*
X131817904Y-93987904D01*
X131817904Y-93797428D01*
X131770285Y-93702190D01*
X131722666Y-93654571D01*
X131627428Y-93606952D01*
%TO.C,R36*%
X107307142Y-77668380D02*
X106973809Y-77192190D01*
X106735714Y-77668380D02*
X106735714Y-76668380D01*
X107116666Y-76668380D01*
X107211904Y-76716000D01*
X107259523Y-76763619D01*
X107307142Y-76858857D01*
X107307142Y-77001714D01*
X107259523Y-77096952D01*
X107211904Y-77144571D01*
X107116666Y-77192190D01*
X106735714Y-77192190D01*
X107640476Y-76668380D02*
X108259523Y-76668380D01*
X107926190Y-77049333D01*
X108069047Y-77049333D01*
X108164285Y-77096952D01*
X108211904Y-77144571D01*
X108259523Y-77239809D01*
X108259523Y-77477904D01*
X108211904Y-77573142D01*
X108164285Y-77620761D01*
X108069047Y-77668380D01*
X107783333Y-77668380D01*
X107688095Y-77620761D01*
X107640476Y-77573142D01*
X109116666Y-76668380D02*
X108926190Y-76668380D01*
X108830952Y-76716000D01*
X108783333Y-76763619D01*
X108688095Y-76906476D01*
X108640476Y-77096952D01*
X108640476Y-77477904D01*
X108688095Y-77573142D01*
X108735714Y-77620761D01*
X108830952Y-77668380D01*
X109021428Y-77668380D01*
X109116666Y-77620761D01*
X109164285Y-77573142D01*
X109211904Y-77477904D01*
X109211904Y-77239809D01*
X109164285Y-77144571D01*
X109116666Y-77096952D01*
X109021428Y-77049333D01*
X108830952Y-77049333D01*
X108735714Y-77096952D01*
X108688095Y-77144571D01*
X108640476Y-77239809D01*
%TO.C,Q5*%
X116765619Y-82137238D02*
X116718000Y-82232476D01*
X116622761Y-82327714D01*
X116479904Y-82470571D01*
X116432285Y-82565809D01*
X116432285Y-82661047D01*
X116670380Y-82613428D02*
X116622761Y-82708666D01*
X116527523Y-82803904D01*
X116337047Y-82851523D01*
X116003714Y-82851523D01*
X115813238Y-82803904D01*
X115718000Y-82708666D01*
X115670380Y-82613428D01*
X115670380Y-82422952D01*
X115718000Y-82327714D01*
X115813238Y-82232476D01*
X116003714Y-82184857D01*
X116337047Y-82184857D01*
X116527523Y-82232476D01*
X116622761Y-82327714D01*
X116670380Y-82422952D01*
X116670380Y-82613428D01*
X115670380Y-81280095D02*
X115670380Y-81756285D01*
X116146571Y-81803904D01*
X116098952Y-81756285D01*
X116051333Y-81661047D01*
X116051333Y-81422952D01*
X116098952Y-81327714D01*
X116146571Y-81280095D01*
X116241809Y-81232476D01*
X116479904Y-81232476D01*
X116575142Y-81280095D01*
X116622761Y-81327714D01*
X116670380Y-81422952D01*
X116670380Y-81661047D01*
X116622761Y-81756285D01*
X116575142Y-81803904D01*
%TO.C,R38*%
X101211142Y-121102380D02*
X100877809Y-120626190D01*
X100639714Y-121102380D02*
X100639714Y-120102380D01*
X101020666Y-120102380D01*
X101115904Y-120150000D01*
X101163523Y-120197619D01*
X101211142Y-120292857D01*
X101211142Y-120435714D01*
X101163523Y-120530952D01*
X101115904Y-120578571D01*
X101020666Y-120626190D01*
X100639714Y-120626190D01*
X101544476Y-120102380D02*
X102163523Y-120102380D01*
X101830190Y-120483333D01*
X101973047Y-120483333D01*
X102068285Y-120530952D01*
X102115904Y-120578571D01*
X102163523Y-120673809D01*
X102163523Y-120911904D01*
X102115904Y-121007142D01*
X102068285Y-121054761D01*
X101973047Y-121102380D01*
X101687333Y-121102380D01*
X101592095Y-121054761D01*
X101544476Y-121007142D01*
X102734952Y-120530952D02*
X102639714Y-120483333D01*
X102592095Y-120435714D01*
X102544476Y-120340476D01*
X102544476Y-120292857D01*
X102592095Y-120197619D01*
X102639714Y-120150000D01*
X102734952Y-120102380D01*
X102925428Y-120102380D01*
X103020666Y-120150000D01*
X103068285Y-120197619D01*
X103115904Y-120292857D01*
X103115904Y-120340476D01*
X103068285Y-120435714D01*
X103020666Y-120483333D01*
X102925428Y-120530952D01*
X102734952Y-120530952D01*
X102639714Y-120578571D01*
X102592095Y-120626190D01*
X102544476Y-120721428D01*
X102544476Y-120911904D01*
X102592095Y-121007142D01*
X102639714Y-121054761D01*
X102734952Y-121102380D01*
X102925428Y-121102380D01*
X103020666Y-121054761D01*
X103068285Y-121007142D01*
X103115904Y-120911904D01*
X103115904Y-120721428D01*
X103068285Y-120626190D01*
X103020666Y-120578571D01*
X102925428Y-120530952D01*
%TO.C,R15*%
X129913142Y-88082380D02*
X129579809Y-87606190D01*
X129341714Y-88082380D02*
X129341714Y-87082380D01*
X129722666Y-87082380D01*
X129817904Y-87130000D01*
X129865523Y-87177619D01*
X129913142Y-87272857D01*
X129913142Y-87415714D01*
X129865523Y-87510952D01*
X129817904Y-87558571D01*
X129722666Y-87606190D01*
X129341714Y-87606190D01*
X130865523Y-88082380D02*
X130294095Y-88082380D01*
X130579809Y-88082380D02*
X130579809Y-87082380D01*
X130484571Y-87225238D01*
X130389333Y-87320476D01*
X130294095Y-87368095D01*
X131770285Y-87082380D02*
X131294095Y-87082380D01*
X131246476Y-87558571D01*
X131294095Y-87510952D01*
X131389333Y-87463333D01*
X131627428Y-87463333D01*
X131722666Y-87510952D01*
X131770285Y-87558571D01*
X131817904Y-87653809D01*
X131817904Y-87891904D01*
X131770285Y-87987142D01*
X131722666Y-88034761D01*
X131627428Y-88082380D01*
X131389333Y-88082380D01*
X131294095Y-88034761D01*
X131246476Y-87987142D01*
%TO.C,Q3*%
X158929619Y-79851238D02*
X158882000Y-79946476D01*
X158786761Y-80041714D01*
X158643904Y-80184571D01*
X158596285Y-80279809D01*
X158596285Y-80375047D01*
X158834380Y-80327428D02*
X158786761Y-80422666D01*
X158691523Y-80517904D01*
X158501047Y-80565523D01*
X158167714Y-80565523D01*
X157977238Y-80517904D01*
X157882000Y-80422666D01*
X157834380Y-80327428D01*
X157834380Y-80136952D01*
X157882000Y-80041714D01*
X157977238Y-79946476D01*
X158167714Y-79898857D01*
X158501047Y-79898857D01*
X158691523Y-79946476D01*
X158786761Y-80041714D01*
X158834380Y-80136952D01*
X158834380Y-80327428D01*
X157834380Y-79565523D02*
X157834380Y-78946476D01*
X158215333Y-79279809D01*
X158215333Y-79136952D01*
X158262952Y-79041714D01*
X158310571Y-78994095D01*
X158405809Y-78946476D01*
X158643904Y-78946476D01*
X158739142Y-78994095D01*
X158786761Y-79041714D01*
X158834380Y-79136952D01*
X158834380Y-79422666D01*
X158786761Y-79517904D01*
X158739142Y-79565523D01*
%TO.C,R8*%
X165187333Y-100782380D02*
X164854000Y-100306190D01*
X164615904Y-100782380D02*
X164615904Y-99782380D01*
X164996857Y-99782380D01*
X165092095Y-99830000D01*
X165139714Y-99877619D01*
X165187333Y-99972857D01*
X165187333Y-100115714D01*
X165139714Y-100210952D01*
X165092095Y-100258571D01*
X164996857Y-100306190D01*
X164615904Y-100306190D01*
X165758761Y-100210952D02*
X165663523Y-100163333D01*
X165615904Y-100115714D01*
X165568285Y-100020476D01*
X165568285Y-99972857D01*
X165615904Y-99877619D01*
X165663523Y-99830000D01*
X165758761Y-99782380D01*
X165949238Y-99782380D01*
X166044476Y-99830000D01*
X166092095Y-99877619D01*
X166139714Y-99972857D01*
X166139714Y-100020476D01*
X166092095Y-100115714D01*
X166044476Y-100163333D01*
X165949238Y-100210952D01*
X165758761Y-100210952D01*
X165663523Y-100258571D01*
X165615904Y-100306190D01*
X165568285Y-100401428D01*
X165568285Y-100591904D01*
X165615904Y-100687142D01*
X165663523Y-100734761D01*
X165758761Y-100782380D01*
X165949238Y-100782380D01*
X166044476Y-100734761D01*
X166092095Y-100687142D01*
X166139714Y-100591904D01*
X166139714Y-100401428D01*
X166092095Y-100306190D01*
X166044476Y-100258571D01*
X165949238Y-100210952D01*
%TO.C,R30*%
X129913142Y-108402380D02*
X129579809Y-107926190D01*
X129341714Y-108402380D02*
X129341714Y-107402380D01*
X129722666Y-107402380D01*
X129817904Y-107450000D01*
X129865523Y-107497619D01*
X129913142Y-107592857D01*
X129913142Y-107735714D01*
X129865523Y-107830952D01*
X129817904Y-107878571D01*
X129722666Y-107926190D01*
X129341714Y-107926190D01*
X130246476Y-107402380D02*
X130865523Y-107402380D01*
X130532190Y-107783333D01*
X130675047Y-107783333D01*
X130770285Y-107830952D01*
X130817904Y-107878571D01*
X130865523Y-107973809D01*
X130865523Y-108211904D01*
X130817904Y-108307142D01*
X130770285Y-108354761D01*
X130675047Y-108402380D01*
X130389333Y-108402380D01*
X130294095Y-108354761D01*
X130246476Y-108307142D01*
X131484571Y-107402380D02*
X131579809Y-107402380D01*
X131675047Y-107450000D01*
X131722666Y-107497619D01*
X131770285Y-107592857D01*
X131817904Y-107783333D01*
X131817904Y-108021428D01*
X131770285Y-108211904D01*
X131722666Y-108307142D01*
X131675047Y-108354761D01*
X131579809Y-108402380D01*
X131484571Y-108402380D01*
X131389333Y-108354761D01*
X131341714Y-108307142D01*
X131294095Y-108211904D01*
X131246476Y-108021428D01*
X131246476Y-107783333D01*
X131294095Y-107592857D01*
X131341714Y-107497619D01*
X131389333Y-107450000D01*
X131484571Y-107402380D01*
%TO.C,R39*%
X101107642Y-119070380D02*
X100774309Y-118594190D01*
X100536214Y-119070380D02*
X100536214Y-118070380D01*
X100917166Y-118070380D01*
X101012404Y-118118000D01*
X101060023Y-118165619D01*
X101107642Y-118260857D01*
X101107642Y-118403714D01*
X101060023Y-118498952D01*
X101012404Y-118546571D01*
X100917166Y-118594190D01*
X100536214Y-118594190D01*
X101440976Y-118070380D02*
X102060023Y-118070380D01*
X101726690Y-118451333D01*
X101869547Y-118451333D01*
X101964785Y-118498952D01*
X102012404Y-118546571D01*
X102060023Y-118641809D01*
X102060023Y-118879904D01*
X102012404Y-118975142D01*
X101964785Y-119022761D01*
X101869547Y-119070380D01*
X101583833Y-119070380D01*
X101488595Y-119022761D01*
X101440976Y-118975142D01*
X102536214Y-119070380D02*
X102726690Y-119070380D01*
X102821928Y-119022761D01*
X102869547Y-118975142D01*
X102964785Y-118832285D01*
X103012404Y-118641809D01*
X103012404Y-118260857D01*
X102964785Y-118165619D01*
X102917166Y-118118000D01*
X102821928Y-118070380D01*
X102631452Y-118070380D01*
X102536214Y-118118000D01*
X102488595Y-118165619D01*
X102440976Y-118260857D01*
X102440976Y-118498952D01*
X102488595Y-118594190D01*
X102536214Y-118641809D01*
X102631452Y-118689428D01*
X102821928Y-118689428D01*
X102917166Y-118641809D01*
X102964785Y-118594190D01*
X103012404Y-118498952D01*
%TO.C,J3*%
X174418666Y-119086380D02*
X174418666Y-119800666D01*
X174371047Y-119943523D01*
X174275809Y-120038761D01*
X174132952Y-120086380D01*
X174037714Y-120086380D01*
X174799619Y-119086380D02*
X175418666Y-119086380D01*
X175085333Y-119467333D01*
X175228190Y-119467333D01*
X175323428Y-119514952D01*
X175371047Y-119562571D01*
X175418666Y-119657809D01*
X175418666Y-119895904D01*
X175371047Y-119991142D01*
X175323428Y-120038761D01*
X175228190Y-120086380D01*
X174942476Y-120086380D01*
X174847238Y-120038761D01*
X174799619Y-119991142D01*
%TO.C,R24*%
X127119142Y-77922380D02*
X126785809Y-77446190D01*
X126547714Y-77922380D02*
X126547714Y-76922380D01*
X126928666Y-76922380D01*
X127023904Y-76970000D01*
X127071523Y-77017619D01*
X127119142Y-77112857D01*
X127119142Y-77255714D01*
X127071523Y-77350952D01*
X127023904Y-77398571D01*
X126928666Y-77446190D01*
X126547714Y-77446190D01*
X127500095Y-77017619D02*
X127547714Y-76970000D01*
X127642952Y-76922380D01*
X127881047Y-76922380D01*
X127976285Y-76970000D01*
X128023904Y-77017619D01*
X128071523Y-77112857D01*
X128071523Y-77208095D01*
X128023904Y-77350952D01*
X127452476Y-77922380D01*
X128071523Y-77922380D01*
X128928666Y-77255714D02*
X128928666Y-77922380D01*
X128690571Y-76874761D02*
X128452476Y-77589047D01*
X129071523Y-77589047D01*
%TO.C,J1*%
X173087380Y-77793333D02*
X173801666Y-77793333D01*
X173944523Y-77840952D01*
X174039761Y-77936190D01*
X174087380Y-78079047D01*
X174087380Y-78174285D01*
X174087380Y-76793333D02*
X174087380Y-77364761D01*
X174087380Y-77079047D02*
X173087380Y-77079047D01*
X173230238Y-77174285D01*
X173325476Y-77269523D01*
X173373095Y-77364761D01*
%TO.C,R29*%
X129913142Y-110434380D02*
X129579809Y-109958190D01*
X129341714Y-110434380D02*
X129341714Y-109434380D01*
X129722666Y-109434380D01*
X129817904Y-109482000D01*
X129865523Y-109529619D01*
X129913142Y-109624857D01*
X129913142Y-109767714D01*
X129865523Y-109862952D01*
X129817904Y-109910571D01*
X129722666Y-109958190D01*
X129341714Y-109958190D01*
X130294095Y-109529619D02*
X130341714Y-109482000D01*
X130436952Y-109434380D01*
X130675047Y-109434380D01*
X130770285Y-109482000D01*
X130817904Y-109529619D01*
X130865523Y-109624857D01*
X130865523Y-109720095D01*
X130817904Y-109862952D01*
X130246476Y-110434380D01*
X130865523Y-110434380D01*
X131341714Y-110434380D02*
X131532190Y-110434380D01*
X131627428Y-110386761D01*
X131675047Y-110339142D01*
X131770285Y-110196285D01*
X131817904Y-110005809D01*
X131817904Y-109624857D01*
X131770285Y-109529619D01*
X131722666Y-109482000D01*
X131627428Y-109434380D01*
X131436952Y-109434380D01*
X131341714Y-109482000D01*
X131294095Y-109529619D01*
X131246476Y-109624857D01*
X131246476Y-109862952D01*
X131294095Y-109958190D01*
X131341714Y-110005809D01*
X131436952Y-110053428D01*
X131627428Y-110053428D01*
X131722666Y-110005809D01*
X131770285Y-109958190D01*
X131817904Y-109862952D01*
%TO.C,R22*%
X127119142Y-81986380D02*
X126785809Y-81510190D01*
X126547714Y-81986380D02*
X126547714Y-80986380D01*
X126928666Y-80986380D01*
X127023904Y-81034000D01*
X127071523Y-81081619D01*
X127119142Y-81176857D01*
X127119142Y-81319714D01*
X127071523Y-81414952D01*
X127023904Y-81462571D01*
X126928666Y-81510190D01*
X126547714Y-81510190D01*
X127500095Y-81081619D02*
X127547714Y-81034000D01*
X127642952Y-80986380D01*
X127881047Y-80986380D01*
X127976285Y-81034000D01*
X128023904Y-81081619D01*
X128071523Y-81176857D01*
X128071523Y-81272095D01*
X128023904Y-81414952D01*
X127452476Y-81986380D01*
X128071523Y-81986380D01*
X128452476Y-81081619D02*
X128500095Y-81034000D01*
X128595333Y-80986380D01*
X128833428Y-80986380D01*
X128928666Y-81034000D01*
X128976285Y-81081619D01*
X129023904Y-81176857D01*
X129023904Y-81272095D01*
X128976285Y-81414952D01*
X128404857Y-81986380D01*
X129023904Y-81986380D01*
%TO.C,R37*%
X101211142Y-123134380D02*
X100877809Y-122658190D01*
X100639714Y-123134380D02*
X100639714Y-122134380D01*
X101020666Y-122134380D01*
X101115904Y-122182000D01*
X101163523Y-122229619D01*
X101211142Y-122324857D01*
X101211142Y-122467714D01*
X101163523Y-122562952D01*
X101115904Y-122610571D01*
X101020666Y-122658190D01*
X100639714Y-122658190D01*
X101544476Y-122134380D02*
X102163523Y-122134380D01*
X101830190Y-122515333D01*
X101973047Y-122515333D01*
X102068285Y-122562952D01*
X102115904Y-122610571D01*
X102163523Y-122705809D01*
X102163523Y-122943904D01*
X102115904Y-123039142D01*
X102068285Y-123086761D01*
X101973047Y-123134380D01*
X101687333Y-123134380D01*
X101592095Y-123086761D01*
X101544476Y-123039142D01*
X102496857Y-122134380D02*
X103163523Y-122134380D01*
X102734952Y-123134380D01*
%TO.C,R13*%
X129913142Y-84018380D02*
X129579809Y-83542190D01*
X129341714Y-84018380D02*
X129341714Y-83018380D01*
X129722666Y-83018380D01*
X129817904Y-83066000D01*
X129865523Y-83113619D01*
X129913142Y-83208857D01*
X129913142Y-83351714D01*
X129865523Y-83446952D01*
X129817904Y-83494571D01*
X129722666Y-83542190D01*
X129341714Y-83542190D01*
X130865523Y-84018380D02*
X130294095Y-84018380D01*
X130579809Y-84018380D02*
X130579809Y-83018380D01*
X130484571Y-83161238D01*
X130389333Y-83256476D01*
X130294095Y-83304095D01*
X131198857Y-83018380D02*
X131817904Y-83018380D01*
X131484571Y-83399333D01*
X131627428Y-83399333D01*
X131722666Y-83446952D01*
X131770285Y-83494571D01*
X131817904Y-83589809D01*
X131817904Y-83827904D01*
X131770285Y-83923142D01*
X131722666Y-83970761D01*
X131627428Y-84018380D01*
X131341714Y-84018380D01*
X131246476Y-83970761D01*
X131198857Y-83923142D01*
%TO.C,R19*%
X129913142Y-96210380D02*
X129579809Y-95734190D01*
X129341714Y-96210380D02*
X129341714Y-95210380D01*
X129722666Y-95210380D01*
X129817904Y-95258000D01*
X129865523Y-95305619D01*
X129913142Y-95400857D01*
X129913142Y-95543714D01*
X129865523Y-95638952D01*
X129817904Y-95686571D01*
X129722666Y-95734190D01*
X129341714Y-95734190D01*
X130865523Y-96210380D02*
X130294095Y-96210380D01*
X130579809Y-96210380D02*
X130579809Y-95210380D01*
X130484571Y-95353238D01*
X130389333Y-95448476D01*
X130294095Y-95496095D01*
X131341714Y-96210380D02*
X131532190Y-96210380D01*
X131627428Y-96162761D01*
X131675047Y-96115142D01*
X131770285Y-95972285D01*
X131817904Y-95781809D01*
X131817904Y-95400857D01*
X131770285Y-95305619D01*
X131722666Y-95258000D01*
X131627428Y-95210380D01*
X131436952Y-95210380D01*
X131341714Y-95258000D01*
X131294095Y-95305619D01*
X131246476Y-95400857D01*
X131246476Y-95638952D01*
X131294095Y-95734190D01*
X131341714Y-95781809D01*
X131436952Y-95829428D01*
X131627428Y-95829428D01*
X131722666Y-95781809D01*
X131770285Y-95734190D01*
X131817904Y-95638952D01*
D12*
%TO.C,R7*%
X162586936Y-101627000D02*
X163041064Y-101627000D01*
X162586936Y-103097000D02*
X163041064Y-103097000D01*
%TO.C,Q1*%
X159222000Y-87884000D02*
X159222000Y-87234000D01*
X159222000Y-87884000D02*
X159222000Y-89559000D01*
X162342000Y-87884000D02*
X162342000Y-88534000D01*
X162342000Y-87884000D02*
X162342000Y-87234000D01*
%TO.C,Q8*%
X98334000Y-81788000D02*
X98334000Y-82438000D01*
X98334000Y-81788000D02*
X98334000Y-81138000D01*
X95214000Y-81788000D02*
X95214000Y-83463000D01*
X95214000Y-81788000D02*
X95214000Y-81138000D01*
%TO.C,R10*%
X162586936Y-115289000D02*
X163041064Y-115289000D01*
X162586936Y-113819000D02*
X163041064Y-113819000D01*
%TO.C,R32*%
X127280936Y-116813000D02*
X127735064Y-116813000D01*
X127280936Y-115343000D02*
X127735064Y-115343000D01*
%TO.C,Q7*%
X95214000Y-86614000D02*
X95214000Y-85964000D01*
X98334000Y-86614000D02*
X98334000Y-85964000D01*
X95214000Y-86614000D02*
X95214000Y-88289000D01*
X98334000Y-86614000D02*
X98334000Y-87264000D01*
%TO.C,R20*%
X127280936Y-97055000D02*
X127735064Y-97055000D01*
X127280936Y-98525000D02*
X127735064Y-98525000D01*
%TO.C,J2*%
X99516000Y-96504000D02*
X97706000Y-96504000D01*
X104816000Y-103324000D02*
X99516000Y-103324000D01*
X96906000Y-100884000D02*
X96906000Y-100284000D01*
X97706000Y-99584000D02*
X99516000Y-99584000D01*
X99516000Y-92764000D02*
X104816000Y-92764000D01*
X106526000Y-91854000D02*
X97706000Y-91854000D01*
X97706000Y-104234000D02*
X106526000Y-104234000D01*
X97706000Y-96504000D02*
X97706000Y-94504000D01*
X99516000Y-103324000D02*
X99516000Y-92764000D01*
X104816000Y-98584000D02*
X104816000Y-97504000D01*
X97506000Y-100584000D02*
X96906000Y-100884000D01*
X98516000Y-91854000D02*
X98516000Y-94394000D01*
X98516000Y-104234000D02*
X98516000Y-101694000D01*
X99516000Y-94504000D02*
X99516000Y-96504000D01*
X99516000Y-99584000D02*
X99516000Y-101584000D01*
X97706000Y-91854000D02*
X97706000Y-104234000D01*
X99516000Y-101584000D02*
X97706000Y-101584000D01*
X97706000Y-101584000D02*
X97706000Y-99584000D01*
X106526000Y-104234000D02*
X106526000Y-91854000D01*
X96906000Y-100284000D02*
X97506000Y-100584000D01*
X97706000Y-94504000D02*
X99516000Y-94504000D01*
X104816000Y-92764000D02*
X104816000Y-93504000D01*
X104816000Y-102584000D02*
X104816000Y-103324000D01*
X98516000Y-99584000D02*
X98516000Y-96504000D01*
X104816000Y-97504000D02*
G75*
G03*
X104831821Y-93517158I-1650000J2000000D01*
G01*
X104816000Y-102584000D02*
G75*
G03*
X104831821Y-98597158I-1650000J2000000D01*
G01*
%TO.C,R5*%
X162586936Y-105691000D02*
X163041064Y-105691000D01*
X162586936Y-107161000D02*
X163041064Y-107161000D01*
%TO.C,R17*%
X127280936Y-90959000D02*
X127735064Y-90959000D01*
X127280936Y-92429000D02*
X127735064Y-92429000D01*
%TO.C,Q9*%
X95214000Y-77216000D02*
X95214000Y-76566000D01*
X95214000Y-77216000D02*
X95214000Y-78891000D01*
X98334000Y-77216000D02*
X98334000Y-76566000D01*
X98334000Y-77216000D02*
X98334000Y-77866000D01*
%TO.C,R1*%
X164565064Y-83593000D02*
X164110936Y-83593000D01*
X164565064Y-85063000D02*
X164110936Y-85063000D01*
%TO.C,R4*%
X162586936Y-107723000D02*
X163041064Y-107723000D01*
X162586936Y-109193000D02*
X163041064Y-109193000D01*
%TO.C,R41*%
X98578936Y-113819000D02*
X99033064Y-113819000D01*
X98578936Y-115289000D02*
X99033064Y-115289000D01*
%TO.C,J5*%
X169986000Y-118424000D02*
X168656000Y-118424000D01*
X167326000Y-115824000D02*
X167326000Y-108144000D01*
X169986000Y-117094000D02*
X169986000Y-118424000D01*
X169986000Y-115824000D02*
X169986000Y-108144000D01*
X169986000Y-115824000D02*
X167326000Y-115824000D01*
X169986000Y-108144000D02*
X167326000Y-108144000D01*
%TO.C,R9*%
X162586936Y-97563000D02*
X163041064Y-97563000D01*
X162586936Y-99033000D02*
X163041064Y-99033000D01*
%TO.C,R27*%
X127280936Y-102589000D02*
X127735064Y-102589000D01*
X127280936Y-101119000D02*
X127735064Y-101119000D01*
%TO.C,J12*%
X108264000Y-118922000D02*
X106934000Y-118922000D01*
X108264000Y-116322000D02*
X108264000Y-108642000D01*
X108264000Y-117592000D02*
X108264000Y-118922000D01*
X108264000Y-108642000D02*
X105604000Y-108642000D01*
X105604000Y-116322000D02*
X105604000Y-108642000D01*
X108264000Y-116322000D02*
X105604000Y-116322000D01*
%TO.C,J8*%
X149412000Y-81026000D02*
X149412000Y-88706000D01*
X146752000Y-88706000D02*
X149412000Y-88706000D01*
X146752000Y-79756000D02*
X146752000Y-78426000D01*
X146752000Y-78426000D02*
X148082000Y-78426000D01*
X146752000Y-81026000D02*
X146752000Y-88706000D01*
X146752000Y-81026000D02*
X149412000Y-81026000D01*
%TO.C,R2*%
X164565064Y-81561000D02*
X164110936Y-81561000D01*
X164565064Y-83031000D02*
X164110936Y-83031000D01*
%TO.C,J11*%
X137982000Y-116322000D02*
X137982000Y-108642000D01*
X137982000Y-117592000D02*
X137982000Y-118922000D01*
X137982000Y-108642000D02*
X135322000Y-108642000D01*
X135322000Y-116322000D02*
X135322000Y-108642000D01*
X137982000Y-118922000D02*
X136652000Y-118922000D01*
X137982000Y-116322000D02*
X135322000Y-116322000D01*
%TO.C,R40*%
X98578936Y-115851000D02*
X99033064Y-115851000D01*
X98578936Y-117321000D02*
X99033064Y-117321000D01*
%TO.C,R26*%
X127280936Y-103151000D02*
X127735064Y-103151000D01*
X127280936Y-104621000D02*
X127735064Y-104621000D01*
%TO.C,R3*%
X164565064Y-79529000D02*
X164110936Y-79529000D01*
X164565064Y-80999000D02*
X164110936Y-80999000D01*
%TO.C,R35*%
X105129064Y-78513000D02*
X104674936Y-78513000D01*
X105129064Y-79983000D02*
X104674936Y-79983000D01*
%TO.C,Q6*%
X120178000Y-77978000D02*
X120178000Y-77328000D01*
X117058000Y-77978000D02*
X117058000Y-79653000D01*
X117058000Y-77978000D02*
X117058000Y-77328000D01*
X120178000Y-77978000D02*
X120178000Y-78628000D01*
%TO.C,J6*%
X135322000Y-81026000D02*
X137982000Y-81026000D01*
X135322000Y-88706000D02*
X137982000Y-88706000D01*
X135322000Y-78426000D02*
X136652000Y-78426000D01*
X137982000Y-81026000D02*
X137982000Y-88706000D01*
X135322000Y-79756000D02*
X135322000Y-78426000D01*
X135322000Y-81026000D02*
X135322000Y-88706000D01*
%TO.C,R44*%
X98578936Y-109193000D02*
X99033064Y-109193000D01*
X98578936Y-107723000D02*
X99033064Y-107723000D01*
%TO.C,R14*%
X127280936Y-84863000D02*
X127735064Y-84863000D01*
X127280936Y-86333000D02*
X127735064Y-86333000D01*
%TO.C,R25*%
X127280936Y-105183000D02*
X127735064Y-105183000D01*
X127280936Y-106653000D02*
X127735064Y-106653000D01*
%TO.C,R12*%
X162586936Y-111225000D02*
X163041064Y-111225000D01*
X162586936Y-109755000D02*
X163041064Y-109755000D01*
%TO.C,R43*%
X98578936Y-111225000D02*
X99033064Y-111225000D01*
X98578936Y-109755000D02*
X99033064Y-109755000D01*
%TO.C,R42*%
X98578936Y-113257000D02*
X99033064Y-113257000D01*
X98578936Y-111787000D02*
X99033064Y-111787000D01*
%TO.C,R21*%
X127280936Y-99087000D02*
X127735064Y-99087000D01*
X127280936Y-100557000D02*
X127735064Y-100557000D01*
%TO.C,Q4*%
X117058000Y-86106000D02*
X117058000Y-85456000D01*
X117058000Y-86106000D02*
X117058000Y-87781000D01*
X120178000Y-86106000D02*
X120178000Y-85456000D01*
X120178000Y-86106000D02*
X120178000Y-86756000D01*
%TO.C,R11*%
X162586936Y-113257000D02*
X163041064Y-113257000D01*
X162586936Y-111787000D02*
X163041064Y-111787000D01*
%TO.C,R45*%
X98578936Y-105691000D02*
X99033064Y-105691000D01*
X98578936Y-107161000D02*
X99033064Y-107161000D01*
%TO.C,J4*%
X182178000Y-115814000D02*
X179518000Y-115814000D01*
X182178000Y-117084000D02*
X182178000Y-118414000D01*
X182178000Y-118414000D02*
X180848000Y-118414000D01*
X182178000Y-108134000D02*
X179518000Y-108134000D01*
X179518000Y-115814000D02*
X179518000Y-108134000D01*
X182178000Y-115814000D02*
X182178000Y-108134000D01*
%TO.C,R33*%
X127280936Y-113311000D02*
X127735064Y-113311000D01*
X127280936Y-114781000D02*
X127735064Y-114781000D01*
%TO.C,R16*%
X127280936Y-88927000D02*
X127735064Y-88927000D01*
X127280936Y-90397000D02*
X127735064Y-90397000D01*
%TO.C,J9*%
X149920000Y-117612000D02*
X149920000Y-118942000D01*
X149920000Y-118942000D02*
X148590000Y-118942000D01*
X149920000Y-116342000D02*
X149920000Y-108662000D01*
X149920000Y-108662000D02*
X147260000Y-108662000D01*
X149920000Y-116342000D02*
X147260000Y-116342000D01*
X147260000Y-116342000D02*
X147260000Y-108662000D01*
%TO.C,J10*%
X141418000Y-116332000D02*
X141418000Y-108652000D01*
X144078000Y-118932000D02*
X142748000Y-118932000D01*
X144078000Y-117602000D02*
X144078000Y-118932000D01*
X144078000Y-116332000D02*
X141418000Y-116332000D01*
X144078000Y-116332000D02*
X144078000Y-108652000D01*
X144078000Y-108652000D02*
X141418000Y-108652000D01*
%TO.C,R23*%
X124941064Y-80237000D02*
X124486936Y-80237000D01*
X124941064Y-78767000D02*
X124486936Y-78767000D01*
%TO.C,J14*%
X117916000Y-116322000D02*
X117916000Y-108642000D01*
X115256000Y-116322000D02*
X115256000Y-108642000D01*
X117916000Y-116322000D02*
X115256000Y-116322000D01*
X117916000Y-118922000D02*
X116586000Y-118922000D01*
X117916000Y-108642000D02*
X115256000Y-108642000D01*
X117916000Y-117592000D02*
X117916000Y-118922000D01*
%TO.C,R6*%
X162586936Y-105129000D02*
X163041064Y-105129000D01*
X162586936Y-103659000D02*
X163041064Y-103659000D01*
%TO.C,J7*%
X140910000Y-78426000D02*
X142240000Y-78426000D01*
X143570000Y-81026000D02*
X143570000Y-88706000D01*
X140910000Y-81026000D02*
X140910000Y-88706000D01*
X140910000Y-88706000D02*
X143570000Y-88706000D01*
X140910000Y-79756000D02*
X140910000Y-78426000D01*
X140910000Y-81026000D02*
X143570000Y-81026000D01*
%TO.C,J13*%
X113090000Y-116322000D02*
X110430000Y-116322000D01*
X113090000Y-117592000D02*
X113090000Y-118922000D01*
X113090000Y-116322000D02*
X113090000Y-108642000D01*
X113090000Y-118922000D02*
X111760000Y-118922000D01*
X113090000Y-108642000D02*
X110430000Y-108642000D01*
X110430000Y-116322000D02*
X110430000Y-108642000D01*
%TO.C,R31*%
X127280936Y-117375000D02*
X127735064Y-117375000D01*
X127280936Y-118845000D02*
X127735064Y-118845000D01*
%TO.C,R34*%
X105129064Y-82015000D02*
X104674936Y-82015000D01*
X105129064Y-80545000D02*
X104674936Y-80545000D01*
%TO.C,R28*%
X127280936Y-112749000D02*
X127735064Y-112749000D01*
X127280936Y-111279000D02*
X127735064Y-111279000D01*
%TO.C,Q2*%
X162342000Y-83820000D02*
X162342000Y-84470000D01*
X162342000Y-83820000D02*
X162342000Y-83170000D01*
X159222000Y-83820000D02*
X159222000Y-85495000D01*
X159222000Y-83820000D02*
X159222000Y-83170000D01*
%TO.C,R18*%
X127280936Y-94461000D02*
X127735064Y-94461000D01*
X127280936Y-92991000D02*
X127735064Y-92991000D01*
%TO.C,R36*%
X105129064Y-77951000D02*
X104674936Y-77951000D01*
X105129064Y-76481000D02*
X104674936Y-76481000D01*
%TO.C,Q5*%
X120178000Y-82042000D02*
X120178000Y-81392000D01*
X117058000Y-82042000D02*
X117058000Y-83717000D01*
X120178000Y-82042000D02*
X120178000Y-82692000D01*
X117058000Y-82042000D02*
X117058000Y-81392000D01*
%TO.C,R38*%
X98578936Y-121385000D02*
X99033064Y-121385000D01*
X98578936Y-119915000D02*
X99033064Y-119915000D01*
%TO.C,R15*%
X127280936Y-86895000D02*
X127735064Y-86895000D01*
X127280936Y-88365000D02*
X127735064Y-88365000D01*
%TO.C,Q3*%
X159222000Y-79756000D02*
X159222000Y-79106000D01*
X162342000Y-79756000D02*
X162342000Y-80406000D01*
X162342000Y-79756000D02*
X162342000Y-79106000D01*
X159222000Y-79756000D02*
X159222000Y-81431000D01*
%TO.C,R8*%
X162586936Y-101065000D02*
X163041064Y-101065000D01*
X162586936Y-99595000D02*
X163041064Y-99595000D01*
%TO.C,R30*%
X127280936Y-108685000D02*
X127735064Y-108685000D01*
X127280936Y-107215000D02*
X127735064Y-107215000D01*
%TO.C,R39*%
X98578936Y-117883000D02*
X99033064Y-117883000D01*
X98578936Y-119353000D02*
X99033064Y-119353000D01*
%TO.C,J3*%
X176082000Y-118424000D02*
X174752000Y-118424000D01*
X173422000Y-115824000D02*
X173422000Y-108144000D01*
X176082000Y-108144000D02*
X173422000Y-108144000D01*
X176082000Y-117094000D02*
X176082000Y-118424000D01*
X176082000Y-115824000D02*
X173422000Y-115824000D01*
X176082000Y-115824000D02*
X176082000Y-108144000D01*
%TO.C,R24*%
X124941064Y-76735000D02*
X124486936Y-76735000D01*
X124941064Y-78205000D02*
X124486936Y-78205000D01*
%TO.C,J1*%
X183145000Y-77745000D02*
X183145000Y-71745000D01*
X175525000Y-77745000D02*
X175525000Y-71745000D01*
X181365000Y-80802071D02*
X181365000Y-80405000D01*
X176285000Y-80735000D02*
X176285000Y-80405000D01*
X174575000Y-77745000D02*
X174575000Y-80405000D01*
X178825000Y-80802071D02*
X178825000Y-80405000D01*
X178065000Y-77745000D02*
X178065000Y-71745000D01*
X177175000Y-80405000D02*
X177175000Y-77745000D01*
X183145000Y-71745000D02*
X183905000Y-71745000D01*
X183145000Y-80802071D02*
X183145000Y-80405000D01*
X182255000Y-80405000D02*
X182255000Y-77745000D01*
X183905000Y-80802071D02*
X183905000Y-80405000D01*
X174635000Y-83115000D02*
X174635000Y-81845000D01*
X175525000Y-71745000D02*
X176285000Y-71745000D01*
X175905000Y-83115000D02*
X174635000Y-83115000D01*
X179715000Y-80405000D02*
X179715000Y-77745000D01*
X183905000Y-71745000D02*
X183905000Y-77745000D01*
X175585000Y-77745000D02*
X175585000Y-71745000D01*
X181365000Y-71745000D02*
X181365000Y-77745000D01*
X178065000Y-71745000D02*
X178825000Y-71745000D01*
X176065000Y-77745000D02*
X176065000Y-71745000D01*
X175825000Y-77745000D02*
X175825000Y-71745000D01*
X175525000Y-80735000D02*
X175525000Y-80405000D01*
X176285000Y-71745000D02*
X176285000Y-77745000D01*
X180605000Y-71745000D02*
X181365000Y-71745000D01*
X180605000Y-77745000D02*
X180605000Y-71745000D01*
X178065000Y-80802071D02*
X178065000Y-80405000D01*
X175945000Y-77745000D02*
X175945000Y-71745000D01*
X180605000Y-80802071D02*
X180605000Y-80405000D01*
X174575000Y-80405000D02*
X184855000Y-80405000D01*
X178825000Y-71745000D02*
X178825000Y-77745000D01*
X175705000Y-77745000D02*
X175705000Y-71745000D01*
X184855000Y-77745000D02*
X174575000Y-77745000D01*
X176185000Y-77745000D02*
X176185000Y-71745000D01*
X184855000Y-80405000D02*
X184855000Y-77745000D01*
%TO.C,R29*%
X127280936Y-110717000D02*
X127735064Y-110717000D01*
X127280936Y-109247000D02*
X127735064Y-109247000D01*
%TO.C,R22*%
X124941064Y-80799000D02*
X124486936Y-80799000D01*
X124941064Y-82269000D02*
X124486936Y-82269000D01*
%TO.C,R37*%
X98578936Y-121947000D02*
X99033064Y-121947000D01*
X98578936Y-123417000D02*
X99033064Y-123417000D01*
%TO.C,R13*%
X127280936Y-82831000D02*
X127735064Y-82831000D01*
X127280936Y-84301000D02*
X127735064Y-84301000D01*
%TO.C,R19*%
X127280936Y-96493000D02*
X127735064Y-96493000D01*
X127280936Y-95023000D02*
X127735064Y-95023000D01*
%TD*%
M02*
