%TF.GenerationSoftware,KiCad,Pcbnew,(6.0.7)*%
%TF.CreationDate,2023-03-18T11:43:07+08:00*%
%TF.ProjectId,LED driver,4c454420-6472-4697-9665-722e6b696361,rev?*%
%TF.SameCoordinates,Original*%
%TF.FileFunction,Paste,Top*%
%TF.FilePolarity,Positive*%
%FSLAX46Y46*%
G04 Gerber Fmt 4.6, Leading zero omitted, Abs format (unit mm)*
G04 Created by KiCad (PCBNEW (6.0.7)) date 2023-03-18 11:43:07*
%MOMM*%
%LPD*%
G01*
G04 APERTURE LIST*
G04 Aperture macros list*
%AMRoundRect*
0 Rectangle with rounded corners*
0 $1 Rounding radius*
0 $2 $3 $4 $5 $6 $7 $8 $9 X,Y pos of 4 corners*
0 Add a 4 corners polygon primitive as box body*
4,1,4,$2,$3,$4,$5,$6,$7,$8,$9,$2,$3,0*
0 Add four circle primitives for the rounded corners*
1,1,$1+$1,$2,$3*
1,1,$1+$1,$4,$5*
1,1,$1+$1,$6,$7*
1,1,$1+$1,$8,$9*
0 Add four rect primitives between the rounded corners*
20,1,$1+$1,$2,$3,$4,$5,0*
20,1,$1+$1,$4,$5,$6,$7,0*
20,1,$1+$1,$6,$7,$8,$9,0*
20,1,$1+$1,$8,$9,$2,$3,0*%
G04 Aperture macros list end*
%ADD10RoundRect,0.250000X-0.262500X-0.450000X0.262500X-0.450000X0.262500X0.450000X-0.262500X0.450000X0*%
%ADD11RoundRect,0.150000X0.150000X-0.587500X0.150000X0.587500X-0.150000X0.587500X-0.150000X-0.587500X0*%
%ADD12RoundRect,0.250000X0.262500X0.450000X-0.262500X0.450000X-0.262500X-0.450000X0.262500X-0.450000X0*%
G04 APERTURE END LIST*
D10*
%TO.C,R7*%
X161901500Y-102362000D03*
X163726500Y-102362000D03*
%TD*%
D11*
%TO.C,Q1*%
X159832000Y-88821500D03*
X161732000Y-88821500D03*
X160782000Y-86946500D03*
%TD*%
%TO.C,Q8*%
X95824000Y-82725500D03*
X97724000Y-82725500D03*
X96774000Y-80850500D03*
%TD*%
D10*
%TO.C,R10*%
X161901500Y-114554000D03*
X163726500Y-114554000D03*
%TD*%
%TO.C,R32*%
X126595500Y-116078000D03*
X128420500Y-116078000D03*
%TD*%
D11*
%TO.C,Q7*%
X95824000Y-87551500D03*
X97724000Y-87551500D03*
X96774000Y-85676500D03*
%TD*%
D10*
%TO.C,R20*%
X126595500Y-97790000D03*
X128420500Y-97790000D03*
%TD*%
%TO.C,R5*%
X161901500Y-106426000D03*
X163726500Y-106426000D03*
%TD*%
%TO.C,R17*%
X126595500Y-91694000D03*
X128420500Y-91694000D03*
%TD*%
D11*
%TO.C,Q9*%
X95824000Y-78153500D03*
X97724000Y-78153500D03*
X96774000Y-76278500D03*
%TD*%
D12*
%TO.C,R1*%
X165250500Y-84328000D03*
X163425500Y-84328000D03*
%TD*%
D10*
%TO.C,R4*%
X161901500Y-108458000D03*
X163726500Y-108458000D03*
%TD*%
%TO.C,R41*%
X97893500Y-114554000D03*
X99718500Y-114554000D03*
%TD*%
%TO.C,R9*%
X161901500Y-98298000D03*
X163726500Y-98298000D03*
%TD*%
%TO.C,R27*%
X126595500Y-101854000D03*
X128420500Y-101854000D03*
%TD*%
D12*
%TO.C,R2*%
X165250500Y-82296000D03*
X163425500Y-82296000D03*
%TD*%
D10*
%TO.C,R40*%
X97893500Y-116586000D03*
X99718500Y-116586000D03*
%TD*%
%TO.C,R26*%
X126595500Y-103886000D03*
X128420500Y-103886000D03*
%TD*%
D12*
%TO.C,R3*%
X165250500Y-80264000D03*
X163425500Y-80264000D03*
%TD*%
%TO.C,R35*%
X105814500Y-79248000D03*
X103989500Y-79248000D03*
%TD*%
D11*
%TO.C,Q6*%
X117668000Y-78915500D03*
X119568000Y-78915500D03*
X118618000Y-77040500D03*
%TD*%
D10*
%TO.C,R44*%
X97893500Y-108458000D03*
X99718500Y-108458000D03*
%TD*%
%TO.C,R14*%
X126595500Y-85598000D03*
X128420500Y-85598000D03*
%TD*%
%TO.C,R25*%
X126595500Y-105918000D03*
X128420500Y-105918000D03*
%TD*%
%TO.C,R12*%
X161901500Y-110490000D03*
X163726500Y-110490000D03*
%TD*%
%TO.C,R43*%
X97893500Y-110490000D03*
X99718500Y-110490000D03*
%TD*%
%TO.C,R42*%
X97893500Y-112522000D03*
X99718500Y-112522000D03*
%TD*%
%TO.C,R21*%
X126595500Y-99822000D03*
X128420500Y-99822000D03*
%TD*%
D11*
%TO.C,Q4*%
X117668000Y-87043500D03*
X119568000Y-87043500D03*
X118618000Y-85168500D03*
%TD*%
D10*
%TO.C,R11*%
X161901500Y-112522000D03*
X163726500Y-112522000D03*
%TD*%
%TO.C,R45*%
X97893500Y-106426000D03*
X99718500Y-106426000D03*
%TD*%
%TO.C,R33*%
X126595500Y-114046000D03*
X128420500Y-114046000D03*
%TD*%
%TO.C,R16*%
X126595500Y-89662000D03*
X128420500Y-89662000D03*
%TD*%
D12*
%TO.C,R23*%
X125626500Y-79502000D03*
X123801500Y-79502000D03*
%TD*%
D10*
%TO.C,R6*%
X161901500Y-104394000D03*
X163726500Y-104394000D03*
%TD*%
%TO.C,R31*%
X126595500Y-118110000D03*
X128420500Y-118110000D03*
%TD*%
D12*
%TO.C,R34*%
X105814500Y-81280000D03*
X103989500Y-81280000D03*
%TD*%
D10*
%TO.C,R28*%
X126595500Y-112014000D03*
X128420500Y-112014000D03*
%TD*%
D11*
%TO.C,Q2*%
X159832000Y-84757500D03*
X161732000Y-84757500D03*
X160782000Y-82882500D03*
%TD*%
D10*
%TO.C,R18*%
X126595500Y-93726000D03*
X128420500Y-93726000D03*
%TD*%
D12*
%TO.C,R36*%
X105814500Y-77216000D03*
X103989500Y-77216000D03*
%TD*%
D11*
%TO.C,Q5*%
X117668000Y-82979500D03*
X119568000Y-82979500D03*
X118618000Y-81104500D03*
%TD*%
D10*
%TO.C,R38*%
X97893500Y-120650000D03*
X99718500Y-120650000D03*
%TD*%
%TO.C,R15*%
X126595500Y-87630000D03*
X128420500Y-87630000D03*
%TD*%
D11*
%TO.C,Q3*%
X159832000Y-80693500D03*
X161732000Y-80693500D03*
X160782000Y-78818500D03*
%TD*%
D10*
%TO.C,R8*%
X161901500Y-100330000D03*
X163726500Y-100330000D03*
%TD*%
%TO.C,R30*%
X126595500Y-107950000D03*
X128420500Y-107950000D03*
%TD*%
%TO.C,R39*%
X97893500Y-118618000D03*
X99718500Y-118618000D03*
%TD*%
D12*
%TO.C,R24*%
X125626500Y-77470000D03*
X123801500Y-77470000D03*
%TD*%
D10*
%TO.C,R29*%
X126595500Y-109982000D03*
X128420500Y-109982000D03*
%TD*%
D12*
%TO.C,R22*%
X125626500Y-81534000D03*
X123801500Y-81534000D03*
%TD*%
D10*
%TO.C,R37*%
X97893500Y-122682000D03*
X99718500Y-122682000D03*
%TD*%
%TO.C,R13*%
X126595500Y-83566000D03*
X128420500Y-83566000D03*
%TD*%
%TO.C,R19*%
X126595500Y-95758000D03*
X128420500Y-95758000D03*
%TD*%
M02*
