%TF.GenerationSoftware,KiCad,Pcbnew,(6.0.7)*%
%TF.CreationDate,2023-03-18T11:43:07+08:00*%
%TF.ProjectId,LED driver,4c454420-6472-4697-9665-722e6b696361,rev?*%
%TF.SameCoordinates,Original*%
%TF.FileFunction,Soldermask,Bot*%
%TF.FilePolarity,Negative*%
%FSLAX46Y46*%
G04 Gerber Fmt 4.6, Leading zero omitted, Abs format (unit mm)*
G04 Created by KiCad (PCBNEW (6.0.7)) date 2023-03-18 11:43:07*
%MOMM*%
%LPD*%
G01*
G04 APERTURE LIST*
G04 Aperture macros list*
%AMRoundRect*
0 Rectangle with rounded corners*
0 $1 Rounding radius*
0 $2 $3 $4 $5 $6 $7 $8 $9 X,Y pos of 4 corners*
0 Add a 4 corners polygon primitive as box body*
4,1,4,$2,$3,$4,$5,$6,$7,$8,$9,$2,$3,0*
0 Add four circle primitives for the rounded corners*
1,1,$1+$1,$2,$3*
1,1,$1+$1,$4,$5*
1,1,$1+$1,$6,$7*
1,1,$1+$1,$8,$9*
0 Add four rect primitives between the rounded corners*
20,1,$1+$1,$2,$3,$4,$5,0*
20,1,$1+$1,$4,$5,$6,$7,0*
20,1,$1+$1,$6,$7,$8,$9,0*
20,1,$1+$1,$8,$9,$2,$3,0*%
G04 Aperture macros list end*
%ADD10RoundRect,0.249999X1.550001X-0.790001X1.550001X0.790001X-1.550001X0.790001X-1.550001X-0.790001X0*%
%ADD11O,3.600000X2.080000*%
%ADD12R,1.700000X1.700000*%
%ADD13O,1.700000X1.700000*%
%ADD14R,1.600000X1.600000*%
%ADD15O,1.600000X1.600000*%
G04 APERTURE END LIST*
D10*
%TO.C,J2*%
X102616000Y-100584000D03*
D11*
X102616000Y-95504000D03*
%TD*%
D12*
%TO.C,J5*%
X168656000Y-117094000D03*
D13*
X168656000Y-114554000D03*
X168656000Y-112014000D03*
X168656000Y-109474000D03*
%TD*%
D12*
%TO.C,J12*%
X106934000Y-117592000D03*
D13*
X106934000Y-115052000D03*
X106934000Y-112512000D03*
X106934000Y-109972000D03*
%TD*%
D12*
%TO.C,J8*%
X148082000Y-79756000D03*
D13*
X148082000Y-82296000D03*
X148082000Y-84836000D03*
X148082000Y-87376000D03*
%TD*%
D12*
%TO.C,J11*%
X136652000Y-117592000D03*
D13*
X136652000Y-115052000D03*
X136652000Y-112512000D03*
X136652000Y-109972000D03*
%TD*%
D12*
%TO.C,J6*%
X136652000Y-79756000D03*
D13*
X136652000Y-82296000D03*
X136652000Y-84836000D03*
X136652000Y-87376000D03*
%TD*%
D12*
%TO.C,J4*%
X180848000Y-117084000D03*
D13*
X180848000Y-114544000D03*
X180848000Y-112004000D03*
X180848000Y-109464000D03*
%TD*%
D12*
%TO.C,J9*%
X148590000Y-117612000D03*
D13*
X148590000Y-115072000D03*
X148590000Y-112532000D03*
X148590000Y-109992000D03*
%TD*%
D12*
%TO.C,J10*%
X142748000Y-117602000D03*
D13*
X142748000Y-115062000D03*
X142748000Y-112522000D03*
X142748000Y-109982000D03*
%TD*%
D12*
%TO.C,J14*%
X116586000Y-117592000D03*
D13*
X116586000Y-115052000D03*
X116586000Y-112512000D03*
X116586000Y-109972000D03*
%TD*%
D12*
%TO.C,J7*%
X142240000Y-79756000D03*
D13*
X142240000Y-82296000D03*
X142240000Y-84836000D03*
X142240000Y-87376000D03*
%TD*%
D12*
%TO.C,J13*%
X111760000Y-117592000D03*
D13*
X111760000Y-115052000D03*
X111760000Y-112512000D03*
X111760000Y-109972000D03*
%TD*%
D12*
%TO.C,J3*%
X174752000Y-117094000D03*
D13*
X174752000Y-114554000D03*
X174752000Y-112014000D03*
X174752000Y-109474000D03*
%TD*%
D12*
%TO.C,J1*%
X175905000Y-81845000D03*
D13*
X178445000Y-81845000D03*
X180985000Y-81845000D03*
X183525000Y-81845000D03*
%TD*%
D14*
%TO.C,A1*%
X104648000Y-122174000D03*
D15*
X107188000Y-122174000D03*
X109728000Y-122174000D03*
X112268000Y-122174000D03*
X114808000Y-122174000D03*
X117348000Y-122174000D03*
X119888000Y-122174000D03*
X122428000Y-122174000D03*
X127508000Y-122174000D03*
X130048000Y-122174000D03*
X132588000Y-122174000D03*
X135128000Y-122174000D03*
X137668000Y-122174000D03*
X140208000Y-122174000D03*
X140208000Y-73914000D03*
X137668000Y-73914000D03*
X135128000Y-73914000D03*
X132588000Y-73914000D03*
X130048000Y-73914000D03*
X127508000Y-73914000D03*
X124968000Y-73914000D03*
X122428000Y-73914000D03*
X118368000Y-73914000D03*
X115828000Y-73914000D03*
X113288000Y-73914000D03*
X110748000Y-73914000D03*
X108208000Y-73914000D03*
X105668000Y-73914000D03*
X103128000Y-73914000D03*
X100588000Y-73914000D03*
X98048000Y-73914000D03*
X95508000Y-73914000D03*
%TD*%
M02*
